<svg width="1936" height="1266" viewBox="0 0 1936 1266" fill="none" xmlns="http://www.w3.org/2000/svg">
<path d="M550.038 1258.24C548.775 1257.34 547.579 1256.36 546.457 1255.3C547.581 1256.36 548.775 1257.35 550.038 1258.24Z" fill="#6892CC"/>
<path d="M554.105 1260.69C552.747 1260 551.435 1259.22 550.194 1258.36C551.437 1259.22 552.745 1260 554.105 1260.69Z" fill="#6892CC"/>
<path d="M546.321 1255.18C542.803 1251.81 540.023 1247.68 538.257 1243.05C540.024 1247.68 542.793 1251.82 546.321 1255.18Z" fill="#6892CC"/>
<path d="M1389.12 1255.3C1388 1256.36 1386.8 1257.34 1385.54 1258.24C1386.8 1257.35 1388 1256.36 1389.12 1255.3Z" fill="#6892CC"/>
<path d="M1380.81 1261.01C1379.53 1261.63 1378.22 1262.18 1376.85 1262.63C1378.22 1262.18 1379.53 1261.63 1380.81 1261.01Z" fill="#6892CC"/>
<path d="M1376.54 1262.74C1375.13 1263.19 1373.67 1263.52 1372.18 1263.78C1373.67 1263.52 1375.13 1263.19 1376.54 1262.74Z" fill="#6892CC"/>
<path d="M558.727 1262.63C557.363 1262.18 556.045 1261.63 554.767 1261.01C556.046 1261.63 557.363 1262.18 558.727 1262.63Z" fill="#6892CC"/>
<path d="M1385.38 1258.36C1384.14 1259.23 1382.83 1260 1381.47 1260.69C1382.83 1260 1384.14 1259.22 1385.38 1258.36Z" fill="#6892CC"/>
<path d="M1371.16 1263.94C1369.64 1264.15 1368.11 1264.3 1366.54 1264.3C1368.11 1264.3 1369.64 1264.15 1371.16 1263.94Z" fill="#6892CC"/>
<path d="M569.043 1264.3C567.47 1264.3 565.934 1264.15 564.42 1263.94C565.935 1264.15 567.47 1264.3 569.043 1264.3Z" fill="#6892CC"/>
<path d="M563.395 1263.78C561.908 1263.52 560.446 1263.19 559.035 1262.74C560.448 1263.19 561.908 1263.52 563.395 1263.78Z" fill="#6892CC"/>
<path d="M538.255 1243.04C538.255 1243.04 538.256 1243.05 538.257 1243.05C540.023 1247.68 542.803 1251.81 546.321 1255.18C546.365 1255.22 546.413 1255.26 546.458 1255.3C547.58 1256.36 548.776 1257.34 550.039 1258.24C550.093 1258.28 550.142 1258.32 550.195 1258.36C551.435 1259.23 552.747 1260 554.106 1260.69C554.325 1260.8 554.547 1260.9 554.768 1261.01C556.047 1261.63 557.364 1262.18 558.728 1262.63C558.832 1262.66 558.931 1262.71 559.036 1262.74C560.447 1263.19 561.91 1263.52 563.396 1263.78C563.736 1263.84 564.077 1263.89 564.421 1263.94C565.935 1264.15 567.471 1264.3 569.044 1264.3H1366.54C1368.11 1264.3 1369.65 1264.15 1371.16 1263.94C1371.5 1263.89 1371.84 1263.84 1372.18 1263.78C1373.67 1263.52 1375.13 1263.19 1376.54 1262.74C1376.65 1262.71 1376.75 1262.66 1376.85 1262.63C1378.22 1262.18 1379.54 1261.63 1380.81 1261.01C1381.03 1260.9 1381.26 1260.8 1381.47 1260.69C1382.83 1260 1384.14 1259.23 1385.39 1258.36C1385.44 1258.32 1385.49 1258.28 1385.54 1258.24C1386.8 1257.35 1388 1256.36 1389.13 1255.3C1389.17 1255.26 1389.21 1255.22 1389.26 1255.18C1392.78 1251.82 1395.56 1247.68 1397.32 1243.04H538.255V1243.04Z" fill="#5082BC"/>
<path d="M758.144 925.401C758.144 939.284 757.984 952.463 757.681 964.978H758.144H767.019H1168.56H1177.7H1177.83H1177.9C1177.87 963.823 1177.86 962.585 1177.83 961.419V925.402L758.144 925.401Z" fill="#5082BC"/>
<path d="M1646.44 0H289.135C232.293 0 186.215 46.079 186.215 102.921V822.478C186.215 879.321 232.296 925.402 289.139 925.402H757.945C757.945 1162.59 711.494 1194.85 693.196 1198.36H569.043C550.834 1198.36 536.074 1213.12 536.074 1231.33C536.074 1235.46 536.867 1239.4 538.256 1243.04H1397.32C1395.56 1247.68 1392.78 1251.81 1389.26 1255.18C1395.56 1249.17 1399.51 1240.72 1399.51 1231.33C1399.51 1213.12 1384.74 1198.36 1366.54 1198.36H1241.98C1224.76 1195.05 1182.58 1166.27 1177.7 964.979H1168.56H767.019H758.144H757.681C757.984 952.465 758.144 939.286 758.144 925.402H1177.83H1646.44C1703.28 925.402 1749.36 879.323 1749.36 822.48V102.922C1749.36 46.079 1703.28 0 1646.44 0ZM1721.74 787.066H213.842V93.584C213.842 57.156 243.373 27.625 279.802 27.625H1655.78C1692.21 27.625 1721.74 57.156 1721.74 93.584L1721.74 787.066Z" fill="#6892CC"/>
<path d="M1655.78 27.625H279.801C243.372 27.625 213.841 57.156 213.841 93.584V787.067H1721.73V93.584C1721.74 57.156 1692.21 27.625 1655.78 27.625ZM702.3 707.47C702.3 719.296 692.713 728.883 680.887 728.883H392.919C381.093 728.883 371.506 719.296 371.506 707.47V121.198C371.506 109.371 381.093 99.785 392.919 99.785H470.695H603.11H680.887C692.712 99.785 702.3 109.372 702.3 121.198V707.47ZM1134.84 707.47C1134.84 719.296 1125.26 728.883 1113.43 728.883H825.464C813.638 728.883 804.051 719.296 804.051 707.47V121.198C804.051 109.371 813.638 99.785 825.464 99.785H903.24H1035.66H1113.43C1125.26 99.785 1134.84 109.372 1134.84 121.198V707.47ZM1564.07 707.47C1564.07 719.296 1554.49 728.883 1542.66 728.883H1254.69C1242.87 728.883 1233.28 719.296 1233.28 707.47V121.198C1233.28 109.371 1242.86 99.785 1254.69 99.785H1332.47H1464.88H1542.66C1554.48 99.785 1564.07 109.372 1564.07 121.198V707.47Z" fill="#D0DBEC"/>
<path d="M680.887 99.7849H603.11H470.695H392.919C381.093 99.7849 371.506 109.372 371.506 121.198V707.47C371.506 719.296 381.093 728.883 392.919 728.883H680.887C692.712 728.883 702.3 719.296 702.3 707.47V121.198C702.3 109.372 692.713 99.7849 680.887 99.7849ZM400.67 191.553C400.67 183.014 407.592 176.092 416.131 176.092H508.71C517.249 176.092 524.171 183.014 524.171 191.553V249.379C524.171 257.918 517.249 264.84 508.71 264.84H416.131C407.593 264.84 400.67 257.917 400.67 249.379V191.553ZM524.17 684.827C524.17 693.366 517.248 700.288 508.709 700.288H416.13C407.592 700.288 400.669 693.366 400.669 684.827V627.001C400.669 618.463 407.591 611.54 416.13 611.54H508.709C517.248 611.54 524.17 618.463 524.17 627.001V684.827ZM673.136 684.827C673.136 693.366 666.214 700.288 657.675 700.288H565.096C556.557 700.288 549.635 693.366 549.635 684.827V627C549.635 618.462 556.557 611.539 565.096 611.539H657.674C666.213 611.539 673.135 618.462 673.135 627L673.136 684.827ZM673.136 577.002C673.136 585.541 666.214 592.463 657.675 592.463H416.13C407.592 592.463 400.669 585.541 400.669 577.001V519.175C400.669 510.636 407.591 503.714 416.13 503.714H657.674C666.213 503.714 673.135 510.636 673.135 519.175L673.136 577.002ZM673.136 461.915C673.136 471.592 665.513 479.466 655.947 479.916L640.289 495.835L620.734 479.959H413.276C406.315 479.959 400.67 474.315 400.67 467.352V404.348C400.67 397.386 406.315 391.742 413.277 391.742H659.201C666.897 391.742 673.136 397.98 673.136 405.676V461.915ZM673.136 357.204C673.136 365.743 666.214 372.665 657.675 372.665H416.13C407.592 372.665 400.669 365.742 400.669 357.204V299.378C400.669 290.839 407.592 283.917 416.13 283.917H657.674C666.213 283.917 673.135 290.838 673.135 299.377L673.136 357.204ZM673.136 249.379C673.136 257.918 666.214 264.84 657.675 264.84H565.096C556.557 264.84 549.635 257.918 549.635 249.379V191.553C549.635 183.014 556.557 176.092 565.096 176.092H657.674C666.213 176.092 673.135 183.014 673.135 191.553L673.136 249.379ZM660.072 157.014H413.733C406.517 157.014 400.669 151.166 400.669 143.951C400.669 136.736 406.517 130.887 413.733 130.887H660.072C667.287 130.887 673.136 136.735 673.136 143.951C673.136 151.166 667.287 157.014 660.072 157.014Z" fill="white"/>
<path d="M660.072 130.888H413.733C406.517 130.888 400.669 136.736 400.669 143.952C400.669 151.166 406.517 157.015 413.733 157.015H660.072C667.287 157.015 673.136 151.167 673.136 143.952C673.136 136.736 667.287 130.888 660.072 130.888Z" fill="#D0DBEC"/>
<path d="M659.201 391.743H413.277C406.314 391.743 400.67 397.387 400.67 404.349V467.353C400.67 474.316 406.315 479.96 413.276 479.96H620.735L640.29 495.836L655.948 479.917C665.513 479.467 673.137 471.593 673.137 461.916V405.678C673.136 397.981 666.897 391.743 659.201 391.743Z" fill="#A9BEDF"/>
<path d="M416.13 264.84H508.709C517.248 264.84 524.17 257.918 524.17 249.379V191.553C524.17 183.014 517.248 176.092 508.709 176.092H416.13C407.591 176.092 400.669 183.014 400.669 191.553V249.379C400.67 257.917 407.592 264.84 416.13 264.84Z" fill="#D0DBEC"/>
<path d="M657.674 283.917H416.13C407.592 283.917 400.669 290.839 400.669 299.378V357.204C400.669 365.742 407.592 372.665 416.13 372.665H657.674C666.213 372.665 673.135 365.743 673.135 357.204V299.377C673.136 290.839 666.214 283.917 657.674 283.917Z" fill="#D0DBEC"/>
<path d="M657.674 176.092H565.096C556.557 176.092 549.635 183.014 549.635 191.553V249.379C549.635 257.918 556.557 264.84 565.096 264.84H657.674C666.213 264.84 673.135 257.918 673.135 249.379V191.553C673.136 183.014 666.214 176.092 657.674 176.092Z" fill="#D0DBEC"/>
<path d="M657.674 611.539H565.096C556.557 611.539 549.635 618.462 549.635 627V684.827C549.635 693.366 556.557 700.288 565.096 700.288H657.674C666.213 700.288 673.135 693.366 673.135 684.827V627C673.136 618.462 666.214 611.539 657.674 611.539Z" fill="#D0DBEC"/>
<path d="M657.674 503.714H416.13C407.591 503.714 400.669 510.636 400.669 519.175V577.001C400.669 585.541 407.592 592.463 416.13 592.463H657.674C666.213 592.463 673.135 585.541 673.135 577.002V519.175C673.136 510.637 666.214 503.714 657.674 503.714Z" fill="#D0DBEC"/>
<path d="M508.709 611.539H416.13C407.591 611.539 400.669 618.462 400.669 627V684.826C400.669 693.365 407.592 700.287 416.13 700.287H508.709C517.248 700.287 524.17 693.365 524.17 684.826V626.999C524.17 618.462 517.248 611.539 508.709 611.539Z" fill="#D0DBEC"/>
<path d="M1113.43 99.7849H1035.66H903.24H825.464C813.638 99.7849 804.051 109.372 804.051 121.198V707.47C804.051 719.296 813.638 728.883 825.464 728.883H1113.43C1125.26 728.883 1134.84 719.296 1134.84 707.47V121.198C1134.84 109.372 1125.26 99.7849 1113.43 99.7849ZM833.215 191.553C833.215 183.014 840.137 176.092 848.676 176.092H941.254C949.793 176.092 956.715 183.014 956.715 191.553V249.379C956.715 257.918 949.793 264.84 941.254 264.84H848.676C840.137 264.84 833.215 257.918 833.215 249.379V191.553ZM833.215 299.378C833.215 290.839 840.137 283.917 848.676 283.917H941.254C949.793 283.917 956.715 290.838 956.715 299.377V465.029C956.715 473.568 949.793 480.49 941.254 480.49H848.676C840.137 480.49 833.215 473.568 833.215 465.029V299.378ZM1105.68 684.827C1105.68 693.366 1098.76 700.288 1090.22 700.288H960.829H868.25H848.675C840.136 700.288 833.214 693.366 833.214 684.827V519.175C833.214 510.636 840.136 503.714 848.675 503.714H1090.22C1098.76 503.714 1105.68 510.636 1105.68 519.175V684.827ZM1105.68 465.03C1105.68 473.569 1098.76 480.491 1090.22 480.491H997.641C989.102 480.491 982.18 473.569 982.18 465.03V191.553C982.18 183.014 989.102 176.092 997.641 176.092H1090.22C1098.76 176.092 1105.68 183.014 1105.68 191.553V465.03ZM1092.62 157.014H846.278C839.063 157.014 833.215 151.166 833.215 143.951C833.215 136.736 839.063 130.887 846.278 130.887H1092.62C1099.83 130.887 1105.68 136.735 1105.68 143.951C1105.68 151.166 1099.83 157.014 1092.62 157.014Z" fill="white"/>
<path d="M1092.62 130.888H846.278C839.063 130.888 833.215 136.736 833.215 143.952C833.215 151.166 839.063 157.015 846.278 157.015H1092.62C1099.83 157.015 1105.68 151.167 1105.68 143.952C1105.68 136.736 1099.83 130.888 1092.62 130.888Z" fill="#A9BEDF"/>
<path d="M848.676 264.84H941.254C949.793 264.84 956.715 257.918 956.715 249.379V191.553C956.715 183.014 949.793 176.092 941.254 176.092H848.676C840.137 176.092 833.215 183.014 833.215 191.553V249.379C833.215 257.918 840.136 264.84 848.676 264.84Z" fill="#D0DBEC"/>
<path d="M848.676 480.491H941.254C949.793 480.491 956.715 473.569 956.715 465.03V299.378C956.715 290.839 949.793 283.918 941.254 283.918H848.676C840.137 283.918 833.215 290.84 833.215 299.379V465.03C833.215 473.569 840.136 480.491 848.676 480.491Z" fill="#A9BEDF"/>
<path d="M1090.22 176.092H997.642C989.103 176.092 982.181 183.014 982.181 191.553V465.03C982.181 473.569 989.103 480.491 997.642 480.491H1090.22C1098.76 480.491 1105.68 473.569 1105.68 465.03V191.553C1105.68 183.014 1098.76 176.092 1090.22 176.092Z" fill="#D0DBEC"/>
<path d="M1090.22 503.714H848.676C840.137 503.714 833.215 510.636 833.215 519.175V684.827C833.215 693.366 840.137 700.288 848.676 700.288H868.251H960.83H1090.22C1098.76 700.288 1105.68 693.366 1105.68 684.827V519.175C1105.68 510.637 1098.76 503.714 1090.22 503.714Z" fill="#D0DBEC"/>
<path d="M1542.66 99.7849H1464.88H1332.47H1254.69C1242.87 99.7849 1233.28 109.372 1233.28 121.198V707.47C1233.28 719.296 1242.87 728.883 1254.69 728.883H1542.66C1554.49 728.883 1564.07 719.296 1564.07 707.47V121.198C1564.07 109.372 1554.49 99.7849 1542.66 99.7849ZM1262.44 225.577C1262.44 218.491 1268.19 212.746 1275.27 212.746H1301.55C1308.63 212.746 1314.38 218.491 1314.38 225.577V251.849C1314.38 258.936 1308.63 264.68 1301.55 264.68H1275.27C1268.19 264.68 1262.44 258.936 1262.44 251.849V225.577ZM1262.44 299.396C1262.44 292.309 1268.19 286.565 1275.27 286.565H1301.55C1308.63 286.565 1314.38 292.309 1314.38 299.396V325.668C1314.38 332.755 1308.63 338.499 1301.55 338.499H1275.27C1268.19 338.499 1262.44 332.755 1262.44 325.668V299.396ZM1262.44 373.215C1262.44 366.129 1268.19 360.384 1275.27 360.384H1301.55C1308.63 360.384 1314.38 366.129 1314.38 373.215V399.487C1314.38 406.573 1308.63 412.318 1301.55 412.318H1275.27C1268.19 412.318 1262.44 406.573 1262.44 399.487V373.215ZM1262.44 447.034C1262.44 439.947 1268.19 434.203 1275.27 434.203H1301.55C1308.63 434.203 1314.38 439.947 1314.38 447.034V473.306C1314.38 480.393 1308.63 486.138 1301.55 486.138H1275.27C1268.19 486.138 1262.44 480.393 1262.44 473.306V447.034ZM1262.44 520.852C1262.44 513.765 1268.19 508.021 1275.27 508.021H1301.55C1308.63 508.021 1314.38 513.765 1314.38 520.852V547.124C1314.38 554.21 1308.63 559.955 1301.55 559.955H1275.27C1268.19 559.955 1262.44 554.21 1262.44 547.124V520.852ZM1262.44 594.671C1262.44 587.584 1268.19 581.839 1275.27 581.839H1301.55C1308.63 581.839 1314.38 587.584 1314.38 594.671V620.943C1314.38 628.03 1308.63 633.773 1301.55 633.773H1275.27C1268.19 633.773 1262.44 628.03 1262.44 620.943V594.671ZM1521.84 694.482H1275.51C1268.29 694.482 1262.44 688.633 1262.44 681.418C1262.44 674.203 1268.29 668.355 1275.51 668.355H1521.84C1529.06 668.355 1534.91 674.203 1534.91 681.418C1534.91 688.634 1529.06 694.482 1521.84 694.482ZM1348.78 286.565H1375.06C1382.14 286.565 1387.89 292.309 1387.89 299.396V325.668C1387.89 332.755 1382.14 338.499 1375.06 338.499H1348.78C1341.7 338.499 1335.95 332.755 1335.95 325.668V299.396C1335.95 292.309 1341.7 286.565 1348.78 286.565ZM1335.95 251.849V225.577C1335.95 218.491 1341.7 212.746 1348.78 212.746H1375.06C1382.14 212.746 1387.89 218.491 1387.89 225.577V251.849C1387.89 258.936 1382.14 264.68 1375.06 264.68H1348.78C1341.7 264.68 1335.95 258.936 1335.95 251.849ZM1348.78 360.383H1375.06C1382.14 360.383 1387.89 366.128 1387.89 373.214V399.486C1387.89 406.572 1382.14 412.317 1375.06 412.317H1348.78C1341.7 412.317 1335.95 406.572 1335.95 399.486V373.215C1335.95 366.129 1341.7 360.383 1348.78 360.383ZM1348.78 434.203H1375.06C1382.14 434.203 1387.89 439.947 1387.89 447.034V473.306C1387.89 480.393 1382.14 486.138 1375.06 486.138H1348.78C1341.7 486.138 1335.95 480.393 1335.95 473.306V447.034C1335.95 439.947 1341.7 434.203 1348.78 434.203ZM1348.78 508.021H1375.06C1382.14 508.021 1387.89 513.765 1387.89 520.852V547.124C1387.89 554.21 1382.14 559.955 1375.06 559.955H1348.78C1341.7 559.955 1335.95 554.21 1335.95 547.124V520.852C1335.95 513.766 1341.7 508.021 1348.78 508.021ZM1348.78 581.839H1375.06C1382.14 581.839 1387.89 587.584 1387.89 594.671V620.943C1387.89 628.03 1382.14 633.773 1375.06 633.773H1348.78C1341.7 633.773 1335.95 628.03 1335.95 620.943V594.671C1335.95 587.584 1341.7 581.839 1348.78 581.839ZM1422.29 286.565H1448.57C1455.65 286.565 1461.4 292.309 1461.4 299.396V325.668C1461.4 332.755 1455.65 338.499 1448.57 338.499H1422.29C1415.21 338.499 1409.46 332.755 1409.46 325.668V299.396C1409.46 292.309 1415.21 286.565 1422.29 286.565ZM1409.46 251.849V225.577C1409.46 218.491 1415.21 212.746 1422.29 212.746H1448.57C1455.65 212.746 1461.4 218.491 1461.4 225.577V251.849C1461.4 258.936 1455.65 264.68 1448.57 264.68H1422.29C1415.21 264.68 1409.46 258.936 1409.46 251.849ZM1422.29 360.383H1448.57C1455.65 360.383 1461.4 366.128 1461.4 373.214V399.486C1461.4 406.572 1455.65 412.317 1448.57 412.317H1422.29C1415.21 412.317 1409.46 406.572 1409.46 399.486V373.215C1409.46 366.129 1415.21 360.383 1422.29 360.383ZM1422.29 434.203H1448.57C1455.65 434.203 1461.4 439.947 1461.4 447.034V473.306C1461.4 480.393 1455.65 486.138 1448.57 486.138H1422.29C1415.21 486.138 1409.46 480.393 1409.46 473.306V447.034C1409.46 439.947 1415.21 434.203 1422.29 434.203ZM1422.29 508.021H1448.57C1455.65 508.021 1461.4 513.765 1461.4 520.852V547.124C1461.4 554.21 1455.65 559.955 1448.57 559.955H1422.29C1415.21 559.955 1409.46 554.21 1409.46 547.124V520.852C1409.46 513.766 1415.21 508.021 1422.29 508.021ZM1422.29 581.839H1448.57C1455.65 581.839 1461.4 587.584 1461.4 594.671V620.943C1461.4 628.03 1455.65 633.773 1448.57 633.773H1422.29C1415.21 633.773 1409.46 628.03 1409.46 620.943V594.671C1409.46 587.584 1415.21 581.839 1422.29 581.839ZM1534.91 620.944C1534.91 628.031 1529.16 633.774 1522.08 633.774H1495.81C1488.72 633.774 1482.97 628.031 1482.97 620.944V594.672C1482.97 587.585 1488.72 581.84 1495.81 581.84H1522.08C1529.16 581.84 1534.91 587.585 1534.91 594.672V620.944ZM1534.91 547.124C1534.91 554.21 1529.16 559.955 1522.08 559.955H1495.81C1488.72 559.955 1482.97 554.21 1482.97 547.124V520.852C1482.97 513.765 1488.72 508.021 1495.81 508.021H1522.08C1529.16 508.021 1534.91 513.765 1534.91 520.852V547.124ZM1534.91 473.306C1534.91 480.393 1529.16 486.138 1522.08 486.138H1495.81C1488.72 486.138 1482.97 480.393 1482.97 473.306V447.034C1482.97 439.947 1488.72 434.203 1495.81 434.203H1522.08C1529.16 434.203 1534.91 439.947 1534.91 447.034V473.306ZM1534.91 399.487C1534.91 406.573 1529.16 412.318 1522.08 412.318H1495.81C1488.72 412.318 1482.97 406.573 1482.97 399.487V373.215C1482.97 366.129 1488.72 360.384 1495.81 360.384H1522.08C1529.16 360.384 1534.91 366.129 1534.91 373.215V399.487ZM1534.91 325.668C1534.91 332.755 1529.16 338.499 1522.08 338.499H1495.81C1488.72 338.499 1482.97 332.755 1482.97 325.668V299.396C1482.97 292.309 1488.72 286.565 1495.81 286.565H1522.08C1529.16 286.565 1534.91 292.309 1534.91 299.396V325.668ZM1534.91 251.849C1534.91 258.936 1529.16 264.68 1522.08 264.68H1495.81C1488.72 264.68 1482.97 258.936 1482.97 251.849V225.577C1482.97 218.491 1488.72 212.746 1495.81 212.746H1522.08C1529.16 212.746 1534.91 218.491 1534.91 225.577V251.849ZM1505.26 190.192H1292.09C1275.72 190.192 1262.44 176.916 1262.44 160.54C1262.44 144.164 1275.72 130.888 1292.09 130.888H1505.26C1521.63 130.888 1534.91 144.164 1534.91 160.54C1534.91 176.916 1521.63 190.192 1505.26 190.192Z" fill="white"/>
<path d="M1505.26 130.888H1292.09C1275.72 130.888 1262.44 144.164 1262.44 160.54C1262.44 176.916 1275.72 190.192 1292.09 190.192H1505.26C1521.63 190.192 1534.91 176.916 1534.91 160.54C1534.91 144.164 1521.63 130.888 1505.26 130.888Z" fill="#A9BEDF"/>
<path d="M1275.27 264.68H1301.54C1308.63 264.68 1314.38 258.936 1314.38 251.849V225.577C1314.38 218.491 1308.63 212.746 1301.54 212.746H1275.27C1268.19 212.746 1262.44 218.491 1262.44 225.577V251.849C1262.44 258.936 1268.19 264.68 1275.27 264.68Z" fill="#A9BEDF"/>
<path d="M1348.78 264.68H1375.06C1382.14 264.68 1387.89 258.936 1387.89 251.849V225.577C1387.89 218.491 1382.14 212.746 1375.06 212.746H1348.78C1341.7 212.746 1335.95 218.491 1335.95 225.577V251.849C1335.95 258.936 1341.7 264.68 1348.78 264.68Z" fill="#A9BEDF"/>
<path d="M1422.29 264.68H1448.57C1455.65 264.68 1461.4 258.936 1461.4 251.849V225.577C1461.4 218.491 1455.65 212.746 1448.57 212.746H1422.29C1415.21 212.746 1409.46 218.491 1409.46 225.577V251.849C1409.46 258.936 1415.21 264.68 1422.29 264.68Z" fill="#D0DBEC"/>
<path d="M1522.08 212.746H1495.81C1488.72 212.746 1482.97 218.491 1482.97 225.577V251.849C1482.97 258.936 1488.72 264.68 1495.81 264.68H1522.08C1529.16 264.68 1534.91 258.936 1534.91 251.849V225.577C1534.91 218.491 1529.16 212.746 1522.08 212.746Z" fill="#D0DBEC"/>
<path d="M1275.27 338.499H1301.54C1308.63 338.499 1314.38 332.755 1314.38 325.668V299.396C1314.38 292.309 1308.63 286.565 1301.54 286.565H1275.27C1268.19 286.565 1262.44 292.309 1262.44 299.396V325.668C1262.44 332.755 1268.19 338.499 1275.27 338.499Z" fill="#D0DBEC"/>
<path d="M1335.95 325.668C1335.95 332.755 1341.7 338.499 1348.78 338.499H1375.06C1382.14 338.499 1387.89 332.755 1387.89 325.668V299.396C1387.89 292.309 1382.14 286.565 1375.06 286.565H1348.78C1341.7 286.565 1335.95 292.309 1335.95 299.396V325.668Z" fill="#A9BEDF"/>
<path d="M1409.46 325.668C1409.46 332.755 1415.21 338.499 1422.29 338.499H1448.57C1455.65 338.499 1461.4 332.755 1461.4 325.668V299.396C1461.4 292.309 1455.65 286.565 1448.57 286.565H1422.29C1415.21 286.565 1409.46 292.309 1409.46 299.396V325.668Z" fill="#D0DBEC"/>
<path d="M1522.08 286.565H1495.81C1488.72 286.565 1482.97 292.309 1482.97 299.396V325.668C1482.97 332.755 1488.72 338.499 1495.81 338.499H1522.08C1529.16 338.499 1534.91 332.755 1534.91 325.668V299.396C1534.91 292.309 1529.16 286.565 1522.08 286.565Z" fill="#A9BEDF"/>
<path d="M1275.27 412.318H1301.54C1308.63 412.318 1314.38 406.573 1314.38 399.487V373.215C1314.38 366.129 1308.63 360.384 1301.54 360.384H1275.27C1268.19 360.384 1262.44 366.129 1262.44 373.215V399.487C1262.44 406.573 1268.19 412.318 1275.27 412.318Z" fill="#D0DBEC"/>
<path d="M1335.95 399.487C1335.95 406.573 1341.7 412.318 1348.78 412.318H1375.06C1382.14 412.318 1387.89 406.573 1387.89 399.487V373.215C1387.89 366.129 1382.14 360.384 1375.06 360.384H1348.78C1341.7 360.384 1335.95 366.129 1335.95 373.215V399.487Z" fill="#D0DBEC"/>
<path d="M1409.46 399.487C1409.46 406.573 1415.21 412.318 1422.29 412.318H1448.57C1455.65 412.318 1461.4 406.573 1461.4 399.487V373.215C1461.4 366.129 1455.65 360.384 1448.57 360.384H1422.29C1415.21 360.384 1409.46 366.129 1409.46 373.215V399.487Z" fill="#D0DBEC"/>
<path d="M1522.08 360.383H1495.81C1488.72 360.383 1482.97 366.128 1482.97 373.214V399.486C1482.97 406.572 1488.72 412.317 1495.81 412.317H1522.08C1529.16 412.317 1534.91 406.572 1534.91 399.486V373.215C1534.91 366.129 1529.16 360.383 1522.08 360.383Z" fill="#D0DBEC"/>
<path d="M1275.27 486.137H1301.54C1308.63 486.137 1314.38 480.392 1314.38 473.305V447.033C1314.38 439.946 1308.63 434.202 1301.54 434.202H1275.27C1268.19 434.202 1262.44 439.946 1262.44 447.033V473.305C1262.44 480.393 1268.19 486.137 1275.27 486.137Z" fill="#D0DBEC"/>
<path d="M1335.95 473.306C1335.95 480.393 1341.7 486.138 1348.78 486.138H1375.06C1382.14 486.138 1387.89 480.393 1387.89 473.306V447.034C1387.89 439.947 1382.14 434.203 1375.06 434.203H1348.78C1341.7 434.203 1335.95 439.947 1335.95 447.034V473.306Z" fill="#D0DBEC"/>
<path d="M1409.46 473.306C1409.46 480.393 1415.21 486.138 1422.29 486.138H1448.57C1455.65 486.138 1461.4 480.393 1461.4 473.306V447.034C1461.4 439.947 1455.65 434.203 1448.57 434.203H1422.29C1415.21 434.203 1409.46 439.947 1409.46 447.034V473.306Z" fill="#A9BEDF"/>
<path d="M1522.08 434.203H1495.81C1488.72 434.203 1482.97 439.947 1482.97 447.034V473.306C1482.97 480.393 1488.72 486.138 1495.81 486.138H1522.08C1529.16 486.138 1534.91 480.393 1534.91 473.306V447.034C1534.91 439.947 1529.16 434.203 1522.08 434.203Z" fill="#D0DBEC"/>
<path d="M1275.27 559.955H1301.54C1308.63 559.955 1314.38 554.21 1314.38 547.124V520.852C1314.38 513.765 1308.63 508.021 1301.54 508.021H1275.27C1268.19 508.021 1262.44 513.765 1262.44 520.852V547.124C1262.44 554.211 1268.19 559.955 1275.27 559.955Z" fill="#D0DBEC"/>
<path d="M1335.95 547.124C1335.95 554.21 1341.7 559.955 1348.78 559.955H1375.06C1382.14 559.955 1387.89 554.21 1387.89 547.124V520.852C1387.89 513.765 1382.14 508.021 1375.06 508.021H1348.78C1341.7 508.021 1335.95 513.765 1335.95 520.852V547.124Z" fill="#D0DBEC"/>
<path d="M1409.46 547.124C1409.46 554.21 1415.21 559.955 1422.29 559.955H1448.57C1455.65 559.955 1461.4 554.21 1461.4 547.124V520.852C1461.4 513.765 1455.65 508.021 1448.57 508.021H1422.29C1415.21 508.021 1409.46 513.765 1409.46 520.852V547.124Z" fill="#D0DBEC"/>
<path d="M1522.08 508.021H1495.81C1488.72 508.021 1482.97 513.765 1482.97 520.852V547.124C1482.97 554.21 1488.72 559.955 1495.81 559.955H1522.08C1529.16 559.955 1534.91 554.21 1534.91 547.124V520.852C1534.91 513.766 1529.16 508.021 1522.08 508.021Z" fill="#A9BEDF"/>
<path d="M1275.27 633.774H1301.54C1308.63 633.774 1314.38 628.031 1314.38 620.944V594.672C1314.38 587.585 1308.63 581.84 1301.54 581.84H1275.27C1268.19 581.84 1262.44 587.585 1262.44 594.672V620.944C1262.44 628.03 1268.19 633.774 1275.27 633.774Z" fill="#D0DBEC"/>
<path d="M1335.95 620.944C1335.95 628.031 1341.7 633.774 1348.78 633.774H1375.06C1382.14 633.774 1387.89 628.031 1387.89 620.944V594.672C1387.89 587.585 1382.14 581.84 1375.06 581.84H1348.78C1341.7 581.84 1335.95 587.585 1335.95 594.672V620.944Z" fill="#A9BEDF"/>
<path d="M1409.46 620.944C1409.46 628.031 1415.21 633.774 1422.29 633.774H1448.57C1455.65 633.774 1461.4 628.031 1461.4 620.944V594.672C1461.4 587.585 1455.65 581.84 1448.57 581.84H1422.29C1415.21 581.84 1409.46 587.585 1409.46 594.672V620.944Z" fill="#D0DBEC"/>
<path d="M1522.08 581.839H1495.81C1488.72 581.839 1482.97 587.584 1482.97 594.671V620.943C1482.97 628.03 1488.72 633.773 1495.81 633.773H1522.08C1529.16 633.773 1534.91 628.03 1534.91 620.943V594.671C1534.91 587.584 1529.16 581.839 1522.08 581.839Z" fill="#D0DBEC"/>
<path d="M1521.84 668.355H1275.51C1268.29 668.355 1262.44 674.203 1262.44 681.418C1262.44 688.633 1268.29 694.482 1275.51 694.482H1521.84C1529.06 694.482 1534.91 688.633 1534.91 681.418C1534.91 674.204 1529.06 668.355 1521.84 668.355Z" fill="#D0DBEC"/>
<path d="M1676.43 525.264L1676.43 524.769V525.264H1676.43Z" fill="#F0A07F"/>
<path d="M1632.36 491.527C1633.7 494.718 1636.87 496.948 1640.55 496.918C1642.84 496.901 1644.9 495.99 1646.45 494.547C1648.21 492.92 1649.32 490.612 1649.29 488.032C1649.26 483.161 1645.28 479.244 1640.41 479.284C1639.36 479.292 1638.37 479.514 1637.45 479.856C1636.98 477.769 1636.74 475.601 1636.81 473.367C1636.92 469.453 1637.9 465.776 1639.53 462.479C1635.66 462.604 1632.71 462.564 1631.27 462.523C1631.21 462.521 1631.15 462.537 1631.09 462.535C1631.03 462.533 1630.97 462.514 1630.91 462.512C1630.52 462.499 1630.24 462.488 1630.24 462.488L1630.25 462.424C1630.04 462.409 1629.84 462.367 1629.64 462.345L1627.32 475.396L1625.65 484.775L1621.27 490.959C1620.48 492.084 1621 493.656 1622.3 494.089L1623.9 494.621L1621.69 507.065C1620.36 514.545 1625.13 521.444 1632.08 523.269L1632.35 491.528L1632.36 491.527ZM1639.94 482.359L1640.02 482.357C1642.79 482.357 1645 484.355 1645.54 486.972C1645.67 487.134 1645.73 487.326 1645.66 487.531C1645.68 487.708 1645.77 487.86 1645.77 488.041H1645.77V488.058V488.059L1645.77 488.105C1645.77 491.26 1643.23 493.83 1640.07 493.855C1639.72 493.858 1639.43 493.576 1639.43 493.225C1639.43 492.875 1639.71 492.588 1640.06 492.585C1642.52 492.566 1644.5 490.564 1644.5 488.106V488.088L1644.5 488.071C1644.5 487.975 1644.45 487.895 1644.45 487.8C1643.95 487.644 1643 487.394 1641.82 487.395C1640.03 487.407 1637.92 487.941 1636.3 490.275C1636.1 490.564 1635.71 490.637 1635.42 490.438C1635.13 490.238 1635.05 489.843 1635.25 489.554C1637.13 486.818 1639.78 486.111 1641.82 486.124C1642.75 486.125 1643.54 486.26 1644.15 486.403C1643.48 484.775 1641.89 483.629 1640.02 483.629V483.628C1639.67 483.651 1639.37 483.386 1639.35 483.036C1639.32 482.684 1639.59 482.381 1639.94 482.359Z" fill="#F0A07F"/>
<path d="M1676.43 525.264V524.769L1676.45 497.022C1672.34 499.402 1667.55 500.729 1662.46 500.579C1656.36 500.398 1650.82 498.148 1646.45 494.546C1644.89 495.989 1642.84 496.9 1640.55 496.917C1636.86 496.948 1633.7 494.718 1632.35 491.526L1632.35 491.528L1632.08 523.269L1632.03 529.269H1676.42L1676.43 525.264Z" fill="#EB7F59"/>
<path d="M1630.25 462.425L1630.24 462.489C1630.24 462.489 1630.52 462.5 1630.91 462.513C1630.97 462.515 1631.03 462.534 1631.09 462.536C1631.15 462.538 1631.21 462.522 1631.27 462.524C1632.71 462.565 1635.66 462.605 1639.53 462.48C1637.9 465.777 1636.92 469.453 1636.81 473.368C1636.74 475.603 1636.98 477.77 1637.44 479.857C1638.37 479.516 1639.36 479.293 1640.4 479.285C1645.28 479.245 1649.25 483.162 1649.29 488.033C1649.31 490.613 1648.21 492.921 1646.45 494.548C1650.82 498.149 1656.36 500.4 1662.46 500.581C1667.55 500.731 1672.34 499.404 1676.45 497.024C1684.12 492.587 1689.39 484.431 1689.67 474.93C1689.93 466.267 1685.97 458.479 1679.67 453.468C1682.5 451.63 1684.42 448.486 1684.53 444.854C1684.71 438.975 1680.08 434.068 1674.2 433.894C1673 433.859 1671.86 434.069 1670.77 434.405L1670.75 434.364C1670.75 434.364 1670.64 434.416 1670.44 434.495C1670.23 434.568 1670.02 434.635 1669.81 434.722C1667.79 435.407 1662.69 436.63 1656.97 433.957C1649.61 430.511 1642.23 425.068 1636.2 424.581L1636.2 424.588C1634.92 424.279 1633.59 424.087 1632.23 424.047C1621.6 423.734 1612.73 432.094 1612.41 442.723C1612.16 451.386 1617.7 458.794 1625.5 461.441C1625.14 462.807 1624.88 464.216 1624.83 465.692C1624.73 469.231 1625.68 472.535 1627.32 475.398L1629.64 462.347C1629.84 462.367 1630.04 462.41 1630.25 462.425Z" fill="#383851"/>
<path d="M1640.02 483.626C1641.89 483.627 1643.48 484.773 1644.15 486.401C1643.54 486.258 1642.75 486.123 1641.82 486.122C1639.78 486.11 1637.13 486.817 1635.25 489.552C1635.05 489.841 1635.12 490.236 1635.41 490.436C1635.7 490.635 1636.1 490.562 1636.3 490.273C1637.92 487.939 1640.03 487.405 1641.82 487.393C1643 487.392 1643.95 487.642 1644.44 487.798C1644.45 487.893 1644.5 487.973 1644.5 488.069L1644.5 488.086V488.104C1644.5 490.562 1642.52 492.564 1640.06 492.583C1639.71 492.586 1639.42 492.873 1639.43 493.223C1639.43 493.574 1639.71 493.856 1640.07 493.853C1643.23 493.828 1645.77 491.258 1645.77 488.103L1645.77 488.057V488.039H1645.76C1645.76 487.858 1645.68 487.706 1645.66 487.529C1645.73 487.324 1645.66 487.133 1645.54 486.97C1645 484.353 1642.79 482.355 1640.02 482.355L1639.94 482.357C1639.59 482.379 1639.32 482.682 1639.34 483.032C1639.37 483.384 1639.67 483.65 1640.02 483.626Z" fill="#2F313E"/>
<path d="M1651.15 547.374C1659.92 547.666 1668.38 548.254 1676.49 549.045V529.271H1676.43H1632.03H1631.8V547.2C1638.07 547.109 1644.53 547.153 1651.15 547.374Z" fill="#D7E3EB"/>
<path d="M1696.81 1222.92C1689.49 1224.17 1681.76 1224.45 1674.09 1224.18L1671.68 1205.14L1676.19 1240.82C1678.51 1240.48 1682.28 1240.78 1685.96 1240.8C1689.51 1240.82 1692.87 1239.98 1695.15 1240.91L1698.57 1203.93H1698.57L1696.81 1222.92Z" fill="#F0A07F"/>
<path d="M1685.96 1240.8C1682.28 1240.78 1678.51 1240.48 1676.18 1240.82C1674.72 1241.03 1673.81 1241.49 1673.89 1242.44C1674.22 1246.82 1675.77 1251.93 1667.15 1252.16L1667.18 1252.17C1652.89 1253.18 1642 1258.15 1642 1261.81C1642 1265.89 1655.59 1264.72 1672.35 1264.72C1689.12 1264.72 1698.57 1266.76 1698.57 1262.68C1698.57 1262.66 1701.47 1249.5 1696.99 1242.44C1696.51 1241.69 1695.88 1241.21 1695.15 1240.91C1692.87 1239.98 1689.5 1240.82 1685.96 1240.8Z" fill="#4EB37C"/>
<path d="M1696.81 1222.92L1698.57 1203.93C1694.02 1204.49 1688.84 1204.9 1683.33 1205.09C1679.23 1205.24 1675.32 1205.24 1671.68 1205.14L1674.09 1224.18C1681.76 1224.45 1689.49 1224.17 1696.81 1222.92Z" fill="#AA4922"/>
<path d="M1634.1 817.97C1633.72 817.954 1633.38 817.905 1633 817.887C1617.24 969.544 1650.06 1200.74 1650.06 1200.74C1650.14 1203.1 1659.13 1204.79 1671.68 1205.14C1675.31 1205.24 1679.23 1205.24 1683.33 1205.09C1688.84 1204.9 1694.02 1204.49 1698.57 1203.93H1698.57C1709.12 1202.64 1716.29 1200.55 1716.21 1198.42L1722.55 789.608C1718.9 790.19 1715.02 790.731 1710.93 791.226C1699.29 801.717 1673.52 819.603 1634.1 817.97Z" fill="#383851"/>
<path d="M1506.05 1221.28C1498.63 1220.78 1491.05 1219.24 1483.66 1217.17L1485.79 1198.1L1481.79 1233.84C1484.13 1234.06 1487.73 1235.23 1491.3 1236.11C1494.74 1236.96 1498.2 1236.94 1500.2 1238.38L1512.22 1203.24L1506.05 1221.28Z" fill="#F0A07F"/>
<path d="M1481.79 1233.84C1480.32 1233.7 1479.33 1233.94 1479.18 1234.87C1478.48 1239.21 1478.78 1244.54 1470.34 1242.74L1470.38 1242.75C1456.25 1240.38 1444.49 1242.65 1443.64 1246.21C1442.68 1250.18 1456.16 1252.24 1472.46 1256.17C1488.75 1260.11 1497.46 1264.31 1498.42 1260.34V1260.34C1498.42 1260.32 1504.33 1248.21 1501.63 1240.3C1501.34 1239.45 1500.85 1238.84 1500.2 1238.38C1498.2 1236.94 1494.74 1236.96 1491.3 1236.11C1487.73 1235.23 1484.13 1234.06 1481.79 1233.84Z" fill="#4EB37C"/>
<path d="M1506.05 1221.28L1512.21 1203.24C1507.65 1202.71 1502.53 1201.89 1497.12 1200.79C1493.1 1199.96 1489.3 1199.05 1485.79 1198.1L1483.66 1217.17C1491.05 1219.24 1498.63 1220.78 1506.05 1221.28Z" fill="#AA4922"/>
<path d="M1555.75 787.393C1553.49 786.898 1551.36 786.385 1549.39 785.853C1491.19 925.199 1465.8 1188.74 1465.8 1188.74C1465.33 1191.06 1473.68 1194.82 1485.79 1198.1C1489.3 1199.05 1493.1 1199.96 1497.12 1200.79C1502.53 1201.89 1507.65 1202.71 1512.21 1203.24C1522.77 1204.46 1530.23 1204.11 1530.66 1202.03L1629.84 817.648C1588.38 814.713 1564.11 795.415 1555.75 787.393Z" fill="#383851"/>
<path d="M1710.93 791.227C1692.4 793.476 1669.68 794.805 1645.1 794.805C1608.73 794.805 1576.39 791.899 1555.75 787.393C1564.11 795.415 1588.38 814.714 1629.84 817.648C1630.9 817.723 1631.92 817.834 1633 817.888C1633.38 817.906 1633.72 817.954 1634.1 817.971C1673.52 819.603 1699.29 801.717 1710.93 791.227Z" fill="#D7E3EB"/>
<path d="M1855.48 710.465C1855.06 708.387 1854.38 706.439 1853.51 704.614C1834.36 643.229 1782.6 586.705 1745.82 566.496C1743.82 565.195 1741.66 564.073 1739.33 563.199C1739.27 563.177 1739.21 563.164 1739.15 563.141C1725.87 556.814 1703.38 551.67 1676.49 549.046C1668.38 548.256 1659.92 547.667 1651.15 547.375C1644.53 547.154 1638.07 547.11 1631.8 547.201C1598.12 547.697 1570.24 552.509 1557.08 559.753C1550.87 562.543 1545.48 567.233 1541.84 573.544L1541.81 573.526C1520.82 605.131 1482.66 627.91 1457.72 640.835C1455.21 622.94 1452.89 600.584 1452 579.115C1452 579.164 1452 579.211 1452 579.26C1439.36 580.735 1426.7 582.075 1414.02 583.202C1416.08 564.309 1418.31 549.579 1419.1 544.564V544.563C1417.12 557.117 1405.98 631.343 1411.52 678.434C1413.22 692.802 1426.15 702.793 1440.07 701.216L1440.06 701.407C1473.24 696.644 1506.55 682.49 1534.63 665.174C1530.88 728.643 1532.24 775.773 1532.24 775.773C1532.24 779.476 1538.54 782.929 1549.39 785.853C1551.36 786.385 1553.48 786.898 1555.75 787.393C1576.39 791.899 1608.72 794.805 1645.1 794.805C1669.68 794.805 1692.4 793.477 1710.93 791.227C1715.02 790.731 1718.9 790.191 1722.55 789.609C1744.34 786.14 1757.96 781.226 1757.96 775.774C1757.96 773.443 1757.96 771.221 1757.95 768.941C1757.61 768.936 1757.33 768.656 1757.33 768.309V722.599C1757.33 722.248 1757.61 721.963 1757.96 721.963C1758.31 721.963 1758.6 722.248 1758.6 722.599V767.309C1789.29 754.628 1821.54 744.464 1835.77 741.271C1849.63 738.163 1858.34 724.378 1855.48 710.465ZM1757.69 722.018C1757.41 695.976 1756.93 674.259 1756.37 656.158C1772.49 672.064 1785.54 689.563 1794.51 702.574C1782 708.502 1769.36 715.313 1757.69 722.018Z" fill="#25D366"/>
<path d="M1451.64 563.003C1451.63 562.368 1451.62 561.715 1451.62 561.084C1451.62 561.714 1451.63 562.368 1451.64 563.003Z" fill="#4EB37C"/>
<path d="M1414.02 583.202C1426.7 582.074 1439.36 580.735 1452 579.26C1452 579.211 1452 579.164 1452 579.115C1451.9 576.705 1451.83 574.318 1451.77 571.939C1451.75 571.293 1451.72 570.636 1451.71 569.993C1451.66 567.632 1451.65 565.313 1451.64 563.003C1451.64 562.368 1451.62 561.715 1451.62 561.084C1451.62 558.828 1451.67 556.634 1451.72 554.446C1451.73 553.795 1451.73 553.118 1451.75 552.474C1451.83 549.676 1451.95 546.941 1452.12 544.29L1451.81 544.275C1452.78 536.652 1449.39 528.76 1441.96 524.014C1429.2 515.86 1414.9 507.782 1409.77 508.842C1406.5 509.522 1428.53 524.453 1428.53 524.453C1428.53 524.453 1369.14 487.73 1419.63 528.756C1419.63 528.756 1359.74 492.62 1415.93 533.716C1415.93 533.716 1370.9 505.7 1412.42 538.784C1414.44 540.391 1416.73 542.4 1419.1 544.562C1418.31 549.578 1416.08 564.309 1414.02 583.202Z" fill="#F0A07F"/>
<path d="M1757.97 721.963C1757.61 721.963 1757.33 722.248 1757.33 722.599V768.309C1757.33 768.656 1757.61 768.935 1757.96 768.941C1757.96 768.941 1757.96 768.945 1757.97 768.945C1758.32 768.945 1758.6 768.66 1758.6 768.309V767.309V722.599C1758.6 722.248 1758.32 721.963 1757.97 721.963Z" fill="#2F313E"/>
<path d="M317.948 590.414C319.211 591.993 321.011 594.195 323.162 596.682C327.338 601.514 332.84 607.4 338.258 611.911C337.64 604.339 336.93 597.054 336.194 590.291C329.568 589.702 322.946 589.05 316.327 588.355C316.656 588.781 317.19 589.466 317.948 590.414Z" fill="#EE7685"/>
<path d="M298.365 561.953C298.348 561.122 298.349 560.262 298.326 559.442C298.35 560.262 298.348 561.122 298.365 561.953Z" fill="#EE7685"/>
<path d="M336.193 590.283C334.127 571.301 331.89 556.518 331.1 551.509L331.099 551.511C331.891 556.543 334.129 571.325 336.193 590.283Z" fill="#EE7685"/>
<path d="M298.434 570.314C298.76 570.61 299.145 570.898 299.437 571.199C304.655 574.064 309.151 578.35 312.322 583.853L312.353 583.836C313.236 585.164 314.217 586.439 315.158 587.736C315.431 587.588 315.771 587.628 315.963 587.883C315.963 587.883 316.108 588.073 316.327 588.355C322.945 589.05 329.567 589.702 336.194 590.291C336.194 590.288 336.193 590.286 336.192 590.283C334.128 571.325 331.89 556.543 331.098 551.511L331.099 551.509C333.47 549.339 335.771 547.323 337.796 545.71C379.471 512.502 334.271 540.622 334.271 540.622C390.674 499.374 330.564 535.644 330.564 535.644C381.242 494.469 321.625 531.327 321.625 531.327C321.625 531.327 343.746 516.339 340.456 515.659C335.311 514.593 320.958 522.7 308.15 530.885C300.693 535.649 297.292 543.57 298.266 551.221L297.956 551.237C298.122 553.895 298.243 556.637 298.325 559.442C298.349 560.261 298.347 561.122 298.364 561.953C298.406 563.97 298.45 565.983 298.454 568.056C298.457 568.799 298.438 569.566 298.434 570.314Z" fill="#F8BDA9"/>
<path d="M102.745 1199.68L104.597 1238.25C106.926 1237.42 110.259 1238.41 113.812 1238.55C117.503 1238.69 121.294 1238.56 123.615 1239.01L126.463 1222.41C118.758 1222.35 111.013 1221.72 103.728 1220.13L102.745 1199.68Z" fill="#F8BDA9"/>
<path d="M104.597 1238.25C103.846 1238.52 103.196 1238.97 102.681 1239.7C97.8721 1246.58 100.197 1259.9 100.195 1259.92H100.193C100.011 1264.02 109.579 1262.4 126.39 1263.14C143.199 1263.89 156.773 1265.67 156.956 1261.57C157.118 1257.9 146.423 1252.44 132.134 1250.79L132.17 1250.78C123.531 1250.16 125.313 1245.1 125.845 1240.73C125.96 1239.78 125.074 1239.28 123.615 1239C121.295 1238.56 117.503 1238.69 113.812 1238.55C110.259 1238.41 106.925 1237.42 104.597 1238.25Z" fill="#EE7685"/>
<path d="M110.936 1201.6C108.087 1201 105.353 1200.35 102.745 1199.68L103.727 1220.13C111.012 1221.72 118.757 1222.35 126.462 1222.41L129.532 1204.52C124.174 1204.02 117.768 1203.04 110.936 1201.6Z" fill="#F0A07F"/>
<path d="M238.639 1240.41C240.946 1239.52 244.304 1240.42 247.859 1240.47C251.553 1240.52 255.34 1240.29 257.671 1240.68L260.092 1224.01C252.388 1224.15 244.631 1223.72 237.305 1222.32L238.639 1240.41Z" fill="#F8BDA9"/>
<path d="M247.86 1240.47C244.305 1240.42 240.946 1239.52 238.64 1240.41C237.896 1240.7 237.258 1241.16 236.763 1241.91C232.132 1248.91 234.798 1262.17 234.796 1262.19L234.794 1262.19C234.717 1266.29 244.241 1264.42 261.064 1264.73C277.887 1265.05 291.504 1266.48 291.58 1262.38C291.649 1258.71 280.817 1253.52 266.491 1252.24L266.525 1252.23C257.873 1251.83 259.525 1246.73 259.945 1242.35C260.037 1241.4 259.139 1240.92 257.672 1240.68C255.341 1240.29 251.554 1240.52 247.86 1240.47Z" fill="#EE7685"/>
<path d="M251.177 1204.69C245.65 1204.39 240.461 1203.88 235.899 1203.24L237.306 1222.32C244.632 1223.72 252.389 1224.15 260.093 1224.01H260.095L262.863 1204.96C259.216 1204.99 255.288 1204.91 251.177 1204.69Z" fill="#F0A07F"/>
<path d="M231.811 817.461C187.535 819.296 160.388 796.602 151.117 787.235C148.374 786.53 145.948 785.771 143.698 784.987L79.5711 1189.32C79.0401 1191.84 88.9121 1196.13 102.744 1199.68C105.353 1200.35 108.086 1201 110.935 1201.6C117.767 1203.04 124.173 1204.02 129.531 1204.52C138.257 1205.34 144.194 1204.89 144.584 1203.03C144.584 1203.03 197.223 1040.84 219.276 898.395L218.298 1197.37C218.183 1199.51 225.337 1201.74 235.897 1203.24C240.459 1203.88 245.648 1204.39 251.175 1204.69C255.286 1204.91 259.214 1204.99 262.86 1204.96C275.459 1204.85 284.518 1203.31 284.647 1200.94C284.647 1200.94 327.969 932.099 304.985 783.013C294.977 794.796 271.715 815.808 231.811 817.461Z" fill="#768FC9"/>
<path d="M220.934 794.211C192.809 794.211 167.69 791.494 151.117 787.236C160.388 796.604 187.535 819.298 231.811 817.462C271.715 815.809 294.977 794.796 304.987 783.012C305.508 782.399 306.048 781.775 306.497 781.217C294.433 788.768 260.723 794.211 220.934 794.211Z" fill="#D7E3EB"/>
<path d="M236.421 471.576C236.487 473.82 236.243 475.995 235.779 478.091C234.848 477.749 233.857 477.526 232.807 477.518C227.919 477.478 223.924 481.408 223.886 486.296C223.846 491.184 227.778 495.178 232.665 495.218C235.002 495.237 237.119 494.331 238.712 492.864C239.799 495.851 242.103 499.552 246.927 503.256L247.27 503.575C249.002 505.067 250.47 506.811 251.798 508.656C251.852 507.593 251.788 506.504 251.593 505.403L249.373 492.911L250.979 492.377C252.289 491.941 252.807 490.364 252.009 489.238L247.616 483.029L244.255 464.118C241.743 464.796 238.846 465.504 235.699 466.159C236.116 467.904 236.366 469.714 236.421 471.576ZM233.145 492.141C229.975 492.115 227.423 489.538 227.422 486.375V486.326C227.424 486.138 227.514 485.979 227.534 485.795C227.465 485.589 227.526 485.396 227.652 485.232C228.197 482.607 230.414 480.6 233.193 480.6L233.277 480.602C233.629 480.626 233.894 480.93 233.87 481.281C233.847 481.632 233.543 481.897 233.193 481.875V481.876C231.322 481.876 229.725 483.025 229.049 484.66C229.66 484.517 230.459 484.382 231.386 484.381C233.436 484.369 236.098 485.078 237.98 487.827C238.18 488.116 238.106 488.514 237.816 488.713C237.526 488.912 237.129 488.839 236.93 488.549C235.304 486.205 233.182 485.669 231.386 485.656C230.206 485.655 229.255 485.906 228.757 486.062C228.75 486.16 228.699 486.242 228.699 486.342V486.376C228.699 488.838 230.688 490.848 233.157 490.867C233.509 490.869 233.793 491.157 233.789 491.509C233.786 491.861 233.497 492.144 233.145 492.141Z" fill="#F8BDA9"/>
<path d="M243.71 547.185C243.71 547.185 239.753 549.216 237.418 553.356C239.858 553.52 242.25 553.725 244.607 553.955L243.798 547.081C243.754 547.108 243.716 547.143 243.671 547.17L243.71 547.185Z" fill="#D7E3EB"/>
<path d="M402.878 571.358C402.879 571.926 402.863 572.515 402.862 573.086C402.863 572.514 402.879 571.926 402.878 571.358Z" fill="#EE7685"/>
<path d="M435.699 555.893C435.635 555.479 435.574 555.092 435.522 554.763C435.575 555.1 435.634 555.469 435.699 555.893Z" fill="#EE7685"/>
<path d="M402.491 589.589C402.494 589.532 402.494 589.477 402.496 589.419C401.605 610.976 399.27 633.426 396.751 651.395C380.285 642.859 358.116 630.012 338.839 613.203C338.833 613.212 338.837 613.223 338.831 613.232C338.608 613.504 338.206 613.544 337.933 613.322C326.599 604.047 314.965 588.672 314.947 588.654C314.735 588.373 314.79 587.973 315.071 587.76C315.097 587.74 315.131 587.752 315.159 587.737C314.218 586.44 313.237 585.165 312.354 583.837L312.323 583.854C309.152 578.351 304.656 574.065 299.438 571.2C299.145 570.899 298.761 570.611 298.435 570.315C298.438 569.567 298.457 568.799 298.456 568.057C298.457 568.799 298.437 569.568 298.435 570.315C289.883 562.558 269.829 556.42 244.608 553.955C242.251 553.725 239.86 553.52 237.419 553.356C236.094 555.706 235.286 558.731 236.039 562.466L236.009 562.474C236.056 562.755 236.13 563.027 236.169 563.312C238.211 578.478 226.854 592.166 210.8 593.885C206.218 594.374 201.762 593.808 197.667 592.435L197.663 592.467C197.663 592.467 194.151 591.053 188.774 595.288C188.18 595.864 187.552 596.409 186.904 596.935L186.558 597.261L186.573 597.221C182.945 600.076 178.519 602.137 173.532 603.058C157.649 605.99 142.114 596.257 138.838 581.312C138.138 578.115 138.089 574.949 138.546 571.902L138.515 571.889C138.515 571.889 138.854 570.713 138.292 568.973C136.679 570.745 135.717 572.629 135.695 574.653C135.695 574.653 130.568 617.378 130.568 775.108C130.568 778.73 135.421 782.103 143.699 784.988C145.948 785.772 148.375 786.531 151.118 787.236C167.691 791.494 192.81 794.211 220.935 794.211C260.724 794.211 294.434 788.768 306.498 781.217C309.566 779.296 311.302 777.246 311.302 775.107C311.302 775.107 311.913 748.714 310.973 708.822C324.348 709.848 336.559 700.32 338.57 686.623C362.23 698.924 388.398 708.448 414.479 712.192L414.467 712.001C428.446 713.58 441.423 703.552 443.121 689.133C448.537 643.159 438.11 571.433 435.708 555.948C436.626 561.876 438.698 575.912 440.618 593.546C427.891 592.416 415.186 591.069 402.491 589.589ZM339.273 686.153C339.12 686.471 338.739 686.604 338.421 686.451C338.406 686.441 320.826 677.993 309.319 670.017L310.694 708.914C310.706 709.265 310.431 709.561 310.079 709.574C309.727 709.586 309.432 709.311 309.419 708.959L307.999 668.792C307.99 668.55 308.121 668.322 308.334 668.208L309.007 668.251C317.477 674.305 330.112 680.879 335.887 683.777C337.813 684.743 338.971 685.3 338.974 685.303H338.975C339.291 685.455 339.425 685.836 339.273 686.153Z" fill="#EE7685"/>
<path d="M434.986 538.898C485.666 497.723 426.049 534.583 426.049 534.583C426.049 534.583 448.168 519.593 444.879 518.914C439.734 517.85 425.382 525.955 412.573 534.14C405.118 538.904 401.716 546.825 402.689 554.476L402.38 554.492C402.546 557.156 402.667 559.905 402.749 562.717C402.764 563.232 402.761 563.774 402.773 564.293C402.828 566.617 402.873 568.959 402.876 571.359C402.877 571.927 402.861 572.515 402.86 573.087C402.852 575.464 402.836 577.854 402.784 580.286C402.768 580.972 402.738 581.672 402.72 582.362C402.659 584.703 402.592 587.05 402.494 589.42C402.492 589.477 402.492 589.533 402.489 589.59C415.184 591.07 427.89 592.417 440.615 593.547C438.695 575.913 436.623 561.878 435.705 555.949C435.702 555.929 435.699 555.913 435.697 555.894C435.632 555.47 435.573 555.101 435.52 554.764C437.891 552.594 440.192 550.577 442.216 548.965C483.893 515.757 438.691 543.878 438.691 543.878C495.097 502.628 434.986 538.898 434.986 538.898Z" fill="#F8BDA9"/>
<path d="M138.515 571.888L138.546 571.901C138.089 574.948 138.137 578.114 138.838 581.311C142.113 596.256 157.648 605.989 173.532 603.057C178.519 602.136 182.945 600.075 186.573 597.22L186.558 597.26L186.904 596.934C187.552 596.408 188.18 595.863 188.774 595.287C194.15 591.052 197.663 592.466 197.663 592.466L197.667 592.434C201.762 593.807 206.218 594.373 210.8 593.884C226.854 592.165 238.212 578.477 236.169 563.311C236.13 563.027 236.057 562.755 236.009 562.473L236.039 562.465C235.286 558.73 236.094 555.706 237.419 553.355C239.753 549.215 243.711 547.184 243.711 547.184L243.672 547.168C243.717 547.141 243.755 547.106 243.799 547.079C252.817 541.575 258.204 531.543 256.748 520.725C256.141 516.231 254.336 512.179 251.8 508.655C250.472 506.809 249.004 505.066 247.272 503.574L246.929 503.255C242.105 499.551 239.801 495.85 238.714 492.863C237.121 494.33 235.003 495.236 232.667 495.217C227.78 495.177 223.849 491.184 223.888 486.295C223.927 481.406 227.922 477.477 232.809 477.517C233.859 477.525 234.85 477.747 235.781 478.09C236.244 475.994 236.489 473.819 236.423 471.575C236.368 469.713 236.118 467.902 235.702 466.159C238.849 465.505 241.746 464.797 244.258 464.118C248.134 463.071 251.043 462.134 252.448 461.658C252.505 461.64 252.563 461.638 252.62 461.619C252.677 461.599 252.725 461.564 252.783 461.544C253.161 461.415 253.426 461.322 253.426 461.322L253.397 461.264C262.975 457.53 268.043 446.934 264.705 437.104C261.272 426.998 250.298 421.589 240.191 425.02C238.891 425.461 237.676 426.036 236.541 426.709L236.537 426.701C230.896 428.944 225.418 436.344 219.366 441.818C216.695 444.233 213.861 445.346 211.493 445.877C210.705 445.83 209.912 445.803 209.108 445.827C196.808 446.191 186.741 454.877 184.071 466.32C182.192 467.552 178.966 468.672 174.244 466.818L174.249 466.84C168.879 464.59 162.77 463.798 156.596 464.939C140.711 467.871 130.488 482.365 133.763 497.309C133.863 497.76 134.007 498.191 134.13 498.634L134.092 498.637C136.28 506.735 130.332 510.818 128.243 511.974L127.809 512.206L127.537 512.336L127.538 512.361C116.933 518.065 110.933 529.687 113.546 541.617C115.417 550.153 121.295 556.975 128.945 560.723V560.74C135.341 563.545 137.567 566.727 138.292 568.971C138.853 570.712 138.515 571.888 138.515 571.888Z" fill="#383851"/>
<path d="M233.156 490.866C230.688 490.847 228.698 488.838 228.698 486.375V486.341C228.699 486.241 228.749 486.159 228.756 486.061C229.254 485.905 230.206 485.654 231.385 485.655C233.181 485.667 235.302 486.204 236.929 488.548C237.129 488.838 237.525 488.912 237.815 488.712C238.105 488.512 238.179 488.115 237.979 487.826C236.097 485.077 233.434 484.368 231.385 484.38C230.458 484.381 229.659 484.517 229.048 484.659C229.723 483.024 231.32 481.875 233.192 481.875C233.542 481.897 233.846 481.631 233.869 481.28C233.893 480.929 233.627 480.625 233.276 480.601L233.192 480.599C230.413 480.599 228.195 482.606 227.651 485.231C227.526 485.395 227.464 485.588 227.533 485.794C227.514 485.978 227.424 486.137 227.421 486.325V486.374C227.422 489.537 229.974 492.114 233.144 492.14C233.496 492.143 233.784 491.86 233.787 491.507C233.792 491.156 233.508 490.868 233.156 490.866Z" fill="#2F313E"/>
<path d="M323.162 596.682C321.011 594.195 319.21 591.993 317.948 590.414C317.19 589.466 316.656 588.782 316.328 588.356C316.109 588.074 315.964 587.884 315.964 587.884C315.771 587.629 315.431 587.589 315.159 587.737C315.131 587.752 315.097 587.74 315.071 587.76C314.79 587.973 314.735 588.372 314.947 588.654C314.965 588.672 326.599 604.047 337.933 613.322C338.205 613.544 338.607 613.505 338.831 613.232C338.837 613.224 338.833 613.212 338.839 613.203C339.04 612.932 339.006 612.55 338.741 612.334C338.581 612.202 338.421 612.045 338.259 611.911C332.841 607.4 327.339 601.514 323.162 596.682Z" fill="#2F313E"/>
<path d="M338.974 685.303C338.971 685.301 337.813 684.744 335.887 683.777C330.112 680.879 317.477 674.305 309.007 668.251L308.334 668.208C308.121 668.322 307.99 668.55 307.999 668.792L309.419 708.959C309.432 709.311 309.727 709.585 310.079 709.574C310.431 709.562 310.707 709.266 310.694 708.914L309.319 670.017C320.826 677.993 338.406 686.441 338.421 686.451C338.739 686.603 339.12 686.47 339.273 686.153C339.426 685.836 339.292 685.455 338.975 685.302L338.974 685.303Z" fill="#2F313E"/>
<path d="M960.16 525.968L960.184 493.587C964.011 490.758 966.538 486.258 966.522 481.114L966.497 473.842C966.911 473.897 967.323 473.962 967.752 473.958C972.713 473.917 976.705 469.864 976.665 464.901C976.624 459.939 972.57 455.95 967.609 455.987C967.339 455.989 967.085 456.047 966.821 456.073L966.992 465.768C966.554 480.644 954.138 492.347 939.263 491.906C924.388 491.467 912.685 479.052 913.124 464.177C913.14 463.662 913.203 463.16 913.247 462.652L913.221 462.644L913.518 456.133C913.079 456.063 912.641 455.991 912.183 455.987C907.221 455.95 903.166 459.939 903.127 464.901C903.088 469.728 906.874 473.666 911.646 473.915L910.796 478.701C909.851 484.018 911.961 489.025 915.703 492.225L911.65 526.688C919.004 525.858 926.774 525.319 934.844 525.153C943.522 524.975 952.041 525.276 960.16 525.968Z" fill="#AA4922"/>
<path d="M960.523 1218.14L962.221 1236.48C964.546 1235.54 967.97 1236.38 971.58 1236.37C975.331 1236.34 979.171 1236.04 981.544 1236.39L983.684 1219.43C975.866 1219.71 967.983 1219.42 960.523 1218.14Z" fill="#AA4922"/>
<path d="M971.58 1236.37C967.971 1236.38 964.546 1235.54 962.221 1236.48C961.472 1236.79 960.833 1237.27 960.344 1238.04C955.776 1245.23 958.736 1258.64 958.732 1258.66V1258.66C958.732 1262.82 968.363 1260.74 985.444 1260.74C1002.53 1260.74 1016.37 1261.94 1016.37 1257.77C1016.37 1254.04 1005.28 1248.98 990.713 1247.95L990.75 1247.94C981.96 1247.71 983.54 1242.5 983.881 1238.04C983.956 1237.07 983.035 1236.61 981.542 1236.39C979.171 1236.04 975.332 1236.34 971.58 1236.37Z" fill="#4D4696"/>
<path d="M958.757 1199.07L960.524 1218.14C967.984 1219.42 975.867 1219.71 983.684 1219.43L986.176 1199.68C983.1 1199.83 979.845 1199.92 976.468 1199.92C969.963 1199.92 963.909 1199.6 958.757 1199.07Z" fill="#722B13"/>
<path d="M811.071 1236.06C813.124 1235.97 815.587 1236.38 818.155 1236.37C823.423 1236.33 828.87 1235.75 830.156 1237.19L835.324 1219.33C827.755 1219.18 819.959 1217.98 812.335 1216.23L811.071 1236.06Z" fill="#AA4922"/>
<path d="M813.793 1193.34L812.627 1211.65L813.795 1193.34H813.793Z" fill="#F9C9CA"/>
<path d="M813.795 1193.34L812.627 1211.65L812.335 1216.23C819.959 1217.98 827.756 1219.18 835.325 1219.33L841.285 1198.72C837.392 1198.26 833.17 1197.62 828.766 1196.79C823.326 1195.77 818.25 1194.58 813.795 1193.34Z" fill="#722B13"/>
<path d="M1009.75 778.241C1009.55 777.214 1009.36 776.184 1009.16 775.167C1009.16 775.168 1009.16 775.168 1009.16 775.169C1009.36 776.189 1009.55 777.211 1009.75 778.241Z" fill="#4D4696"/>
<path d="M846.198 821.605L852.796 773.189C852.791 773.188 852.785 773.186 852.781 773.185L796.658 1185.03C796.256 1187.18 803.252 1190.41 813.793 1193.34H813.795C818.25 1194.58 823.326 1195.77 828.765 1196.79C833.169 1197.62 837.391 1198.26 841.284 1198.72C853.572 1200.19 862.512 1199.82 862.948 1197.5C862.948 1197.5 907.287 1049.96 928.448 911.458L942.742 1194.3C942.742 1196.31 949.158 1198.08 958.757 1199.07C963.91 1199.6 969.963 1199.92 976.469 1199.92C979.846 1199.92 983.101 1199.83 986.177 1199.68C1000.07 1198.98 1010.19 1196.84 1010.19 1194.3C1010.19 1194.3 1033.1 979.034 1016.6 825.625C1001.4 828.057 986.139 830.004 970.747 830.866C929.114 833.197 887.158 829.473 846.198 821.605Z" fill="#4D4696"/>
<path d="M934.764 781.919C900.5 781.919 870.352 778.447 852.795 773.19L846.197 821.606C887.157 829.474 929.114 833.198 970.745 830.868C986.137 830.006 1001.4 828.059 1016.6 825.627C1016.59 825.589 1016.59 825.551 1016.59 825.513C1016.25 822.422 1015.9 819.356 1015.54 816.317C1015.53 816.231 1015.52 816.147 1015.51 816.061C1015.15 813.079 1014.77 810.122 1014.38 807.195C1014.35 806.964 1014.32 806.741 1014.28 806.512C1013.91 803.738 1013.52 800.985 1013.12 798.264C1013.06 797.853 1012.99 797.449 1012.93 797.039C1012.55 794.511 1012.16 791.999 1011.75 789.521C1011.65 788.899 1011.54 788.293 1011.43 787.673C1011.05 785.437 1010.67 783.209 1010.27 781.018C1010.1 780.082 1009.92 779.17 1009.75 778.242C1009.55 777.212 1009.35 776.19 1009.15 775.17C991.156 779.299 964.517 781.919 934.764 781.919Z" fill="#2E2F73"/>
<path d="M1217.1 438.691C1215.19 435.871 1209.7 462.432 1209.7 462.432C1209.7 462.432 1221.19 392.211 1202.18 455.719C1202.18 455.719 1212.93 385.263 1196.07 454.166C1196.07 454.166 1204.95 400.859 1189.94 452.83C1186.64 464.252 1177.68 484.603 1176.51 487.24C1162.54 514.935 1148.43 535.103 1136.47 549.494L1147.6 600.591C1156.68 601.483 1166.07 597.639 1171.83 589.512C1199.82 550.026 1209.55 503.817 1211.01 496.218C1214.34 481.365 1221.72 445.508 1217.1 438.691Z" fill="#AA4922"/>
<path d="M1136.4 549.179C1133.54 549.33 1130.27 549.513 1126.67 549.683L1138.61 602.81C1141.65 602.181 1144.67 601.531 1147.65 600.834L1147.6 600.591L1136.47 549.494L1136.4 549.179Z" fill="#F3955D"/>
<path d="M1002.31 534.307C1001.23 533.911 1000.14 533.574 999.038 533.293C998.899 533.248 998.766 533.211 998.626 533.166L998.617 533.198C998.602 533.194 998.587 533.191 998.573 533.188C993.042 531.392 986.743 529.836 979.851 528.582C979.809 528.77 979.708 528.939 979.521 529.028C967.199 534.805 952.26 539.962 938.547 540.071C938.228 540.072 937.907 540.074 937.584 540.074C924.202 540.067 909.141 537.934 898.455 529.71C898.173 529.491 898.119 529.085 898.338 528.801C898.557 528.519 898.963 528.466 899.246 528.684C909.526 536.622 924.332 538.784 937.584 538.779C937.902 538.779 938.221 538.777 938.538 538.776C951.607 538.68 966.01 533.83 978.055 528.266C972.398 527.293 966.42 526.503 960.159 525.968C952.04 525.276 943.521 524.975 934.841 525.152C926.771 525.318 919.002 525.857 911.647 526.687C891.539 528.957 874.746 533.511 864.37 539.272C857.64 542.348 852.022 547.577 848.47 554.21L848.444 554.194C848.386 554.33 848.321 554.452 848.262 554.588C847.856 555.368 847.492 556.171 847.146 556.987C824.253 607.832 791.616 634.698 772.432 651.846L795.838 704.274C811.878 692.605 827.841 679.747 842.634 665.792C842.526 665.665 842.466 665.498 842.48 665.319L848.826 588.108C848.856 587.751 849.169 587.487 849.524 587.515C849.881 587.545 850.146 587.857 850.117 588.214L843.771 665.426C843.741 665.783 843.429 666.047 843.072 666.018C842.972 666.01 842.906 665.94 842.825 665.892C838.609 721.669 836.61 762.526 836.61 762.526C836.61 766.464 842.569 770.126 852.78 773.186C852.784 773.187 852.79 773.189 852.795 773.19C870.352 778.448 900.499 781.919 934.764 781.919C964.516 781.919 991.155 779.299 1009.16 775.169C1009.16 775.168 1009.16 775.168 1009.16 775.167C1023.95 771.773 1032.92 767.357 1032.92 762.526C1032.92 692.17 1030.73 642.396 1028.28 608.685C1064.24 612.768 1102.27 610.24 1137.35 603.086L1125.35 549.741C1099.22 550.917 1055.22 551.098 1002.31 534.307Z" fill="#F3955D"/>
<path d="M818.155 1236.36C815.586 1236.38 813.124 1235.97 811.071 1236.06C809.308 1236.14 807.844 1236.58 806.918 1238.04C802.35 1245.23 805.309 1258.64 805.306 1258.66V1258.66C805.306 1262.82 814.937 1260.74 832.017 1260.74C849.1 1260.74 862.946 1261.94 862.946 1257.77C862.946 1254.04 851.852 1248.98 837.287 1247.95L837.324 1247.94C828.535 1247.71 830.113 1242.5 830.457 1238.04C830.484 1237.7 830.361 1237.42 830.155 1237.19C828.87 1235.75 823.423 1236.33 818.155 1236.36Z" fill="#4D4696"/>
<path d="M937.585 538.779C924.334 538.784 909.528 536.622 899.247 528.684C898.964 528.466 898.557 528.519 898.339 528.801C898.121 529.085 898.174 529.491 898.456 529.71C909.141 537.934 924.203 540.067 937.585 540.074C937.908 540.074 938.229 540.072 938.548 540.071C952.261 539.962 967.2 534.805 979.522 529.028C979.709 528.939 979.81 528.77 979.852 528.582C979.884 528.446 979.897 528.302 979.833 528.166C979.681 527.843 979.296 527.703 978.972 527.856C978.675 527.995 978.357 528.128 978.056 528.267C966.011 533.831 951.608 538.681 938.539 538.777C938.222 538.778 937.903 538.779 937.585 538.779Z" fill="#2F313E"/>
<path d="M1126.61 549.442C1126.53 549.094 1126.19 548.873 1125.84 548.952C1125.49 549.031 1125.27 549.376 1125.35 549.726L1125.35 549.742L1137.35 603.087L1137.35 603.099C1137.43 603.448 1137.78 603.667 1138.12 603.589C1138.47 603.51 1138.69 603.163 1138.61 602.815V602.811L1126.67 549.684L1126.61 549.442Z" fill="#2F313E"/>
<path d="M764.466 659.28C749.492 650.535 731.7 638.24 712.001 620.933C709.962 618.952 694.02 603.395 686.685 594.019C653.347 551.417 681.489 597.552 681.489 597.552C640.121 539.928 676.402 601.271 676.402 601.271C635.054 549.457 671.94 610.306 671.94 610.306C671.94 610.306 656.924 587.719 656.203 591.051C654.461 599.104 674.725 629.632 683.354 642.157C687.585 648.724 713.857 687.905 754.528 714.051C765.75 721.263 780.101 718.906 788.497 709.523C788.083 709.816 787.668 710.121 787.255 710.411L764.466 659.28Z" fill="#AA4922"/>
<path d="M771.421 652.757C768.819 655.096 766.466 657.267 764.466 659.28L787.254 710.411C787.668 710.121 788.082 709.816 788.496 709.523C790.604 708.036 792.713 706.532 794.822 705.003C794.781 704.957 794.716 704.937 794.689 704.878L771.421 652.757Z" fill="#F3955D"/>
<path d="M772.347 651.653C772.201 651.326 771.818 651.179 771.492 651.325C771.165 651.471 771.019 651.854 771.164 652.18L771.422 652.757L794.69 704.877C794.717 704.936 794.782 704.956 794.823 705.002C795.005 705.212 795.279 705.323 795.545 705.205C795.872 705.059 796.018 704.674 795.873 704.348L795.84 704.275L772.434 651.847L772.347 651.653Z" fill="#2F313E"/>
<path d="M913.246 462.652C913.203 463.16 913.139 463.662 913.123 464.177C912.684 479.052 924.387 491.466 939.262 491.906C954.137 492.347 966.553 480.643 966.991 465.768L966.82 456.073L966.38 431.004C966.569 430.906 966.776 430.825 966.963 430.726L966.955 430.702C971.425 429.123 974.699 424.954 974.847 419.931C975.039 413.404 969.905 407.959 963.381 407.766C962.047 407.727 960.778 407.96 959.57 408.332L959.556 408.287C959.556 408.287 959.433 408.344 959.215 408.432C958.976 408.513 958.738 408.589 958.506 408.686C956.266 409.446 950.603 410.8 944.261 407.835C936.086 404.012 927.893 397.968 921.203 397.429L921.202 397.438C919.783 397.095 918.312 396.882 916.795 396.837C904.998 396.488 895.152 405.771 894.805 417.568C894.538 426.575 899.904 434.408 907.7 437.781C907.889 442.978 910.159 447.626 913.757 450.938L913.52 456.131L913.223 462.642L913.246 462.652Z" fill="#383851"/>
<path d="M843.772 665.426L850.118 588.214C850.147 587.858 849.882 587.545 849.525 587.515C849.17 587.487 848.857 587.751 848.827 588.108L842.481 665.319C842.467 665.498 842.527 665.665 842.635 665.792C842.682 665.847 842.763 665.854 842.826 665.891C842.907 665.939 842.973 666.01 843.073 666.017C843.43 666.047 843.742 665.783 843.772 665.426Z" fill="#2F313E"/>
<path d="M1.34 1264.6H1934.24C1934.98 1264.6 1935.57 1264 1935.57 1263.26C1935.57 1262.52 1934.98 1261.92 1934.24 1261.92H1.34C0.598996 1261.92 0 1262.52 0 1263.26C0 1264 0.599996 1264.6 1.34 1264.6Z" fill="#181B26"/>
</svg>
