<?xml version="1.0" encoding="utf-8"?>
<!-- Generator: Adobe Illustrator 27.5.0, SVG Export Plug-In . SVG Version: 6.00 Build 0)  -->
<svg version="1.1" xmlns="http://www.w3.org/2000/svg" xmlns:xlink="http://www.w3.org/1999/xlink" x="0px" y="0px"
	 viewBox="0 0 500 500" style="enable-background:new 0 0 500 500;" xml:space="preserve">
<g id="BACKGROUND">
	<g>
		<g>
			<path style="fill:#EEEEFE;" d="M78.812,242.053c6.529,12.487,11.415,25.482,11.207,39.418
				c-0.443,29.714-25.394,54.108-28.956,83.61c-2.499,20.701,6.795,42.488,23.635,54.785c12.999,9.492,29.468,13.2,45.559,13.61
				c16.091,0.41,32.079-2.234,48.041-4.307c18.94-2.459,38.667-4.626,57.708-2.021c19.023,2.603,36.934,10.028,55.38,14.989
				c26.491,7.125,55.529,6.656,77.326-11.939c18.987-16.197,25.934-42.31,27.466-66.304c1.412-22.113,9.978-41.402,23.025-59.008
				c13.455-18.157,30.753-34.731,39.229-56.05c4.928-12.396,6.462-25.954,5.904-39.282c-0.545-13.018-3.124-26.162-9.385-37.589
				c-13.199-24.092-40.826-37.057-67.962-41.328c-28.335-4.459-57.92,1.86-85.752-3.471c-41.967-8.038-76.957-34.832-118.347-45.152
				c-27.754-6.92-58.046-7.311-84.067,4.564c-16,7.302-29.881,19.074-39.995,33.463c-17.611,25.056-16.671,54.072-3.467,80.991
				C61.956,214.475,71.433,227.94,78.812,242.053z"/>
		</g>
		<g>
			<g id="XMLID_2_">
				<path style="fill:#EEEEFE;" d="M74.719,250.61c0.816,1.688,2.116,3.097,3.722,4.043c0.637,0.376,0.607,1.338-0.053,1.672
					c-1.669,0.843-3.055,2.167-3.977,3.791c-0.381,0.671-1.363,0.641-1.699-0.054c-0.817-1.687-2.12-3.095-3.729-4.042
					c-0.639-0.376-0.609-1.34,0.053-1.673c1.672-0.842,3.06-2.168,3.984-3.792C73.401,249.884,74.383,249.915,74.719,250.61z"/>
			</g>
			<g id="XMLID_4_">
				<path style="fill:#EEEEFE;" d="M49.28,248.648c0.816,1.688,2.116,3.097,3.722,4.043c0.637,0.376,0.607,1.338-0.053,1.672
					c-1.669,0.843-3.055,2.167-3.977,3.791c-0.381,0.671-1.363,0.64-1.699-0.054c-0.817-1.687-2.12-3.095-3.729-4.042
					c-0.639-0.376-0.609-1.34,0.053-1.673c1.672-0.842,3.061-2.168,3.984-3.792C47.963,247.922,48.945,247.953,49.28,248.648z"/>
			</g>
			<g id="XMLID_5_">
				<path style="fill:#EEEEFE;" d="M56.438,225c0.816,1.688,2.116,3.097,3.722,4.043c0.637,0.375,0.607,1.338-0.053,1.672
					c-1.669,0.843-3.055,2.167-3.977,3.791c-0.381,0.671-1.363,0.641-1.699-0.054c-0.817-1.687-2.12-3.095-3.729-4.042
					c-0.639-0.376-0.609-1.34,0.053-1.673c1.672-0.842,3.06-2.168,3.984-3.792C55.12,224.274,56.102,224.305,56.438,225z"/>
			</g>
			<g id="XMLID_8_">
				<path style="fill:#EEEEFE;" d="M458.23,274.103c0.816,1.688,2.116,3.097,3.722,4.043c0.637,0.376,0.608,1.338-0.053,1.672
					c-1.669,0.843-3.055,2.167-3.977,3.791c-0.381,0.671-1.363,0.64-1.699-0.054c-0.817-1.687-2.12-3.095-3.729-4.042
					c-0.638-0.376-0.609-1.34,0.053-1.673c1.672-0.842,3.06-2.168,3.984-3.792C456.912,273.377,457.894,273.408,458.23,274.103z"/>
			</g>
			<g id="XMLID_7_">
				<path style="fill:#EEEEFE;" d="M443.156,293.694c0.816,1.688,2.116,3.097,3.722,4.043c0.637,0.375,0.608,1.338-0.053,1.672
					c-1.669,0.843-3.055,2.167-3.977,3.791c-0.381,0.671-1.363,0.64-1.699-0.054c-0.817-1.687-2.12-3.095-3.729-4.042
					c-0.638-0.376-0.609-1.34,0.053-1.673c1.672-0.842,3.06-2.168,3.984-3.792C441.838,292.968,442.82,292.999,443.156,293.694z"/>
			</g>
			<g id="XMLID_6_">
				<path style="fill:#EEEEFE;" d="M465.454,297.029c0.816,1.688,2.116,3.097,3.722,4.043c0.637,0.375,0.608,1.338-0.053,1.672
					c-1.669,0.843-3.055,2.167-3.977,3.791c-0.381,0.671-1.363,0.64-1.699-0.054c-0.817-1.687-2.12-3.095-3.729-4.042
					c-0.639-0.376-0.609-1.339,0.053-1.673c1.672-0.842,3.06-2.168,3.984-3.792C464.136,296.302,465.118,296.334,465.454,297.029z"
					/>
			</g>
			<g id="XMLID_11_">
				<path style="fill:#EEEEFE;" d="M274.839,102.675c-1.871-0.116-3.736,0.328-5.348,1.265c-0.639,0.372-1.464-0.126-1.432-0.865
					c0.082-1.868-0.393-3.725-1.358-5.324c-0.399-0.661,0.109-1.502,0.879-1.455c1.871,0.114,3.737-0.332,5.35-1.272
					c0.64-0.373,1.466,0.125,1.432,0.865c-0.085,1.87,0.391,3.73,1.356,5.33C276.118,101.882,275.609,102.722,274.839,102.675z"/>
			</g>
			<g id="XMLID_10_">
				<path style="fill:#EEEEFE;" d="M274.839,72.327c-1.871-0.115-3.736,0.328-5.348,1.265c-0.639,0.372-1.464-0.126-1.432-0.865
					c0.082-1.868-0.393-3.725-1.358-5.324c-0.399-0.661,0.109-1.502,0.879-1.455c1.871,0.114,3.737-0.332,5.35-1.272
					c0.64-0.373,1.466,0.125,1.432,0.865c-0.085,1.87,0.391,3.73,1.356,5.331C276.118,71.534,275.609,72.374,274.839,72.327z"/>
			</g>
			<g id="XMLID_9_">
				<path style="fill:#EEEEFE;" d="M238.911,84.934c-1.871-0.116-3.736,0.328-5.348,1.265c-0.639,0.372-1.464-0.126-1.432-0.865
					c0.082-1.868-0.393-3.725-1.358-5.324c-0.399-0.661,0.109-1.502,0.879-1.455c1.871,0.114,3.737-0.332,5.35-1.272
					c0.64-0.373,1.466,0.125,1.433,0.865c-0.085,1.87,0.391,3.73,1.356,5.33C240.19,84.141,239.682,84.981,238.911,84.934z"/>
			</g>
		</g>
	</g>
</g>
<g id="OBJECTS">
	<g>
		<g>
			<path style="fill:#E37483;" d="M168.959,187.465c1.632-1.348,3.098-2.819,4.42-4.375l6.915,2.86l8.396-20.317l-7.091-2.934
				c0.319-5.02-0.44-10.113-2.302-14.913l5.967-4.927l-13.998-16.953l-5.967,4.927c-3.835-2.405-8.05-4.016-12.401-4.798
				l-1.144-7.601l-21.742,3.266l1.113,7.415c-2.356,1.172-4.623,2.62-6.739,4.367c-1.468,1.212-2.811,2.525-4.032,3.908
				l-6.799-2.809l-8.396,20.317l6.632,2.743c-0.426,5.215,0.316,10.525,2.254,15.515l-5.463,4.511l13.998,16.953l5.464-4.511
				c4.003,2.519,8.429,4.16,12.99,4.898l1.063,7.089l21.742-3.266l-1.092-7.261C164.913,190.447,166.998,189.085,168.959,187.465z
				 M128.516,175.461c-8.391-10.162-6.959-25.209,3.207-33.604c10.167-8.395,25.213-6.954,33.604,3.207
				c8.395,10.167,6.959,25.209-3.207,33.604C151.953,187.064,136.911,185.628,128.516,175.461z"/>
			<path style="fill:#9BB4FE;" d="M187.826,117.999c0.666-0.55,1.264-1.15,1.803-1.784l2.821,1.167l3.424-8.287l-2.892-1.197
				c0.13-2.048-0.179-4.125-0.939-6.083l2.434-2.01l-5.71-6.915l-2.434,2.01c-1.564-0.981-3.283-1.638-5.058-1.957l-0.467-3.1
				l-8.868,1.332l0.454,3.024c-0.961,0.478-1.886,1.069-2.749,1.781c-0.599,0.494-1.147,1.03-1.644,1.594l-2.774-1.146l-3.424,8.287
				l2.705,1.119c-0.174,2.127,0.129,4.293,0.919,6.328l-2.229,1.84l5.71,6.915l2.229-1.84c1.633,1.027,3.438,1.697,5.298,1.998
				l0.434,2.892l8.868-1.332l-0.445-2.962C186.176,119.216,187.026,118.66,187.826,117.999z M171.33,113.103
				c-3.423-4.145-2.839-10.283,1.308-13.707c4.147-3.424,10.284-2.837,13.707,1.308c3.424,4.147,2.839,10.283-1.308,13.707
				S174.754,117.25,171.33,113.103z"/>
			<path style="fill:#4546CF;" d="M210.737,134.189c0.465-0.384,0.883-0.803,1.26-1.247l1.971,0.815l2.393-5.791l-2.021-0.836
				c0.091-1.431-0.126-2.882-0.656-4.251l1.701-1.405l-3.99-4.832l-1.701,1.404c-1.093-0.686-2.294-1.145-3.535-1.368l-0.326-2.167
				l-6.197,0.931l0.317,2.114c-0.672,0.334-1.318,0.747-1.921,1.245c-0.418,0.345-0.801,0.72-1.149,1.114l-1.938-0.801l-2.393,5.791
				l1.89,0.782c-0.122,1.486,0.09,3,0.642,4.422l-1.557,1.286l3.99,4.832l1.557-1.286c1.141,0.718,2.402,1.186,3.702,1.396
				l0.303,2.021l6.197-0.931l-0.311-2.07C209.584,135.039,210.178,134.651,210.737,134.189z M199.209,130.768
				c-2.392-2.896-1.984-7.186,0.914-9.578c2.898-2.393,7.187-1.982,9.579,0.914c2.393,2.898,1.984,7.186-0.914,9.578
				C205.89,134.075,201.602,133.665,199.209,130.768z"/>
		</g>
		<g>
			<path style="fill:#9BB4FE;" d="M464.791,245.666c1.597-0.401,3.118-0.943,4.566-1.594l3.9,4.32l12.689-11.459l-3.998-4.432
				c1.903-3.419,3.072-7.248,3.37-11.242l5.838-1.465l-4.161-16.585l-5.838,1.465c-1.889-2.971-4.309-5.512-7.104-7.516l1.738-5.72
				l-16.359-4.977l-1.698,5.579c-2.046,0.035-4.122,0.294-6.193,0.813c-1.436,0.36-2.818,0.833-4.138,1.396l-3.836-4.246
				l-12.689,11.459l3.739,4.144c-2.043,3.52-3.297,7.496-3.605,11.648l-5.345,1.341l4.161,16.585l5.345-1.341
				c1.968,3.108,4.527,5.74,7.483,7.783l-1.624,5.333l16.359,4.977l1.661-5.464C460.952,246.407,462.871,246.147,464.791,245.666z
				 M440.405,223.713c-2.494-9.941,3.543-20.029,13.489-22.524c9.946-2.495,20.03,3.548,22.524,13.489
				c2.495,9.946-3.543,20.029-13.489,22.524C452.983,239.698,442.9,233.66,440.405,223.713z"/>
			<path style="fill:#4546CF;" d="M433.433,273.026c0.817-0.918,1.527-1.892,2.148-2.901l4.22,1.027l3.015-12.398l-4.328-1.055
				c-0.262-2.908-1.149-5.762-2.643-8.35l2.986-3.355l-9.533-8.484l-2.986,3.356c-2.413-1.04-4.974-1.59-7.539-1.653l-1.33-4.258
				l-12.182,3.801l1.296,4.155c-1.248,0.881-2.419,1.912-3.479,3.103c-0.734,0.825-1.389,1.698-1.966,2.599l-4.149-1.008
				L393.947,260l4.047,0.986c0.218,3.029,1.114,6.009,2.668,8.7l-2.734,3.072l9.533,8.484l2.734-3.072
				c2.52,1.09,5.204,1.639,7.886,1.658l1.238,3.972L431.502,280l-1.27-4.069C431.376,275.095,432.451,274.129,433.433,273.026z
				 M409.169,269.725c-5.714-5.085-6.227-13.844-1.139-19.561c5.088-5.717,13.847-6.224,19.561-1.139
				c5.717,5.088,6.227,13.844,1.139,19.561C423.642,274.303,414.886,274.813,409.169,269.725z"/>
		</g>
	</g>
	<g>
		<path style="fill:#F2F2F2;" d="M231.652,445.436c0-1.616-28.317-2.926-63.248-2.926c-34.931,0-63.248,1.31-63.248,2.926
			s28.317,2.926,63.248,2.926C203.336,448.362,231.652,447.052,231.652,445.436z"/>
		<path style="fill:#9BB4FE;" d="M239.731,405.31c11.898,0,21.387-10.282,20.069-22.44c-0.999-9.216-8.398-16.696-17.604-17.789
			c-7.261-0.862-13.884,2.145-18.058,7.231v-46.648h-0.953v-0.095h-45.513c4.936-4.216,7.827-10.769,6.933-17.944
			c-1.139-9.143-8.581-16.47-17.74-17.475c-12.169-1.336-22.475,8.159-22.475,20.059c0,6.148,2.758,11.656,7.094,15.36h-46.328
			v92.611c0,14.479,11.738,26.217,26.216,26.217h92.764v-46.466C227.834,402.435,233.451,405.31,239.731,405.31z"/>
	</g>
	<g>
		<g>
			<path style="fill:#E37483;" d="M317.449,120.809L323,166.546c-4.747-4.543-11.658-6.746-18.76-5.046
				c-9.022,2.16-15.5,10.463-15.404,19.739c0.126,12.255,10.799,21.347,22.62,19.912c6.255-0.759,11.491-4.305,14.622-9.244
				l5.626,46.351l0.946-0.115l0.011,0.094l45.521-5.525c-4.573,4.747-6.78,11.688-5.067,18.802
				c2.171,9.02,10.484,15.487,19.761,15.379c12.241-0.142,21.318-10.808,19.884-22.62c-0.76-6.262-4.314-11.511-9.267-14.634
				l46.467-5.64l-11.109-91.517c-1.745-14.374-14.811-24.611-29.184-22.867L317.449,120.809z"/>
			<g>
				<polyline style="fill:none;stroke:#4546CF;stroke-width:2.1324;stroke-miterlimit:10;" points="341.647,237.146 389.45,77.835 
					425.563,226.96 				"/>
				
					<line style="fill:none;stroke:#4546CF;stroke-width:2.1324;stroke-miterlimit:10;" x1="389.45" y1="79.475" x2="389.45" y2="0"/>
				<circle style="fill:#E37483;" cx="389.45" cy="79.475" r="8.748"/>
			</g>
		</g>
		<g>
			<path style="fill:#EDC6C9;" d="M345.787,72.083l-0.645-0.723c0,0,0,0,0,0l0,0l-2.694-3.019l-3.753,2.43
				c1.49,1.388,2.991,2.506,3.287,4.111l-2.337,4.958l4.58,1.124l4.1-6.896C347.376,73.368,346.423,72.668,345.787,72.083z"/>
			<path style="fill:#4546CF;" d="M358.021,96.74c1.591,5.678,4.791,10.03-0.619,18.107l-14.708-9.331
				c1.191-2.159,2.154-4.323,2.377-6.578L358.021,96.74z"/>
			<path style="fill:#9BB4FE;" d="M340.973,89.64c-2.343-2.717-2.864-6.554-1.327-9.8l0,0c2.031,0.292,3.977-0.924,4.604-2.878
				l1.557-4.851c8.581,3.216,6.972,19.634,11.555,21.831l-12.425,2.108c-0.221-1.109-0.648-2.226-1.353-3.382L340.973,89.64z"/>
			<path style="fill:#333072;" d="M345.071,98.937c0.109-0.949,0.077-1.906-0.133-2.886l12.425-2.108
				c0.164,0.967,0.396,1.89,0.658,2.797L345.071,98.937z"/>
			<path style="fill:#4546CF;" d="M358.168,113.282c-0.551,2.17-2.591,3.468-5.892,4.028c-0.862,0.146-1.726,0.217-2.578,0.232
				l-0.01,0.002c-2.344,0.019-4.692-0.437-6.884-1.308l-10.397-4.108l-4.299-1.693l-1.588-0.628
				c-1.264-0.499-2.64-0.644-3.938-0.457c-1.403,0.206-2.762,0.804-3.876,1.761c-2.448,2.081-3.355,5.468-2.245,8.502l1.573,4.297
				l-0.007,0.088l-7.502,13.082l-0.075,0.132c0.025,0.082,0.037,0.156,0.05,0.23c0.974,4.085-2.68,3.775-10.654,2.921
				c-1.133-0.111-1.794-1.393,0.182-1.794l7.916-1.851l0.023-0.058l0.031-0.135l7.216-30.001c1.425-5.876,7.116-9.88,13.059-8.758
				l1.696,0.372l6.763,1.491l0.012,0.009l12.468,2.351c4.177,0.784,7.685,3.8,8.792,7.906
				C358.365,111.194,358.415,112.321,358.168,113.282z"/>
			<path style="fill:#4546CF;" d="M330.461,119.973l-4.733,0.597c4.733-0.597,3.232,17.198,5.584,32.274l0.004,0.086
				c0.037,0.026,0.065,0.065,0.102,0.091c3.176,2.911-0.042,4.657-7.195,8.391c-1.015,0.518-2.276-0.155-0.843-1.587l5.579-5.932
				l-0.021-0.061l-10.906-29.922l-1.573-4.297c-1.11-3.034-0.203-6.422,2.245-8.502c1.114-0.957,2.472-1.555,3.876-1.761
				c1.298-0.188,2.675-0.043,3.938,0.457l1.588,0.628l4.306,1.411l17.275,5.699L330.461,119.973z"/>
			<path style="fill:#7C8CC7;" d="M336.505,96.914l-0.522,2.508l-17.528-3.588c0,0-5.744-18.27-5.554-18.303
				c0.19-0.032,2.428-0.412,2.428-0.412l5.453,16.263L336.505,96.914z"/>
			<g>
				<g>
					<path style="fill:#EDC6C9;" d="M341.68,62.514c-1.829-2.598-5.29-4.896-7.46-4.197c-2.839,0.914-4.644,3.261-2.081,10.53
						c0.111,0.315,0.252,0.62,0.411,0.915c-0.212,0.273-0.401,0.604-0.281,0.814c0.133,0.231,0.512,0.167,0.785,0.098
						c0.024-0.006,0.043-0.019,0.059-0.035c1.435,1.904,3.829,3.096,6.072,2.585c2.17-0.495,3.615-3.659,3.762-6.418
						C343.735,66.175,341.889,62.232,341.68,62.514z"/>
					<g>
						<g>
							<path style="fill:#333072;" d="M335.409,70.319c0.312-0.525,0.5-1.266,0.054-2.164c-0.037-0.074-0.126-0.104-0.201-0.067
								c-0.073,0.036-0.104,0.126-0.067,0.201c0.796,1.605-0.689,2.61-0.753,2.652c-0.069,0.045-0.087,0.138-0.043,0.207
								c0.045,0.069,0.138,0.088,0.207,0.042C334.616,71.184,335.081,70.871,335.409,70.319z"/>
						</g>
					</g>
					<g>
						<g>
							<path style="fill:#333072;" d="M333.644,67.742c0.217,0.446,0.216,0.894-0.001,0.999c-0.218,0.106-0.57-0.17-0.787-0.616
								c-0.217-0.446-0.216-0.894,0.001-0.999C333.075,67.02,333.427,67.296,333.644,67.742z"/>
						</g>
					</g>
					<g>
						<g>
							<path style="fill:#333072;" d="M333.798,65.975c0.004-0.004,0.007-0.008,0.01-0.013c0.049-0.066,0.036-0.16-0.031-0.209
								c-0.791-0.588-1.483-0.154-1.744,0.155c-0.052,0.063-0.044,0.157,0.02,0.21c0.063,0.053,0.151,0.05,0.211-0.019
								c0.018-0.022,0.576-0.67,1.335-0.106C333.661,66.039,333.747,66.03,333.798,65.975z"/>
						</g>
					</g>
				</g>
			</g>
			<g>
				<path style="fill:#4546CF;" d="M329.871,65.972c1.306-0.222,3.507-0.942,4.91-1.45c1.378-0.499,2.916,0.078,3.665,1.338
					c0.705,1.187,1.466,2.436,1.658,2.732c0.3,0.46,0.857,1.263,0.238,3.139c-0.32,0.971-0.776,1.826-0.91,2.865
					c-0.259,2.001-0.06,4.431,1.884,5.559c1.3,0.754,3.143,0.344,4.192-0.657c-1.631,0.343-2.588-1.673-2.422-3.002
					c0.196-1.573,0.716-3.467,2.444-3.91c1.285-0.33,2.216-0.101,2.718,1.215c0.341,0.896,0.225,1.89,0.529,2.795
					c0.436,1.294,1.222,2.281,2.558,2.651c1.517,0.421,3.479,0.97,4.89-0.086c0.992-0.743,1.864-2.3,2.284-3.417
					c-0.851,0.519-1.56,0.784-2.526,0.372c-1.472-0.627-0.954-2.076-0.851-3.318c0.118-1.436-0.431-3.161-1.636-4.049
					c-0.744-0.548-2.148-0.365-3.047-0.563c-0.885-0.194-1.511-0.495-1.784-1.388c-0.202-0.66-0.296-1.408-0.389-2.092
					c-0.426-3.118-2.911-7.405-7.797-9.388c-1.289-0.523-2.839-0.303-4.14-0.084c-0.985,0.166-4.947,1.545-6.3,4.149
					C328.643,62.066,329.871,65.972,329.871,65.972z"/>
			</g>
			<g>
				<path style="fill:#EDC6C9;" d="M329.156,95.329l-7.419-1.661c0.626-2.939,3.919-3.163,8.29-0.217l23.319-2.628
					c0,0-1.769-2.424-5.022-7.257c1.66-1.244,2.604-1.981,4.648-3.637c4.698,8.114,5.763,10.315,5.405,14.122
					C357.894,99.18,329.156,95.329,329.156,95.329z"/>
				<path style="fill:#9BB4FE;" d="M352.972,79.929c-2.044,1.655-2.989,2.392-4.648,3.637c-2.389-3.563-4.284-6.997-4.685-7.856
					c-0.77-1.647,0.577-3.31,2.844-3.717c2.274-0.408,3.738,3.829,5.503,6.46C352.321,78.959,352.652,79.443,352.972,79.929z"/>
			</g>
			<path style="fill:#333072;" d="M299.845,140.361c-1.133-0.111-1.794-1.393,0.182-1.794l7.916-1.851l0.023-0.058l0.031-0.135
				l2.502,0.916C311.473,141.525,307.819,141.215,299.845,140.361z"/>
			<path style="fill:#333072;" d="M324.223,161.412c-1.015,0.518-2.276-0.155-0.843-1.587l5.579-5.932l-0.021-0.061l2.48-0.81
				C334.594,155.932,331.376,157.678,324.223,161.412z"/>
		</g>
	</g>
	<g>
		<path style="fill:#F2F2F2;" d="M462.172,445.464c0,1.163-15.753,2.107-35.184,2.107s-35.184-0.943-35.184-2.107
			s15.753-2.107,35.184-2.107S462.172,444.3,462.172,445.464z"/>
		<path style="fill:#F2F2F2;" d="M390.255,445.436c0-1.616-28.317-2.926-63.248-2.926s-63.248,1.31-63.248,2.926
			s28.317,2.926,63.248,2.926S390.255,447.052,390.255,445.436z"/>
		<g>
			<g>
				<path style="fill:#B38273;" d="M395.147,345.159l-6.237-7.602c-7.922,4.201-17.997,6.173-28.137,6.781l0.159,0.837l-0.159-0.832
					c-1.599-0.587-2.809-0.835-3.723-0.885c-1.2-0.065-1.549,1.612-0.429,2.046l1.325,0.7l-1.555,0.305
					c-1.234,0.143-2.188,0.436-2.922,0.79c-2.048,0.987-1.575,4.145,0.683,4.411c3.454,0.407,7.436-3.095,7.436-3.095l0-0.001
					C372.984,349.221,386.032,348.996,395.147,345.159z"/>
				<path style="fill:#9BB4FE;" d="M404.774,335.318c0,0.864-0.245,1.749-0.768,2.559c-0.992,1.525-2.207,2.9-3.572,4.073
					c-1.375,1.184-2.921,2.164-4.585,2.911c-0.234,0.107-0.469,0.203-0.704,0.299l-6.237-7.602c2.932-1.546,5.566-3.401,7.805-5.608
					c1.088-1.077,2.623-1.567,4.126-1.311C403.239,331.053,404.774,333.121,404.774,335.318z"/>
			</g>
			<path style="fill:#4546CF;" d="M343.692,342.374c0,11.898-10.296,21.393-22.465,20.059c-9.222-1.011-16.695-8.432-17.763-17.648
				c-0.843-7.269,2.184-13.893,7.296-18.055h-45.855v46.648c4.174-5.086,10.798-8.094,18.058-7.231
				c9.205,1.094,16.604,8.573,17.604,17.789c1.318,12.158-8.171,22.44-20.069,22.44c-6.279,0-11.897-2.874-15.593-7.378v46.466
				h91.942c14.479,0,26.217-11.737,26.217-26.216V326.73h-46.808C340.796,330.427,343.692,336.066,343.692,342.374z"/>
			<g>
				<g>
					<path style="fill:#A76F5E;" d="M397.406,322.989c0,0,2.984,4.27,4.892,8.22c0.898,1.859-3.293,5.816-3.524,5.809
						c-0.274-0.009-0.541-0.179-0.627-0.491c-0.568-2.067-1.855-5.64-4.363-7.867L397.406,322.989z"/>
					<g>
						<path style="fill:#B38273;" d="M399.243,319.818c-1.667-3.108-5.171-6.104-7.655-5.626c-3.25,0.626-5.554,2.969-3.706,11.322
							c0.08,0.362,0.014,0.178,0.15,0.525c-0.271,0.272-0.523,0.612-0.418,0.859c0.115,0.272,0.542,0.252,0.852,0.213
							c0.027-0.003,0.05-0.015,0.07-0.031c1.325,2.291,3.984,4.464,6.524,4.202c2.457-0.254,4.474-3.547,5.006-6.566
							C401.016,324.128,399.511,319.535,399.243,319.818z"/>
						<g>
							<path style="fill:#333072;" d="M391.287,327.576c0.414-0.536,0.721-1.327,0.35-2.377c-0.031-0.086-0.125-0.132-0.212-0.101
								c-0.085,0.03-0.132,0.125-0.101,0.212c0.661,1.875-1.109,2.782-1.185,2.821c-0.082,0.04-0.115,0.14-0.075,0.223
								c0.041,0.082,0.14,0.115,0.222,0.075C390.297,328.422,390.851,328.14,391.287,327.576z"/>
						</g>
						<g>
							<path style="fill:#333072;" d="M389.688,324.5c0.179,0.52,0.118,1.013-0.136,1.101c-0.254,0.087-0.605-0.264-0.784-0.784
								c-0.179-0.521-0.118-1.014,0.136-1.101C389.158,323.628,389.509,323.979,389.688,324.5z"/>
						</g>
						<g>
							<path style="fill:#333072;" d="M390.095,322.573c0.005-0.004,0.009-0.008,0.013-0.013c0.063-0.066,0.061-0.171-0.006-0.235
								c-0.792-0.754-1.613-0.369-1.942-0.063c-0.066,0.063-0.069,0.167-0.007,0.234c0.063,0.067,0.159,0.076,0.234,0.008
								c0.023-0.022,0.725-0.661,1.485,0.062C389.936,322.625,390.031,322.627,390.095,322.573z"/>
						</g>
					</g>
				</g>
				<path style="fill:#333072;" d="M442.855,439.555c1.898,5.009-2.293,4.973-12.069,4.941c-1.359-0.013-2.309-1.447-0.002-2.159
					l7.056-3.067c0,0,4.184-0.045,4.896,0L442.855,439.555z"/>
				<path style="fill:#4546CF;" d="M420.427,365.202l10.979-7.875v0c4.552,4.685,6.441,11.354,5.002,17.726
					c-0.594,2.629-1.072,5.031-1.078,6.206c-0.098,18.817,2.125,38.408,7.406,58.012h-4.896
					C428.689,419.079,422.788,393.974,420.427,365.202z"/>
				<path style="fill:#9BB4FE;" d="M415.037,368.724l16.827-10.996c-10.483-9.005-13.351-22.144-20.767-26.792
					c-2.821-1.768-5.755-2.557-8.849-1.956c-4.547,0.883-7.499,5.501-6.273,9.968c0.748,2.726,3.009,5.579,5.753,8.643
					c4.326,4.831,7.912,10.276,10.799,16.082L415.037,368.724z"/>
				<path style="fill:#4546CF;" d="M415.037,368.724c-14.109,22.188-10.728,45.098,10.142,68.731l4.209-0.933l-9.972-21.408
					c-3.975-8.534-4.237-18.333-0.723-27.066l13.172-30.32L415.037,368.724z"/>
				<path style="fill:#333072;" d="M429.388,436.522l-4.209,0.933l-1.203,3.945c-0.407,1.222-1.325,2.216-2.525,2.685
					c-0.242,0.095-0.484,0.216-0.704,0.37c-0.746,0.522-0.318,1.71,0.592,1.704l2.35-0.016c1.443-0.01,2.785-0.741,3.577-1.948
					l2.572-3.92C429.838,440.276,431.396,438.481,429.388,436.522z"/>
				<g>
					<path style="fill:#B38273;" d="M398.622,345.937l-7.627-6.207c-6.926,5.695-16.406,9.635-26.221,12.251l0.322,0.788
						l-0.321-0.784c-1.684-0.257-2.919-0.259-3.825-0.126c-1.189,0.175-1.197,1.888-0.013,2.09l1.438,0.422l-1.463,0.609
						c-1.181,0.386-2.057,0.863-2.706,1.356c-1.811,1.376-0.718,4.375,1.548,4.186c3.466-0.29,6.671-4.515,6.671-4.515l0-0.001
						C377.713,354.334,390.454,351.514,398.622,345.937z"/>
					<path style="fill:#9BB4FE;" d="M406.096,334.375c0.172,0.846,0.108,1.762-0.243,2.66c-0.668,1.692-1.585,3.282-2.689,4.703
						c-1.112,1.434-2.432,2.703-3.913,3.766c-0.209,0.151-0.419,0.292-0.63,0.433l-7.627-6.207c2.565-2.099,4.776-4.442,6.531-7.051
						c0.851-1.272,2.258-2.058,3.782-2.107C403.742,330.502,405.658,332.223,406.096,334.375z"/>
				</g>
				<g>
					<path style="fill:#4546CF;" d="M404.503,320.626c-0.19-0.316-0.57-0.614-0.884-0.793c-0.536-0.306-0.507-0.114-0.652-0.72
						c-0.343-1.438-0.61-2.707-1.413-4.026c-0.402-0.662-2.651-3.203-3.458-1.62c0.058-1.251-1.254-3.097-2.482-3.57
						c-1.152-0.443-2.457,0.66-2.384,1.867c-0.88-0.464-2.169-0.577-3.126-0.372c-0.61,0.13-2.602,0.982-1.948,1.915
						c-1.25,0.402-2.519,1.165-2.919,2.527c-0.089,0.302-0.248,0.707-0.391,1.133c-0.347,1.035,0.758,1.963,1.729,1.465l0,0
						c-0.229,0.584-0.656,1.232,0.147,1.671c0.778,0.425,1.658-0.248,2.185,0.034c0.42,0.225,0.509,0.625,1.07,0.747
						c0.349,0.076,0.833,0.051,1.194,0.014c0.761-0.078,1.476-0.544,2.054-0.995c-0.16,1.821,0.692,3.146,2.741,2.677
						c-0.342,1.686-0.891,3.266,0.843,4.312c0.662,0.399,1.585,0.745,2.357,0.47c0.358-0.127,0.608-0.474,0.941-0.666
						c0.22-0.126,0.105-0.158,0.342-0.216c0.203-0.05,0.557,0.07,0.772,0.08c1.903,0.094,3.21-1.524,3.48-3.313
						C404.817,322.465,404.931,321.34,404.503,320.626z"/>
				</g>
				<ellipse style="fill:#B38273;" cx="395.2" cy="322.612" rx="1.4" ry="2.165"/>
			</g>
		</g>
	</g>
	<g>
		<path style="fill:#F2F2F2;" d="M96.705,452.601c0,1.163-15.752,2.107-35.184,2.107s-35.184-0.943-35.184-2.107
			c0-1.163,15.753-2.107,35.184-2.107S96.705,451.438,96.705,452.601z"/>
		<g>
			<g>
				<g>
					<path style="fill:#333072;" d="M67.94,325.844c-1.031-1.953-2.292-3.807-3.318-5.748l-1.437,11.64c0,0,2.141,0.187,2.833,0.307
						c0.677,0.117,2.556,0.084,2.979,0.687C70.117,330.641,68.939,327.738,67.94,325.844z"/>
				</g>
				<g>
					<path style="fill:#333072;" d="M56.448,319.652l-1.437,11.64c0,0,2.141,0.187,2.833,0.307c0.677,0.117,2.556,0.084,2.979,0.687
						c1.119-2.089-0.058-4.992-1.057-6.886C58.735,323.446,57.474,321.593,56.448,319.652z"/>
				</g>
			</g>
			<g>
				<g>
					<path style="fill:#B38273;" d="M77.097,338.114c0,0-3.795-2.596-2.837-3.461c0.256-0.229,2.206,1.587,3.651,2.423
						L77.097,338.114z"/>
					<g>
						<path style="fill:#4546CF;" d="M86.427,320.64c-3.983,1.942-9.525,5.354-15.595,5.981l0.146,4.84
							c6.499-0.797,11.169,1.545,15.856,2.678L86.427,320.64z"/>
						<path style="fill:#333072;" d="M86.839,334.145c-0.821,0.021-1.567-1.45-1.962-3.753c-0.16-0.874-0.256-1.866-0.288-2.943
							c-0.032-1.109,0.011-2.143,0.117-3.039c0.256-2.26,0.906-3.742,1.717-3.774c1.13-0.032,2.132,2.793,2.25,6.696
							C88.79,331.223,87.958,334.102,86.839,334.145z"/>
						<path style="fill:#A5D0FE;" d="M85.079,330.455c-0.075,0-0.139-0.021-0.203-0.064c-0.16-0.874-0.256-1.866-0.288-2.943
							c-0.032-1.109,0.011-2.143,0.117-3.039c0.064-0.053,0.128-0.085,0.192-0.085c0.512-0.011,0.959,1.269,1.013,3.039
							C85.964,329.133,85.591,330.434,85.079,330.455z"/>
						<path style="fill:#4546CF;" d="M72.122,328.871c0.029,0.969-0.732,1.778-1.701,1.807c-0.969,0.029-1.778-0.733-1.807-1.701
							c-0.029-0.969,0.732-1.778,1.701-1.807C71.284,327.141,72.093,327.903,72.122,328.871z"/>
						<path style="fill:#333072;" d="M71.015,331.971L71.015,331.971c-0.305,0.009-0.563-0.233-0.572-0.538l-0.14-4.662
							c-0.009-0.305,0.233-0.563,0.538-0.572l0,0c0.305-0.009,0.563,0.233,0.572,0.538l0.14,4.662
							C71.563,331.705,71.321,331.962,71.015,331.971z"/>
						<path style="fill:#4546CF;" d="M75.961,338.2L75.961,338.2c-0.563,0.017-1.032-0.425-1.049-0.988l-0.225-7.463l2.037-0.061
							l0.225,7.463C76.966,337.714,76.523,338.183,75.961,338.2z"/>
					</g>
					<path style="fill:#B38273;" d="M83.614,354.903l-4.25-16.789c0,0,0.674-5.503-3.717-6.116c-1.51-0.211-2.306,1.792-1.066,2.678
						c0.375,0.268,0.901,0.508,1.631,0.69c0.741,0.185,1.207,0.926,1.074,1.678l-0.189,1.07H77.1l1.546,13.957l-6.877-10.516
						l-2.964-4.531c-0.821-1.365-2.005-2.1-3.113-2.1c-1.088,0-2.1,0.704-2.655,2.164c-0.49,1.301-0.224,2.772,0.693,3.817
						l3.348,4.403l8.288,10.019C80.249,361.318,84.18,358.795,83.614,354.903z"/>
				</g>
				<path style="fill:#E37483;" d="M71.769,341.555c-1.876,1.066-3.7,2.761-4.691,3.753l-3.348-4.403
					c-0.917-1.045-1.183-2.516-0.693-3.817c0.554-1.461,1.567-2.164,2.655-2.164c1.109,0,2.292,0.736,3.113,2.1L71.769,341.555z"/>
			</g>
			<g>
				<path style="fill:#B38273;" d="M73.962,376.34c0.003-0.014,0.006-0.029,0.008-0.044
					C73.971,376.292,73.963,376.336,73.962,376.34z"/>
				<path style="fill:#B38273;" d="M75.738,368.42C75.809,368.134,75.76,368.359,75.738,368.42L75.738,368.42z"/>
			</g>
			<path style="fill:#F3D559;" d="M56.628,336.671"/>
			<path style="fill:#B38273;" d="M66.839,341.961c-5.288-0.49-8.338-4.254-9.585-6.344l0.874-1.471
				c0.544-0.906,0.981-1.855,1.322-2.857l0.949-2.793l3.817,1.642c-0.501,1.386-0.427,2.804,0.139,4.254
				c0.256,0.672,0.789,1.226,1.418,1.567l0.021,0.011l1.482,0.693C70.955,341.492,66.839,341.961,66.839,341.961z"/>
			<g>
				<path style="fill:#B38273;" d="M55.839,327.844c-0.692-0.964-0.992-2.492-0.137-2.942c0.255-0.134,0.598-0.163,0.967-0.112
					c-0.609-3.312,0.22-7.635,2.358-8.758c2.798-1.47,5.913-1.095,9.511,6.237c1.424,2.901,0.723,6.883-1.917,8.579
					c-1.984,1.275-5.45,0.02-7.647-1.915C57.915,329.061,56.716,329.066,55.839,327.844z"/>
				<g>
					<g>
						<g>
							<path style="fill:#333072;" d="M66.336,325.154c0.014-0.004,0.027-0.01,0.04-0.017c0.316-0.193,0.725-0.487,0.632-0.824
								c-0.13-0.468-1.193-0.521-1.644-0.523c-0.095,0.001-0.172,0.077-0.173,0.172c0,0.095,0.076,0.172,0.172,0.173
								c0.637,0.002,1.276,0.134,1.313,0.271c0,0.001,0.012,0.138-0.478,0.436c-0.081,0.05-0.107,0.156-0.058,0.237
								C66.18,325.147,66.262,325.176,66.336,325.154z"/>
						</g>
					</g>
					<g>
						<g>
							<path style="fill:#333072;" d="M66.814,327.209c0.18-0.075,0.287-0.134,0.291-0.137c0.094-0.054,0.126-0.174,0.073-0.267
								c-0.055-0.093-0.166-0.132-0.268-0.073c-0.085,0.05-2.142,1.194-3.55-0.684c-0.065-0.087-0.186-0.106-0.275-0.039
								c-0.086,0.065-0.104,0.188-0.039,0.274C64.332,327.998,66.12,327.495,66.814,327.209z"/>
						</g>
					</g>
					<path style="fill:#333072;" d="M62.111,323.937"/>
					<g>
						<g>
							<path style="fill:#333072;" d="M60.389,323.278c0.071-0.021,0.127-0.083,0.138-0.161c0.171-1.234,1.28-1.153,1.327-1.15
								c0.108,0.009,0.202-0.07,0.212-0.178c0.009-0.108-0.071-0.203-0.179-0.212c-0.527-0.046-1.572,0.208-1.749,1.486
								c-0.015,0.107,0.06,0.206,0.168,0.221C60.334,323.288,60.362,323.286,60.389,323.278z"/>
						</g>
					</g>
					<g>
						<g>
							<path style="fill:#333072;" d="M65.067,320.614c0.057,0.025,0.126,0.017,0.176-0.027c0.787-0.69,1.447-0.03,1.475-0.001
								c0.063,0.065,0.167,0.066,0.233,0.003c0.065-0.064,0.066-0.168,0.003-0.233c-0.31-0.318-1.113-0.731-1.927-0.016
								c-0.068,0.06-0.075,0.164-0.015,0.232C65.027,320.591,65.046,320.604,65.067,320.614z"/>
						</g>
					</g>
					<path style="fill:#333072;" d="M62.219,323.824c0.152,0.427,0.44,0.715,0.643,0.642c0.203-0.072,0.245-0.477,0.093-0.904
						c-0.152-0.427-0.44-0.715-0.643-0.642C62.108,322.992,62.067,323.397,62.219,323.824z"/>
					<path style="fill:#333072;" d="M65.951,322.496c0.152,0.427,0.44,0.715,0.643,0.642c0.203-0.072,0.245-0.477,0.093-0.904
						c-0.152-0.427-0.44-0.715-0.643-0.642C65.84,321.664,65.799,322.069,65.951,322.496z"/>
				</g>
			</g>
			<path style="fill:#333072;" d="M65.991,445.701l-0.006-0.036l0.005,0.004c0.023-0.475,0.174-0.983,0.415-1.533
				c0.164-0.383,0.502-0.939,0.676-1.54l3.476,0.661c0.003,0.013-0.008,0.028-0.005,0.041c0.401,1.439,0.649,2.331,0.955,3.238
				c0.486,1.395,1.206,1.894,2.491,2.32c0.29,0.103,0.75,0.116,1.04,0.219c1.225,0.397,1.294,1.666,1.104,2.916l-3.227,0.591
				c-1.161,0.115-1.845-0.338-2.384-1.197c-0.751-1.198-1.655-2.169-2.676-3.021l-0.091,3.786h-0.71l-0.915-5.561
				C66.025,446.307,65.979,446.012,65.991,445.701z"/>
			<path style="fill:#333072;" d="M43.35,450.498l1.074-4.833l0,0c0.096-0.671,0.508-1.282,1.147-1.902
				c0.297-0.293,0.799-0.533,1.187-1.023l2.988,1.781c-0.002,0.013-0.018,0.023-0.02,0.036c-0.174,1.484-0.281,2.403-0.341,3.358
				c-0.078,1.475,0.4,2.21,1.428,3.09c0.23,0.204,0.651,0.392,0.88,0.596c0.984,0.831,0.567,2.032-0.081,3.117l-3.211-0.673
				c-1.118-0.333-1.58-1.011-1.753-2.01c-0.236-1.356-0.684-2.568-1.282-3.715l-1.479,2.604L43.35,450.498z"/>
			<path style="fill:#E37483;" d="M56.629,336.661l0.629-1.045c2.559-0.983,4.489,3.337,8.647,4.116
				c1.759,0.331,2.857-1.951,1.429-3.028c-0.021-0.011-0.043-0.021-0.053-0.043l0.555,0.256c1.546,0.768,3.071,1.546,4.243,2.602
				c1.482,1.322,2.388,3.049,1.994,5.704l-1.514,5.853c-0.618,2.676-0.522,5.267-0.064,7.826H61.48
				c-1.088-5.128-5.299-13.562-5.523-14.873C55.403,340.744,57.184,339.945,56.629,336.661z"/>
			<path style="fill:#4546CF;" d="M77.399,400.419c0.586,10.321-6.792,42.658-6.845,42.882c-1.205-0.117-2.292-0.288-3.497-0.384
				c1.375-6.099,0.874-19.469,0.768-21.036c-0.117-1.567-0.043-3.465,1.546-4.371c0,0-0.522-8.156-1.312-16.633
				c-0.554-5.949-1.226-12.069-1.951-15.62c-0.554,4.723-1.301,10.427-2.1,15.758c-1.13,7.666-2.346,14.596-3.124,16.857
				c-3.209,9.286-7.389,19.437-11.142,26.644c-1.013-0.618-1.972-1.141-2.985-1.781c3.806-5.544,4.371-25.439,8.252-24.938
				c0.203-5.064-2.036-34.822-1.354-38.394c0.629-3.337,1.706-6.632,3.444-9.564c1.589-2.665,3.998-4.979,4.563-8.124h11.472
				c1.546,5.757,4.307,11.462,4.243,17.709c0,0.128,0-0.011,0,0.149c-0.053,8.252,0.139,9.308,0.085,18.221v0.096
				c0.011,0.192,0.011,0.363,0.011,0.533C77.473,398.798,77.367,399.833,77.399,400.419z"/>
			<path style="fill:#B38273;" d="M62.12,384.17c0,0-2.996,2.868-7.399-4.979l-10.726-16.952c-1.333-2.09-1.386-4.755-0.16-6.898
				l7.111-12.442l2.346-4.105c3.764-6.642,10.459-2.665,5.267,4.734l-2.506,3.892l-7.037,10.928l8.124,19.213l4.755,3.284
				c0,0-0.458,0.96-2.25,0.149C59.647,380.993,63.357,383.008,62.12,384.17z"/>
			<path style="fill:#E37483;" d="M58.559,343.527l-2.506,3.892c-1.183-1.994-3.785-3.721-5.107-4.521l2.346-4.105
				C57.056,332.151,63.751,336.128,58.559,343.527z"/>
			<path style="fill:#333072;" d="M61.683,361.599c0.117-0.693,0.021-1.621-0.202-2.697h11.014c0.171,0.949,0.394,1.876,0.64,2.815
				H61.662C61.672,361.674,61.672,361.642,61.683,361.599z"/>
			<g>
				<path style="fill:#333072;" d="M64.993,316.921c0.512-0.056,0.07,1.476-0.267,1.732c-0.74,0.562-1.595,0.257-2.322,0.009
					c0.068,2.061-2.075,2.507-3.722,2.6c1.003,1.373,1.807,4.243,0.112,5.322c-0.444,0.282-0.882,0.206-0.788,0.813
					c0.612,3.967,4.581,6.16,4.581,6.16c-2.073,0.874-8.367-2.193-8.367-2.193c-0.307-0.307-5.198-5.396-1.599-13.711
					c1.373-3.173,5.691-3.284,8.174-3.398c1.374-0.063,3.397,0.291,4.535,1.117c0.528,0.383,0.892,1.141,1.131,1.736
					c0.275,0.684,0.003,1.348-0.801,0.746"/>
			</g>
		</g>
	</g>
	<g>
		<path style="fill:#EDC6C9;" d="M160.028,254.053c-2.953-1.834-3.881-7.058-3.881-7.058c-7.346-5.246-15.182-11.536-20.471-18.242
			c-1.578-1.994-2.932-4.02-3.977-6.056c-1.375-2.698-2.111-5.672-2.111-8.689c0-0.618,0.032-1.237,0.096-1.855
			c0.33-3.38,4.009-5.32,6.983-3.689c1.343,0.746,2.228,2.079,2.41,3.593c0.586,4.872,2.463,9.692,5.224,14.34
			c3.764,6.355,9.169,12.389,15.14,17.773c1.621,0.533,2.719,1.098,3.465,1.621c0.981,0.704,0.202,2.228-0.938,1.876l-1.471-0.288
			l1.024,1.215c0.874,0.874,1.439,1.706,1.791,2.442C164.293,253.082,161.958,255.258,160.028,254.053z"/>
		<path style="fill:#E37483;" d="M144.302,226.396l-8.626,2.356c-1.578-1.994-2.932-4.02-3.977-6.056
			c-1.375-2.698-2.111-5.672-2.111-8.689c0-0.618,0.032-1.237,0.096-1.855c0.33-3.38,4.009-5.32,6.983-3.689
			c1.343,0.746,2.228,2.079,2.41,3.593C139.664,216.928,141.541,221.747,144.302,226.396z"/>
		<path style="fill:#333072;" d="M200.825,254.825c-2.473-11.64,5.635-23.069,17.816-24.291c9.168-0.92,17.97,4.7,20.984,13.407
			c2.365,6.832,0.899,13.844-3.053,18.993l44.519-9.458l-9.703-45.672c-3.016,5.844-8.839,10.167-16.106,10.862
			c-9.234,0.883-18.054-4.87-20.972-13.675c-3.857-11.635,3.293-23.699,14.942-26.174c6.164-1.309,12.266,0.347,16.827,3.998
			l-9.574-45.067l-89.807,19.079c-14.163,3.009-23.205,16.929-20.196,31.092l19.138,90.084l45.316-9.627
			C205.945,265.654,202.103,260.839,200.825,254.825z"/>
		<g>
			<path style="fill:#E4AAAF;" d="M130.968,196.642c0,0-1.46,5.001-2.003,9.353c-0.256,2.049,4.982,4.456,5.198,4.375
				c0.257-0.096,0.456-0.343,0.437-0.665c-0.123-2.14-0.048-5.937,1.614-8.85L130.968,196.642z"/>
			<g>
				<path style="fill:#EDC6C9;" d="M129.001,199.13c1.471,2.691,4.435,5.164,6.844,4.618c2.49-0.564,4.313-3.474,4.835-6.069
					c0.024,0.008,0.05,0.012,0.076,0.007c0.307-0.063,0.717-0.18,0.739-0.475c0.02-0.268-0.328-0.508-0.671-0.68
					c0.018-0.372,0.014-0.176-0.026-0.546c-0.923-8.505-3.855-9.987-7.135-9.54c-1.41,0.192-2.779,1.526-3.801,3.282
					C128.031,192.873,128.493,198.337,129.001,199.13z"/>
				<g>
					<path style="fill:#333072;" d="M138.234,199.028c-0.564-0.376-1.108-1.027-1.093-2.14c0.001-0.091,0.077-0.165,0.168-0.164
						c0.09,0.001,0.165,0.076,0.164,0.168c-0.026,1.988,1.942,2.281,2.026,2.293c0.091,0.012,0.154,0.096,0.142,0.187
						c-0.012,0.091-0.096,0.154-0.187,0.142C139.442,199.513,138.827,199.423,138.234,199.028z"/>
				</g>
				<g>
					<path style="fill:#333072;" d="M138.763,195.602c-0.003,0.55,0.212,0.998,0.481,0.999c0.269,0.001,0.489-0.444,0.492-0.994
						c0.003-0.551-0.212-0.998-0.481-1C138.986,194.607,138.766,195.052,138.763,195.602z"/>
				</g>
				<g>
					<path style="fill:#333072;" d="M137.761,193.907c-0.006-0.002-0.011-0.005-0.017-0.008c-0.081-0.043-0.112-0.143-0.07-0.224
						c0.509-0.968,1.411-0.866,1.82-0.681c0.083,0.038,0.119,0.136,0.081,0.219c-0.038,0.084-0.127,0.123-0.22,0.082
						c-0.028-0.013-0.899-0.394-1.387,0.534C137.929,193.906,137.839,193.938,137.761,193.907z"/>
				</g>
			</g>
			<path style="fill:#333072;" d="M133.118,321.207c-1.898,5.009,1.962,5.091,11.738,5.06c1.359-0.013,2.309-1.447,0.002-2.159
				l-7.517-3.067c0,0-3.444-0.045-4.156,0L133.118,321.207z"/>
			<path style="fill:#333072;" d="M110.39,320.829c-1.898,5.009,2.293,4.973,12.069,4.941c1.358-0.013,2.309-1.447,0.002-2.159
				l-7.056-3.067c0,0-4.184-0.045-4.896,0L110.39,320.829z"/>
			<path style="fill:#4546CF;" d="M138.857,246.226H121.59c7.92,23.622,11.6,48.62,11.597,74.813h4.123
				C141.238,296.524,141.79,271.591,138.857,246.226z"/>
			<path style="fill:#4546CF;" d="M132.672,246.226h-13.916c-2.685,5.883,0.448,12.822,0.448,12.822
				c-0.015,19.846-3.162,40.957-8.694,61.497h4.896C124.555,300.353,130.311,274.999,132.672,246.226z"/>
			<path style="fill:#E37483;" d="M138.857,246.226h-20.101c3.849-13.273-0.938-25.84,2.728-33.788
				c1.394-3.023,3.419-5.288,6.338-6.478c4.29-1.748,9.286,0.503,10.704,4.913c0.865,2.691,0.533,6.316-0.088,10.382
				c-0.979,6.41-1.001,12.93-0.242,19.37L138.857,246.226z"/>
			<path style="fill:#EDC6C9;" d="M170.2,184.622c-1.834,2.953-7.058,3.892-7.058,3.892c-5.512,7.751-12.186,16.046-19.287,21.345
				l-2.633-8.679c6.845-3.796,13.338-9.553,19.085-15.961c0.533-1.61,1.098-2.719,1.621-3.465c0.704-0.981,2.228-0.203,1.876,0.938
				l-0.277,1.471l1.205-1.024c0.874-0.874,1.706-1.439,2.431-1.802C169.219,180.358,171.394,182.682,170.2,184.622z"/>
			<path style="fill:#E37483;" d="M143.854,209.859c-1.631,1.226-3.295,2.282-4.969,3.145c-2.719,1.397-5.715,2.132-8.753,2.132
				c-0.597,0-1.183-0.032-1.781-0.085c-3.38-0.331-5.331-4.009-3.7-6.984c0.736-1.343,2.068-2.239,3.593-2.42
				c4.403-0.533,8.753-2.122,12.976-4.467L143.854,209.859z"/>
			<g>
				<path style="fill:#333072;" d="M133.38,197.905c1.245-1.577,2.059-3.417,2.012-5.325c0.342,0.246,0.757,0.368,1.169,0.459
					c3.111,0.686,6.538-0.281,8.831-2.493c-3.216-1.639-5.62-3.953-7.179-4.777c-1.46-0.771-3.174-1.112-4.805-0.774
					c-0.473,0.098-0.949,0.257-1.355,0.523c-0.426,0.279-0.587,0.762-0.962,1.044c-0.182,0.137-0.435,0.099-0.663,0.081
					c-2.202-0.176-4.439,2.148-4.707,4.001C124.029,202.327,131.389,200.427,133.38,197.905z"/>
			</g>
		</g>
	</g>
</g>
<g id="DESIGNED_BY_FREEPIK">
	<g>
		<g>
			<g id="XMLID_319_">
				<g id="XMLID_338_">
					<path id="XMLID_346_" style="fill:#1D262D;" d="M260.104,465.465c-0.432,0.443-0.803,0.931-1.108,1.453l-0.465-0.241
						c-0.067-0.298-0.349-0.503-0.659-0.466c-0.331,0.039-0.568,0.339-0.529,0.67c0.039,0.331,0.339,0.568,0.67,0.529
						c0.065-0.008,0.127-0.026,0.183-0.052l0.452,0.234c-0.251,0.554-0.433,1.139-0.539,1.744l0.746,0.132
						c0.23-1.306,0.85-2.507,1.792-3.473L260.104,465.465z"/>
					<path id="XMLID_345_" style="fill:#1D262D;" d="M265.591,463.163c-0.171,0-0.341,0.006-0.51,0.017l-0.074-0.626
						c0.188-0.149,0.296-0.389,0.266-0.645c-0.046-0.393-0.402-0.674-0.795-0.628c-0.393,0.046-0.674,0.402-0.628,0.795
						c0.03,0.254,0.189,0.461,0.404,0.564l0.074,0.624c-0.714,0.116-1.403,0.332-2.06,0.646l0.327,0.684
						c0.934-0.447,1.942-0.673,2.995-0.673c0.496,0,0.993,0.053,1.475,0.158l0.161-0.741
						C266.692,463.222,266.142,463.163,265.591,463.163z"/>
					<path id="XMLID_344_" style="fill:#1D262D;" d="M272.194,465.711c0.331-0.04,0.566-0.341,0.525-0.672
						c-0.04-0.331-0.341-0.566-0.672-0.526c-0.309,0.038-0.535,0.304-0.53,0.609l-0.416,0.363c-0.418-0.43-0.889-0.813-1.408-1.139
						l-0.404,0.641c1.134,0.715,2.021,1.726,2.563,2.925l0.691-0.313c-0.251-0.554-0.568-1.072-0.942-1.545l0.402-0.351
						C272.064,465.716,272.128,465.719,272.194,465.711z"/>
					<path id="XMLID_343_" style="fill:#1D262D;" d="M265.044,473.372c-0.386,0.023-0.775,0.035-1.157,0.035
						c-0.88,0-1.733-0.061-2.478-0.179c-0.39-0.062-0.846-0.155-1.27-0.292c1.046,1.861,3.069,3.125,5.388,3.125
						c2.855,0,5.262-1.916,5.95-4.504c-0.682,0.449-1.505,0.825-2.459,1.123C267.838,473.047,266.463,473.286,265.044,473.372z"/>
					<path id="XMLID_339_" style="fill:#1D262D;" d="M265.591,464.68c-3.352,0-6.08,2.666-6.08,5.943
						c0,0.426,0.046,0.849,0.137,1.261c0.673,0.483,2.706,0.89,5.348,0.731c2.879-0.173,5.297-0.957,6.672-2.159
						c-0.005-0.195-0.021-0.39-0.045-0.582C271.243,466.913,268.65,464.68,265.591,464.68z M263.432,471.194
						c-1.02,0-1.85-0.83-1.85-1.85c0-1.02,0.83-1.85,1.85-1.85c1.02,0,1.85,0.83,1.85,1.85
						C265.282,470.365,264.452,471.194,263.432,471.194z M268.169,470.286c-0.75,0-1.36-0.61-1.36-1.36s0.61-1.361,1.36-1.361
						c0.75,0,1.361,0.61,1.361,1.361S268.92,470.286,268.169,470.286z"/>
				</g>
				<path id="XMLID_336_" style="fill:#1D262D;" d="M281.595,466.547c-0.295-0.116-0.806-0.309-1.382-0.237
					c-0.551,0.069-0.844,0.341-0.844,1.007v0.866h2.228v1.717h-2.228v5.455h-1.932v-5.455h-1.34v-1.717h1.34v-0.888
					c0-1.68,0.896-2.783,2.568-2.783c0.643,0,1.157,0.122,1.59,0.308L281.595,466.547z"/>
				<path id="XMLID_334_" style="fill:#1D262D;" d="M286.297,469.879c-0.177-0.03-0.358-0.046-0.526-0.046
					c-0.896,0-1.51,0.548-1.51,1.614v3.908h-1.932v-7.172h1.873v0.785c0.451-0.673,1.14-0.977,2.021-0.977
					c0.414,0,0.848,0.128,1.094,0.337L286.297,469.879z"/>
				<path id="XMLID_331_" style="fill:#1D262D;" d="M293.965,471.757c0,0.222-0.015,0.489-0.037,0.651h-5.085
					c0.207,1.036,0.933,1.488,1.843,1.488c0.622,0,1.295-0.252,1.813-0.688l1.132,1.243c-0.814,0.748-1.85,1.088-3.057,1.088
					c-2.198,0-3.723-1.495-3.723-3.753c0-2.258,1.48-3.797,3.627-3.797C292.544,467.99,293.957,469.522,293.965,471.757z
					 M288.85,471.091h3.175c-0.177-0.918-0.733-1.436-1.562-1.436C289.553,469.655,289.021,470.203,288.85,471.091z"/>
				<path id="XMLID_328_" style="fill:#1D262D;" d="M301.618,471.757c0,0.222-0.015,0.489-0.037,0.651h-5.085
					c0.207,1.036,0.932,1.488,1.843,1.488c0.622,0,1.295-0.252,1.813-0.688l1.132,1.243c-0.814,0.748-1.85,1.088-3.057,1.088
					c-2.198,0-3.723-1.495-3.723-3.753c0-2.258,1.48-3.797,3.627-3.797C300.197,467.99,301.611,469.522,301.618,471.757z
					 M296.504,471.091h3.175c-0.178-0.918-0.733-1.436-1.562-1.436C297.207,469.655,296.674,470.203,296.504,471.091z"/>
				<path id="XMLID_325_" style="fill:#1D262D;" d="M309.964,471.764c0,2.154-1.495,3.775-3.471,3.775
					c-0.962,0-1.643-0.378-2.109-0.933v3.708h-1.924v-10.133h1.887v0.792c0.466-0.585,1.155-0.984,2.139-0.984
					C308.469,467.99,309.964,469.61,309.964,471.764z M304.287,471.764c0,1.132,0.747,1.976,1.843,1.976
					c1.14,0,1.85-0.881,1.85-1.976c0-1.095-0.71-1.976-1.85-1.976C305.034,469.788,304.287,470.632,304.287,471.764z"/>
				<path id="XMLID_322_" style="fill:#1D262D;" d="M313.067,465.836c0,0.696-0.54,1.229-1.236,1.229
					c-0.696,0-1.229-0.533-1.229-1.229c0-0.696,0.533-1.243,1.229-1.243C312.527,464.592,313.067,465.14,313.067,465.836z
					 M312.808,475.354h-1.932v-7.172h1.932V475.354z"/>
				<path id="XMLID_320_" style="fill:#1D262D;" d="M316.032,470.736l2.702-2.554h2.368l-3.479,3.375l3.501,3.797h-2.376
					l-2.716-2.901v2.901H314.1v-10.658h1.932V470.736z"/>
			</g>
			<g>
				<path style="fill:#1D262D;" d="M184.412,475.289v-1.055c-0.527,0.718-1.391,1.23-2.387,1.23c-1.846,0-3.149-1.406-3.149-3.706
					c0-2.256,1.289-3.721,3.149-3.721c0.952,0,1.816,0.469,2.387,1.245v-3.765h1.099v9.77H184.412z M184.412,473.37v-3.208
					c-0.395-0.615-1.245-1.143-2.124-1.143c-1.421,0-2.27,1.172-2.27,2.739c0,1.567,0.85,2.724,2.27,2.724
					C183.167,474.483,184.017,473.986,184.412,473.37z"/>
				<path style="fill:#1D262D;" d="M186.932,471.744c0-2.051,1.465-3.706,3.486-3.706c2.139,0,3.398,1.67,3.398,3.794v0.279h-5.727
					c0.088,1.333,1.025,2.446,2.549,2.446c0.805,0,1.626-0.322,2.182-0.894l0.527,0.718c-0.703,0.703-1.655,1.084-2.812,1.084
					C188.44,475.465,186.932,473.956,186.932,471.744z M190.403,468.947c-1.509,0-2.256,1.274-2.314,2.358h4.643
					C192.717,470.25,192.014,468.947,190.403,468.947z"/>
				<path style="fill:#1D262D;" d="M194.607,474.351l0.571-0.791c0.469,0.542,1.362,1.011,2.329,1.011
					c1.084,0,1.67-0.513,1.67-1.216c0-1.714-4.38-0.659-4.38-3.281c0-1.098,0.952-2.036,2.636-2.036
					c1.201,0,2.051,0.454,2.622,1.026l-0.513,0.762c-0.425-0.513-1.201-0.894-2.109-0.894c-0.967,0-1.567,0.483-1.567,1.113
					c0,1.552,4.38,0.527,4.38,3.281c0,1.187-0.952,2.138-2.783,2.138C196.306,475.465,195.324,475.113,194.607,474.351z"/>
				<path style="fill:#1D262D;" d="M201.477,466.471c0-0.41,0.337-0.747,0.732-0.747c0.41,0,0.747,0.337,0.747,0.747
					c0,0.41-0.337,0.732-0.747,0.732C201.814,467.203,201.477,466.881,201.477,466.471z M201.667,475.289v-7.075h1.099v7.075
					H201.667z"/>
				<path style="fill:#1D262D;" d="M204.582,477.105l0.556-0.82c0.586,0.703,1.289,0.967,2.3,0.967c1.172,0,2.27-0.571,2.27-2.124
					v-1.011c-0.513,0.718-1.377,1.26-2.373,1.26c-1.845,0-3.149-1.377-3.149-3.662c0-2.27,1.289-3.677,3.149-3.677
					c0.952,0,1.802,0.469,2.373,1.245v-1.069h1.099v6.87c0,2.344-1.641,3.076-3.369,3.076
					C206.237,478.16,205.416,477.926,204.582,477.105z M209.708,473.253v-3.091c-0.381-0.615-1.23-1.143-2.109-1.143
					c-1.421,0-2.27,1.128-2.27,2.695c0,1.553,0.849,2.695,2.27,2.695C208.478,474.41,209.327,473.868,209.708,473.253z"/>
				<path style="fill:#1D262D;" d="M217.413,475.289v-4.629c0-1.245-0.63-1.641-1.582-1.641c-0.864,0-1.685,0.527-2.095,1.099v5.17
					h-1.099v-7.075h1.099v1.025c0.498-0.586,1.464-1.201,2.519-1.201c1.48,0,2.256,0.747,2.256,2.285v4.966H217.413z"/>
				<path style="fill:#1D262D;" d="M219.932,471.744c0-2.051,1.465-3.706,3.486-3.706c2.139,0,3.398,1.67,3.398,3.794v0.279h-5.727
					c0.088,1.333,1.025,2.446,2.549,2.446c0.806,0,1.626-0.322,2.183-0.894l0.527,0.718c-0.703,0.703-1.655,1.084-2.812,1.084
					C221.441,475.465,219.932,473.956,219.932,471.744z M223.404,468.947c-1.509,0-2.256,1.274-2.314,2.358h4.643
					C225.718,470.25,225.015,468.947,223.404,468.947z"/>
				<path style="fill:#1D262D;" d="M233.35,475.289v-1.055c-0.527,0.718-1.392,1.23-2.388,1.23c-1.846,0-3.149-1.406-3.149-3.706
					c0-2.256,1.289-3.721,3.149-3.721c0.952,0,1.817,0.469,2.388,1.245v-3.765h1.098v9.77H233.35z M233.35,473.37v-3.208
					c-0.396-0.615-1.245-1.143-2.124-1.143c-1.421,0-2.27,1.172-2.27,2.739c0,1.567,0.849,2.724,2.27,2.724
					C232.105,474.483,232.954,473.986,233.35,473.37z"/>
				<path style="fill:#1D262D;" d="M239.692,475.289v-9.77h1.098v3.765c0.572-0.776,1.421-1.245,2.388-1.245
					c1.845,0,3.149,1.465,3.149,3.721c0,2.299-1.304,3.706-3.149,3.706c-0.996,0-1.86-0.513-2.388-1.23v1.055H239.692z
					 M242.899,474.483c1.436,0,2.286-1.157,2.286-2.724c0-1.568-0.85-2.739-2.286-2.739c-0.864,0-1.728,0.527-2.109,1.143v3.208
					C241.171,473.986,242.035,474.483,242.899,474.483z"/>
				<path style="fill:#1D262D;" d="M247.528,477.061c0.161,0.073,0.425,0.117,0.601,0.117c0.483,0,0.805-0.161,1.055-0.747
					l0.469-1.069l-2.959-7.148h1.187l2.358,5.8l2.344-5.8h1.201l-3.545,8.51c-0.425,1.025-1.143,1.421-2.08,1.435
					c-0.234,0-0.601-0.044-0.805-0.103L247.528,477.061z"/>
			</g>
		</g>
	</g>
</g>
</svg>
