<svg width="2518" height="1716" viewBox="0 0 2518 1716" fill="none" xmlns="http://www.w3.org/2000/svg">
<path d="M136.449 1714.87H2516.81" stroke="#315782" stroke-miterlimit="10" stroke-linecap="round"/>
<path d="M2070.49 1672.24H582.771V725.065C582.771 703.91 599.921 686.76 621.076 686.76H2032.19C2053.34 686.76 2070.49 703.91 2070.49 725.065L2070.49 1672.24Z" fill="url(#paint0_linear_52_1398)"/>
<path d="M1956.39 1627.43H696.874C675.028 1627.43 657.316 1609.72 657.316 1587.87V798.414C657.316 776.567 675.028 758.855 696.874 758.855H1956.39C1978.23 758.855 1995.94 776.567 1995.94 798.414V1587.87C1995.94 1609.72 1978.23 1627.43 1956.39 1627.43Z" fill="white"/>
<path d="M2119.99 1714.87H533.281C510.967 1714.87 492.877 1696.78 492.877 1674.46V1666.35C492.877 1644.04 510.967 1625.95 533.281 1625.95H2119.99C2142.3 1625.95 2160.39 1644.04 2160.39 1666.35V1674.46C2160.39 1696.78 2142.3 1714.87 2119.99 1714.87Z" fill="url(#paint1_linear_52_1398)"/>
<path d="M420.724 921.542C476.703 841.774 457.418 731.729 377.65 675.75C297.882 619.772 187.838 639.056 131.859 718.824C75.8799 798.592 95.1647 908.637 174.933 964.616C254.701 1020.59 364.745 1001.31 420.724 921.542Z" fill="#5AB03B"/>
<path d="M414.545 958.401C490.86 882.085 490.86 758.353 414.545 682.038C338.229 605.722 214.497 605.722 138.182 682.038C61.866 758.353 61.866 882.085 138.182 958.401C214.497 1034.72 338.229 1034.72 414.545 958.401Z" stroke="#5AB03B" stroke-width="0.5" stroke-miterlimit="10"/>
<path d="M281.33 911.161C278.733 913.758 274.521 913.758 271.924 911.161L207.513 846.751C141.174 780.412 217.706 720.154 273 783.914C274.811 786.002 278.111 786.008 279.691 783.742C326.39 716.77 412.209 780.282 345.74 846.751L281.33 911.161Z" fill="white"/>
<path d="M1576.41 383.995C1591.87 287.776 1526.41 197.238 1430.19 181.771C1333.97 166.305 1243.43 231.768 1227.97 327.986C1212.5 424.205 1277.96 514.743 1374.18 530.21C1470.4 545.676 1560.94 480.213 1576.41 383.995Z" fill="#5AB03B"/>
<path d="M1471.09 538.892C1572.11 500.891 1623.2 388.192 1585.2 287.171C1547.2 186.151 1434.5 135.064 1333.48 173.066C1232.46 211.067 1181.37 323.766 1219.37 424.786C1257.37 525.806 1370.07 576.893 1471.09 538.892Z" stroke="#5AB03B" stroke-width="0.5" stroke-miterlimit="10"/>
<path d="M1440.86 459.323C1497.96 437.998 1526.95 374.427 1505.63 317.333C1484.3 260.239 1420.73 231.242 1363.64 252.567C1306.54 273.892 1277.55 337.463 1298.87 394.557C1320.2 451.651 1383.77 480.648 1440.86 459.323Z" stroke="white" stroke-miterlimit="10"/>
<path d="M1360.2 355.957V314.138C1360.2 305.312 1369.75 299.799 1377.39 304.212L1413.61 325.118L1449.82 346.024C1457.47 350.437 1457.47 361.47 1449.82 365.883L1413.61 386.789L1377.39 407.696C1369.75 412.109 1360.2 406.595 1360.2 397.763V355.957Z" fill="white"/>
<path d="M914.586 383.979C930.052 287.761 864.59 197.222 768.371 181.756C672.153 166.289 581.614 231.752 566.148 327.971C550.681 424.189 616.144 514.728 712.363 530.194C808.581 545.66 899.12 480.198 914.586 383.979Z" fill="#5AB03B"/>
<path d="M810.372 538.496C911.155 499.869 961.542 386.855 922.914 286.072C884.287 185.289 771.273 134.903 670.49 173.53C569.707 212.157 519.32 325.171 557.948 425.954C596.575 526.737 709.589 577.124 810.372 538.496Z" stroke="#5AB03B" stroke-width="0.5" stroke-miterlimit="10"/>
<path d="M755.345 274.753L709.776 360.3C705.54 368.245 704.121 375.367 705.517 381.656C706.907 387.95 711.367 393.097 718.898 397.114C726.429 401.125 733.279 401.953 739.455 399.604C745.625 397.256 750.796 392.18 754.954 384.371L800.523 298.824L841.519 320.659L795.95 406.206C788.745 419.73 779.741 429.751 768.939 436.252C758.131 442.759 746.536 445.8 734.143 445.374C721.749 444.948 709.557 441.541 697.566 435.152C685.569 428.763 676.151 420.658 669.307 410.832C662.456 401.006 658.871 389.926 658.558 377.586C658.238 365.246 661.723 352.243 668.999 338.578L714.568 253.03L755.345 274.753Z" fill="white"/>
<path d="M742.958 298.013L755.346 274.753L714.563 253.03L702.276 276.09L742.958 298.013Z" fill="#25D366"/>
<path d="M841.521 320.659L800.531 298.824L788.025 322.297L828.908 344.333L841.521 320.659Z" fill="#25D366"/>
<path d="M1744.64 1482.28H1623.79C1617.84 1482.28 1613.02 1477.46 1613.02 1471.51V1446.03C1613.02 1440.09 1617.84 1435.26 1623.79 1435.26H1744.64C1750.59 1435.26 1755.41 1440.09 1755.41 1446.03V1471.51C1755.41 1477.46 1750.59 1482.28 1744.64 1482.28Z" fill="#E1ECFA"/>
<path d="M1897.1 1482.28H1776.25C1770.3 1482.28 1765.48 1477.46 1765.48 1471.51V1446.03C1765.48 1440.09 1770.3 1435.26 1776.25 1435.26H1897.1C1903.05 1435.26 1907.87 1440.09 1907.87 1446.03V1471.51C1907.87 1477.46 1903.05 1482.28 1897.1 1482.28Z" fill="#E1ECFA"/>
<path d="M1801.51 1418.35H1680.65C1674.71 1418.35 1669.89 1413.53 1669.89 1407.59V1382.1C1669.89 1376.16 1674.71 1371.33 1680.65 1371.33H1801.51C1807.45 1371.33 1812.27 1376.16 1812.27 1382.1V1407.58C1812.27 1413.53 1807.45 1418.35 1801.51 1418.35Z" fill="#E1ECFA"/>
<path d="M1474.4 1166.57H1595.25C1601.2 1166.57 1606.02 1171.39 1606.02 1177.34V1202.82C1606.02 1208.76 1601.2 1213.58 1595.25 1213.58H1474.4C1468.45 1213.58 1463.63 1208.76 1463.63 1202.82V1177.34C1463.63 1171.39 1468.45 1166.57 1474.4 1166.57Z" fill="#E1ECFA"/>
<path d="M1321.94 1166.57H1442.8C1448.74 1166.57 1453.56 1171.39 1453.56 1177.34V1202.82C1453.56 1208.76 1448.74 1213.58 1442.8 1213.58H1321.94C1316 1213.58 1311.18 1208.76 1311.18 1202.82V1177.34C1311.18 1171.39 1316 1166.57 1321.94 1166.57Z" fill="#E1ECFA"/>
<path d="M1417.53 1230.5H1538.38C1544.33 1230.5 1549.15 1235.32 1549.15 1241.26V1266.74C1549.15 1272.69 1544.33 1277.51 1538.38 1277.51H1417.53C1411.58 1277.51 1406.76 1272.69 1406.76 1266.74V1241.26C1406.76 1235.32 1411.58 1230.5 1417.53 1230.5Z" fill="#E1ECFA"/>
<path d="M843.183 851.938H964.036C969.981 851.938 974.802 856.76 974.802 862.705V888.184C974.802 894.129 969.981 898.951 964.036 898.951H843.183C837.238 898.951 832.417 894.129 832.417 888.184V862.705C832.417 856.76 837.238 851.938 843.183 851.938Z" fill="#E1ECFA"/>
<path d="M763.422 915.863H884.274C890.22 915.863 895.041 920.685 895.041 926.63V952.109C895.041 958.054 890.22 962.876 884.274 962.876H763.422C757.477 962.876 752.655 958.054 752.655 952.109V926.63C752.655 920.685 757.477 915.863 763.422 915.863Z" fill="#E1ECFA"/>
<path d="M1142.22 1476.36H1021.37C1015.43 1476.36 1010.6 1481.18 1010.6 1487.12V1512.6C1010.6 1518.55 1015.43 1523.37 1021.37 1523.37H1142.22C1148.17 1523.37 1152.99 1518.55 1152.99 1512.6V1487.12C1152.99 1481.18 1148.17 1476.36 1142.22 1476.36Z" fill="#E1ECFA"/>
<path d="M1199.09 1540.28H1078.24C1072.29 1540.28 1067.47 1545.1 1067.47 1551.05V1576.53C1067.47 1582.47 1072.29 1587.29 1078.24 1587.29H1199.09C1205.04 1587.29 1209.86 1582.47 1209.86 1576.53V1551.05C1209.86 1545.1 1205.04 1540.28 1199.09 1540.28Z" fill="#E1ECFA"/>
<path d="M891.444 1385.85H770.591C764.646 1385.85 759.825 1390.67 759.825 1396.62V1422.1C759.825 1428.04 764.646 1432.86 770.591 1432.86H891.444C897.389 1432.86 902.21 1428.04 902.21 1422.1V1396.62C902.21 1390.67 897.389 1385.85 891.444 1385.85Z" fill="#E1ECFA"/>
<path d="M892.117 1517.54C887.935 1517.81 884.521 1520.91 883.912 1525.06C881.682 1540.23 876.275 1578.61 871.027 1627.43H1083.59L1066.67 1514.43C1065.98 1509.87 1061.92 1506.58 1057.31 1506.89L892.117 1517.54Z" fill="#315782"/>
<path d="M993.271 1624.32L1002.09 1543.64" stroke="#264154" stroke-width="0.5" stroke-miterlimit="10" stroke-linecap="round"/>
<path d="M1026.69 1556.79C1026.69 1556.79 1018.05 1617.54 994.105 1616.69" stroke="#264154" stroke-width="0.5" stroke-miterlimit="10" stroke-linecap="round"/>
<path d="M939.555 1543.64C939.555 1543.64 930.427 1582.97 902.209 1616.71" stroke="#264154" stroke-width="0.5" stroke-miterlimit="10" stroke-linecap="round"/>
<path d="M1039.43 1074.35C1039.43 1074.35 1039.01 1099.32 1054.57 1122.54C1064.33 1137.1 1061.92 1156.39 1047.91 1174.32C1033.91 1192.25 1052.95 1231.54 1052.95 1231.54L983.544 1240.91L960.751 1133.95L1039.43 1074.35Z" fill="#315782"/>
<path d="M1111.51 1316.68L1137.51 1350.98L1263.45 1307.48C1263.45 1307.48 1260.13 1287.19 1267.27 1274.4C1274.41 1261.6 1279.31 1260.58 1281.26 1263.83C1283.21 1267.08 1276.92 1283.27 1281.68 1288.53C1286.44 1293.78 1290.23 1291.35 1303.93 1275.47C1317.63 1259.59 1323.79 1252.22 1329.66 1254.13C1335.52 1256.04 1330.11 1268.8 1330.11 1268.8C1330.11 1268.8 1336.14 1268.07 1339.23 1272.04C1342.32 1276 1338.81 1280.59 1338.81 1280.59C1338.81 1280.59 1342.59 1280.54 1345.57 1285.48C1348.54 1290.43 1343.78 1295.39 1343.78 1295.39C1343.78 1295.39 1352.11 1295.07 1348.24 1305.73C1344.37 1316.4 1326.66 1349.04 1280.12 1341.44C1280.12 1341.44 1131.96 1427.45 1115.74 1421.37C1099.51 1415.29 1068.97 1369.1 1068.97 1369.1L1111.51 1316.68Z" fill="#E1B39D"/>
<path d="M888.201 1396.65C888.338 1393.51 885.953 1372.18 885.953 1372.18L824.105 1369.12C820.721 1368.95 818.094 1366.03 818.349 1362.66C823.619 1293.61 848.069 1221.04 910.427 1214.7C956.209 1210.04 976.689 1211.6 1012.59 1213.04C1038.72 1214.09 1062.9 1227.23 1078.06 1248.54C1096.68 1274.69 1102.85 1286.06 1123.47 1318.61C1139.64 1344.13 1148.89 1329.82 1072.12 1379.24L1072.04 1434.3L1071.71 1517.2C1071.69 1522.13 1067.67 1526.09 1062.74 1526.04L888.361 1524.32C885.232 1524.13 882.83 1521.47 882.96 1518.33L888.201 1396.65Z" fill="#5AB03B"/>
<path d="M995.017 1191.77L998.88 1211.71C998.88 1211.71 999.395 1240.68 968.071 1247.38C936.742 1254.07 927.696 1220.2 927.696 1220.2L931.305 1187.81L924.957 1153.91L902.969 1104.32L1023.51 1035.93C1023.51 1035.93 1045.71 1110.57 1042.7 1138.71C1039.68 1166.84 1024.57 1197.32 995.017 1191.77Z" fill="#E1B39D"/>
<path d="M1044.68 1285.06L1072.13 1379.24" stroke="#25D366" stroke-width="0.5" stroke-miterlimit="10" stroke-linecap="round"/>
<path d="M887.143 1366.2L908.067 1287.09" stroke="#25D366" stroke-width="0.5" stroke-miterlimit="10" stroke-linecap="round"/>
<path d="M1049.38 1509.81L902.209 1506.86" stroke="#25D366" stroke-width="0.5" stroke-miterlimit="10" stroke-linecap="round"/>
<path d="M885.954 1372.18L883.759 1391.71L998.335 1459.74C998.335 1459.74 1011.67 1444.09 1026.05 1441.28C1040.43 1438.46 1044.38 1441.54 1043.16 1445.13C1041.93 1448.71 1025.52 1454.38 1024.58 1461.41C1023.64 1468.43 1027.95 1469.77 1048.92 1469.95C1069.9 1470.15 1079.49 1470.08 1081.82 1475.8C1084.16 1481.51 1070.93 1485.62 1070.93 1485.62C1070.93 1485.62 1075.38 1489.75 1074.35 1494.68C1073.32 1499.59 1067.55 1499.87 1067.55 1499.87C1067.55 1499.87 1070.03 1502.73 1068.18 1508.2C1066.33 1513.67 1059.47 1513.24 1059.47 1513.24C1059.47 1513.24 1065.09 1519.39 1054.45 1523.33C1043.81 1527.27 1007.46 1534.83 983.185 1494.4C983.185 1494.4 834.398 1440.38 828.559 1424.07C822.721 1407.75 824.276 1368.82 824.276 1368.82L885.954 1372.18Z" fill="#E1B39D"/>
<path d="M1038.05 1036.96C1034.36 1021.7 1020.36 1002.92 991.769 1003.79C941.391 1005.33 939.823 1018.74 901.797 1043.19C889.912 1050.84 882.156 1058.29 877.519 1065.53C865.687 1079.02 854.412 1103.71 872.733 1142.47C903.098 1206.7 844.195 1202.19 842.657 1254.02C841.373 1297.17 861.25 1274.52 882.494 1308.95C906.583 1348.01 953.417 1310.99 943.443 1279.44C936.534 1257.59 958.162 1250.1 956.541 1232.77C955.482 1221.42 944.893 1210.72 940.787 1202.78C936.096 1193.73 936.049 1183.04 940.497 1173.87C949.466 1155.39 954.79 1143.5 937.67 1124.19C926.223 1111.28 945.952 1096.18 957.913 1107.5C964.001 1113.26 965.414 1119.96 972.685 1085.49C976.974 1065.15 996.271 1058.39 1011.4 1056.23C1011.4 1056.23 1035.84 1078.42 1039.02 1099.32C1042.17 1120.08 1057.73 1060.44 1038.05 1036.96Z" fill="#315782"/>
<path d="M2394.37 1054.89L2267.78 1081.82L2296.92 1004.66L2191.91 996.719L2354.2 968.62L2304.87 1051.35L2394.37 1054.89Z" fill="#33CCFF"/>
<path d="M2343.21 776.417L2285.09 831.369L2275.63 781.28L2217.67 810.894L2294.24 743.828L2294.85 803.358L2343.21 776.417Z" fill="#33CCFF"/>
<path d="M2342.25 500.342L2177.75 452.041L2208.47 556.885L2068.96 556.808L2280.5 610.263L2223.67 496.018L2342.25 500.342Z" fill="#33CCFF"/>
<path d="M1242.91 1120.09C1242.91 1120.09 1281.5 1301.06 1293.58 1378.61C1299.3 1415.32 1308.43 1442.31 1316.47 1460.58C1324.19 1478.12 1343.96 1486.92 1362.23 1481.1L1463.18 1448.93C1483.93 1442.32 1494.75 1419.51 1486.7 1399.27C1456.73 1323.94 1392.77 1155.54 1393.28 1091.93L1242.91 1120.09Z" fill="#315782"/>
<path d="M1114.83 906.937L1165 1107.2C1168.76 1122.22 1183.52 1131.76 1198.76 1129.01L1469.13 1080.38L1412.22 796.064L1144.33 858.593C1122.73 863.645 1109.44 885.409 1114.83 906.937Z" fill="#33CCFF"/>
<path d="M1412.22 796.07L1845.34 421.622C1878.42 393.026 1929.72 404.603 1947.15 444.705C2005.48 578.916 2112.38 866.053 2112.45 1167.96C2112.45 1196.75 2085.49 1218.05 2057.39 1211.77L1469.13 1080.38L1412.22 796.07Z" fill="#111B21"/>
<path d="M1118.26 920.625C1085.85 927.801 1065.76 960.325 1073.86 992.519L1088.88 1052.2C1096.96 1084.35 1129.92 1103.56 1161.88 1094.75L1118.26 920.625Z" fill="#08BEEF"/>
<path d="M2031.09 672.248C2031.09 672.248 2128.24 689.57 2138.74 767.882C2149.24 846.194 2089.42 907.475 2089.42 907.475C2089.42 907.475 2044.4 717.231 2031.09 672.248Z" fill="#08BEEF"/>
<path d="M2112.45 1167.96C2112.38 866.053 2005.48 578.909 1947.15 444.705C1929.72 404.602 1878.42 393.019 1845.34 421.622L1832.79 432.465C1855.79 468.824 1901.65 552.087 1939.91 688.912C1989.29 865.479 2036.97 1062.56 2031.28 1205.94L2057.39 1211.77C2085.49 1218.06 2112.45 1196.75 2112.45 1167.96Z" fill="#33CCFF"/>
<path d="M1267.27 1274.4C1267.27 1274.4 1277.4 1251.57 1283.25 1254.01C1290.53 1257.03 1286.24 1274.43 1278.76 1289.56C1277.6 1291.92 1278.59 1295.36 1278.11 1296.03C1277.68 1296.62 1275.72 1292.07 1275.26 1292.65C1263.45 1307.48 1267.27 1274.4 1267.27 1274.4Z" fill="#E1B39D"/>
<defs>
<linearGradient id="paint0_linear_52_1398" x1="686.128" y1="919.813" x2="2063.69" y2="1492.03" gradientUnits="userSpaceOnUse">
<stop stop-color="#375F97"/>
<stop offset="1" stop-color="#2C4E86"/>
</linearGradient>
<linearGradient id="paint1_linear_52_1398" x1="753.576" y1="1432.37" x2="1980.01" y2="1941.81" gradientUnits="userSpaceOnUse">
<stop stop-color="#375F97"/>
<stop offset="1" stop-color="#2C4E86"/>
</linearGradient>
</defs>
</svg>
