<svg width="2800" height="2640" viewBox="0 0 2800 2640" fill="none" xmlns="http://www.w3.org/2000/svg">
<path d="M46.3903 787.577C43.6523 786.315 41.7413 783.574 41.7303 780.421C41.6893 770.018 41.8693 759.44 42.2633 748.983C42.4253 744.687 46.0923 741.397 50.4553 741.631C61.0373 742.142 57.4313 752.481 57.5393 780.633C57.5593 784.933 54.0313 788.375 49.6643 788.315C48.4983 788.299 47.3903 788.038 46.3903 787.577Z" fill="#25D366"/>
<path d="M52.3102 651.635C55.6482 631.928 59.8271 612.116 64.7301 592.752C65.7841 588.595 70.0712 586.125 74.3092 587.236C85.8422 590.33 77.7501 596.381 67.9071 654.459C67.1901 658.691 63.1191 661.487 58.8111 660.707C54.4441 659.912 51.6002 655.813 52.3102 651.635ZM94.6991 499.813C102.068 481.144 110.319 462.42 118.949 444.817C123.574 435.349 137.659 442.714 133.21 451.78C124.622 469.336 116.663 487.402 109.451 505.676C107.878 509.664 103.3 511.579 99.2282 509.961C95.1092 508.321 93.1431 503.758 94.6991 499.813ZM167.431 360.087C178.448 343.448 190.284 327.04 202.618 311.312C208.983 303.209 221.52 312.903 215.194 320.968C203.109 336.378 191.51 352.457 180.719 368.754C175.04 377.33 161.767 368.635 167.431 360.087ZM267.979 249.428C264.872 246.353 264.841 241.421 267.911 238.415C282.199 224.409 297.253 210.789 312.65 197.932C320.567 191.325 330.906 203.283 322.996 209.889C307.911 222.485 293.159 235.831 279.156 249.552C276.09 252.565 271.077 252.507 267.979 249.428ZM389.679 150.755C387.262 147.131 388.251 142.315 391.889 139.996C408.84 129.194 426.436 118.927 444.192 109.48C453.332 104.643 461.027 118.353 451.89 123.22C434.491 132.477 417.246 142.535 400.638 153.121C397.007 155.436 392.097 154.378 389.679 150.755ZM533.66 83.1047C531.861 82.2757 530.366 80.7988 529.574 78.8408C527.943 74.8238 529.904 70.3188 533.957 68.7828C552.845 61.6218 572.241 55.1157 591.613 49.4407C595.781 48.2217 600.214 50.5728 601.529 54.7028C602.836 58.8298 600.524 63.1608 596.36 64.3818C577.376 69.9388 558.366 76.3187 539.856 83.3367C537.778 84.1227 535.554 83.9777 533.66 83.1047ZM686.329 42.3928C684.03 41.3338 682.267 39.2237 681.786 36.5917C681.012 32.3437 683.871 28.3437 688.166 27.6537C708.167 24.4457 728.565 21.9797 748.792 20.3287C753.134 19.9637 757.015 23.1547 757.447 27.4487C757.883 31.7327 754.715 35.4978 750.37 35.8528C730.553 37.4728 710.567 39.8908 690.97 43.0338C689.34 43.2958 687.734 43.0408 686.329 42.3928ZM840.097 25.9097C840.217 21.6107 843.854 18.2867 848.219 18.4797C868.521 19.3807 889.08 21.0938 909.323 23.5648C919.748 24.8668 918.017 40.2878 907.644 39.0228C887.814 36.5998 867.672 34.9258 847.781 34.0428C843.427 33.8528 839.976 30.2157 840.097 25.9097ZM1333.96 230.3C1289.23 190.84 1278.55 190.672 1285.73 181.341C1288.35 177.937 1293.3 177.33 1296.8 179.953C1313.09 192.221 1329.1 205.284 1344.39 218.774C1352.24 225.694 1341.84 237.236 1333.96 230.3ZM997.848 47.4448C998.859 43.2778 1003.12 40.7658 1007.37 41.8348C1027.13 46.8058 1046.97 52.6038 1066.34 59.0748C1076.3 62.4038 1071.44 77.1428 1061.5 73.8198C1042.51 67.4808 1023.07 61.7948 1003.71 56.9238C999.414 55.8368 996.848 51.5678 997.848 47.4448ZM1205.68 138.399C1153.99 108.741 1143.38 110.664 1148.47 100.014C1151.69 93.2597 1159.93 96.4538 1158.98 96.4258C1177.46 105.23 1195.79 114.836 1213.45 124.966C1217.26 127.148 1218.59 131.923 1216.45 135.629C1214.4 139.17 1209.73 140.654 1205.68 138.399Z" fill="#25D366"/>
<path d="M1423.47 323.56C1406.71 302.91 1395.92 295.552 1403.99 288.695C1407.26 285.911 1412.26 286.287 1415.14 289.587C1433.34 310.244 1442.6 318.624 1434.59 324.889C1432.19 326.77 1426.22 326.935 1423.47 323.56Z" fill="#25D366"/>
<path d="M1594.61 904.135C1591.53 902.719 1589.58 899.465 1590.01 896.004C1591.28 885.847 1592.35 875.551 1593.2 865.396C1593.55 861.114 1597.37 857.99 1601.72 858.415C1606.06 858.851 1609.31 862.65 1608.96 866.937C1608.1 877.3 1607 887.805 1605.71 898.173C1605.17 902.432 1601.23 905.401 1596.9 904.802C1596.08 904.691 1595.31 904.461 1594.61 904.135Z" fill="#25D366"/>
<path d="M483.73 1480.5C464.006 1470.76 444.459 1460.08 425.634 1448.76C421.877 1446.5 420.637 1441.7 422.866 1438.04C429.147 1427.73 432.91 1438.08 490.62 1466.6C494.552 1468.54 496.194 1473.23 494.289 1477.07C490.964 1483.78 482.779 1480.47 483.73 1480.5ZM577.995 1511.78C581.811 1500.35 588.087 1509.73 650.139 1525.29C654.401 1526.33 657.015 1530.6 656.01 1534.76C655.002 1538.93 650.741 1541.45 646.495 1540.38C625.26 1535.06 603.914 1528.77 583.052 1521.69C578.873 1520.26 576.647 1515.82 577.995 1511.78ZM337.451 1387.32C320.342 1373.6 303.584 1358.98 287.653 1343.87C284.482 1340.86 284.34 1335.93 287.34 1332.85C295.796 1324.19 297.143 1335.07 347.306 1375.31C350.72 1378.05 351.283 1382.96 348.563 1386.28C345.839 1389.59 340.87 1390.06 337.451 1387.32ZM749.637 1558.77C746.635 1557.38 744.685 1554.25 745.016 1550.84C745.432 1546.57 749.292 1543.49 753.639 1543.98C775.027 1546.36 796.728 1547.88 818.137 1548.48C822.514 1548.6 826.005 1552.18 825.957 1556.48C825.911 1560.78 822.333 1564.17 817.969 1564.05C796.112 1563.44 773.961 1561.89 752.13 1559.46C751.247 1559.36 750.405 1559.12 749.637 1558.77ZM920.561 1559.1C918.136 1557.99 916.319 1555.7 915.957 1552.9C915.408 1548.63 918.474 1544.78 922.808 1544.31C944.068 1542.02 965.491 1538.8 986.486 1534.74C990.758 1533.92 994.955 1536.67 995.868 1540.89C996.777 1545.12 994.055 1549.21 989.789 1550.03C968.362 1554.18 946.496 1557.46 924.794 1559.8C923.299 1559.96 921.846 1559.7 920.561 1559.1ZM1086.79 1522.48C1084.91 1521.62 1083.36 1520.03 1082.6 1517.95C1081.12 1513.88 1083.25 1509.46 1087.35 1508.07C1107.52 1501.24 1127.64 1493.48 1147.15 1485C1151.12 1483.28 1155.81 1485.07 1157.63 1489.01C1159.45 1492.95 1157.71 1497.54 1153.74 1499.27C1133.84 1507.92 1113.31 1515.84 1092.72 1522.81C1090.71 1523.49 1088.59 1523.32 1086.79 1522.48ZM1240.34 1450.89C1238.98 1450.26 1237.77 1449.25 1236.91 1447.91C1234.57 1444.23 1235.67 1439.44 1239.35 1437.2C1257.46 1426.18 1275.31 1414.26 1292.4 1401.77C1295.88 1399.22 1300.83 1399.97 1303.48 1403.45C1306.12 1406.92 1305.44 1411.79 1301.97 1414.33C1284.52 1427.08 1266.31 1439.25 1247.83 1450.49C1245.49 1451.91 1242.68 1451.97 1240.34 1450.89ZM1371.47 1346.11C1362.77 1337.41 1373.79 1336.57 1415.12 1288.91C1421.84 1281.14 1433.95 1291.37 1427.21 1299.15C1413.11 1315.41 1398.12 1331.27 1382.65 1346.28C1379.57 1349.26 1374.57 1349.21 1371.47 1346.11ZM1479.51 1217.22C1469.11 1210.6 1479.57 1207.46 1509.11 1151.76C1513.9 1142.73 1527.97 1150.08 1523.15 1159.16C1513.07 1178.17 1502.06 1196.94 1490.41 1214.97C1488.05 1218.62 1483.11 1219.55 1479.51 1217.22ZM1555.11 1067.43C1551.39 1065.72 1549.52 1061.47 1550.92 1057.64C1558.16 1037.77 1564.6 1017.42 1570.08 997.176C1571.2 993.039 1575.53 990.638 1579.75 991.811C1583.98 993.013 1586.48 997.295 1585.36 1001.43C1579.77 1022.09 1573.2 1042.85 1565.81 1063.13C1564.35 1067.16 1559.82 1069.19 1555.71 1067.68C1555.5 1067.6 1555.31 1067.52 1555.11 1067.43Z" fill="#25D366"/>
<path d="M214.72 1264.64C197.475 1243.16 188.632 1234.4 196.936 1228.51C205.573 1222.39 209.406 1233.1 227.057 1255.11C229.79 1258.51 229.238 1263.4 225.833 1266.03C222.426 1268.67 217.45 1268.04 214.72 1264.64Z" fill="#25D366"/>
<path d="M314.931 1074.57L428.121 1068.62C459.46 1111.25 497.839 1149.38 542.452 1181.05C539.172 1289.55 531.251 1296.93 542.543 1301.6L668.808 1353.83C672.498 1355.36 676.724 1354.42 679.329 1351.51L753.654 1268.42C807.557 1277.5 861.588 1277.6 913.792 1269.52L989.867 1353.77C992.534 1356.72 996.78 1357.71 1000.44 1356.24L1125.66 1305.84C1129.32 1304.37 1131.59 1300.75 1131.31 1296.84L1123.3 1185.2C1166.03 1155.06 1204.07 1117.9 1235.44 1074.49L1348.69 1082.09C1352.67 1082.35 1356.33 1080.11 1357.81 1076.5L1408.64 952.988C1410.12 949.378 1409.1 945.197 1406.1 942.579L1320.45 867.894C1328.74 814.937 1327.9 761.698 1318.79 710.116C1399.49 636.602 1410.06 637.282 1405.32 626.244C1350.86 505.272 1355.13 495.606 1342.74 496.254L1229.55 502.207C1198.21 459.573 1159.83 421.44 1115.22 389.778C1118.5 281.34 1126.42 273.902 1115.13 269.223C988.787 219.484 986.33 210.375 978.34 219.312L904.014 302.41C850.114 293.319 796.081 293.224 743.875 301.299C668.771 221.485 668.521 210.034 657.23 214.581C534.197 266.638 525.5 261.926 526.363 273.985L534.373 385.624C491.64 415.763 453.598 452.92 422.234 496.33C313.97 491.299 304.494 483.043 299.858 494.324C251.774 617.412 242.307 620.163 251.57 628.245L337.216 702.931C328.928 755.884 329.772 809.125 338.875 860.709C258.45 933.974 247.597 933.485 252.352 944.581C306.81 1065.55 302.536 1075.22 314.931 1074.57Z" fill="#25D366"/>
<path d="M697.332 765.51C707.211 694.25 774.24 645.204 846.75 656.178C919.25 667.173 970.213 734.056 960.338 805.317C950.455 876.575 883.429 925.623 810.918 914.652C738.39 903.676 687.454 836.753 697.332 765.51ZM843.548 679.276C784.694 670.365 729.066 709.662 720.834 769.066C712.717 827.592 754.562 882.557 814.119 891.554C873.67 900.565 928.722 860.285 936.834 801.761C944.962 743.147 902.995 688.26 843.548 679.276Z" fill="#FCF5EB"/>
<path d="M691.521 1087.32C673.637 1079.08 656.475 1069.36 640.352 1058.34C635.504 1055.03 633.854 1048.86 636.174 1043.81C636.452 1043.21 636.785 1042.62 637.176 1042.06C640.847 1036.78 648.239 1035.52 653.644 1039.22C672.188 1051.89 692.226 1062.71 713.181 1071.4C871.082 1136.71 1050.7 1067.62 1119.98 917.284C1121.74 913.445 1123.44 909.551 1125.07 905.608C1190.64 746.24 1111.26 563.779 949.603 496.855C788.164 430.072 603.201 503.722 537.718 662.644C498.794 757.259 522.219 824.256 517.746 833.963C512.912 844.453 497.053 842.063 495.215 830.621C485.172 768.111 493.068 702.017 521.189 640.99C642.536 377.677 1028.71 388.448 1144.46 658.114C1180.08 741.099 1181.01 832.227 1147.06 914.709C1145.31 918.977 1143.47 923.195 1141.55 927.367C1106.37 1003.73 1044.05 1062.89 964.756 1094.81C881.133 1128.47 788.642 1127.79 704.323 1092.91C700.02 1091.14 695.748 1089.27 691.521 1087.32Z" fill="#FCF5EB"/>
<path d="M1677.12 592.47C1696.25 615.022 1719.12 634.688 1745.19 650.388L1746.46 713.659C1746.6 720.68 1752.6 717.964 1822.36 741.821C1828.81 743.901 1828.1 737.873 1866.11 689.387C1896.44 691.874 1926.49 689.276 1955.19 682.15L2000.86 726.02C2005.93 730.888 2008.24 724.719 2074.44 692.266C2076.41 691.253 2077.53 689.099 2077.22 686.903L2068.29 624.21C2090.85 605.08 2110.51 582.215 2126.21 556.144C2186.65 553.667 2192.21 557.843 2194.33 551.268C2216.16 479.281 2221.28 477.322 2215.82 473.219L2165.21 435.221C2167.7 404.89 2165.1 374.846 2157.97 346.144L2201.84 300.475C2206.71 295.411 2200.54 293.089 2168.09 226.897C2165.01 220.884 2161.5 225.594 2100.03 233.04C2080.9 210.487 2058.04 190.823 2031.97 175.122L2030.69 111.85C2030.55 104.821 2024.55 107.545 1954.8 83.6878C1948.38 81.6148 1949.25 87.3918 1911.04 136.123C1880.71 133.632 1850.67 136.233 1821.96 143.36L1776.3 99.4908C1774.7 97.9528 1772.3 97.6008 1770.32 98.6118L1702.72 133.244C1700.74 134.256 1699.63 136.41 1699.94 138.608L1708.86 201.301C1686.31 220.431 1666.65 243.296 1650.94 269.366C1590.51 271.842 1584.94 267.666 1582.83 274.243C1561.01 346.201 1555.87 348.181 1561.34 352.291L1611.95 390.289C1609.46 420.62 1612.06 450.664 1619.18 479.366C1578.19 523.853 1571.28 524.84 1574.44 531.01L1609.07 598.614C1612.16 604.656 1615.96 599.877 1677.12 592.47Z" fill="#25D366"/>
<path d="M1809.48 407.632C1812.32 363.919 1849.98 330.83 1893.7 333.665C1937.4 336.495 1970.5 374.16 1967.67 417.877C1964.84 461.487 1927.06 494.672 1883.45 491.848C1839.84 489.015 1806.66 451.25 1809.48 407.632ZM1833.06 409.155C1831.08 439.775 1854.38 466.29 1884.98 468.276C1934.13 471.455 1963 413.188 1930.38 376.043C1897.9 339.066 1836.26 359.679 1833.06 409.155Z" fill="#FCF5EB"/>
<path d="M1490.77 531.325C1487.72 521.129 1485.04 510.669 1482.8 500.232C1481.88 495.979 1484.58 491.794 1488.84 490.879C1499.54 488.576 1498.01 500.524 1505.85 526.822C1507.1 530.99 1504.73 535.375 1500.56 536.618C1496.41 537.859 1492.01 535.511 1490.77 531.325Z" fill="#25D366"/>
<path d="M1473.92 395.339C1474.8 374.45 1477.3 352.702 1481.65 330.939C1483.69 320.701 1499.13 323.842 1497.09 334.025C1485.82 390.41 1494.62 404.107 1481.45 403.543C1477.07 403.349 1473.74 399.659 1473.92 395.339ZM1518.88 241.695C1514.97 239.792 1513.34 235.08 1515.24 231.167C1524.68 211.773 1535.74 192.953 1548.12 175.235C1554.09 166.704 1567 175.711 1561.03 184.258C1549.12 201.3 1538.48 219.4 1529.4 238.058C1526.06 244.923 1517.93 241.67 1518.88 241.695ZM1620.63 110.426C1619.63 109.964 1618.71 109.287 1617.94 108.397C1615.11 105.091 1615.5 100.122 1618.81 97.2917C1635.22 83.2507 1652.85 70.3948 1671.22 59.0848C1674.92 56.8098 1679.78 57.9627 1682.05 61.6587C1684.33 65.3607 1683.18 70.2148 1679.48 72.4908C1661.8 83.3768 1644.84 95.7477 1629.05 109.258C1626.63 111.322 1623.33 111.673 1620.63 110.426ZM1766.09 30.3937C1764.12 29.4877 1762.54 27.7787 1761.85 25.5467C1760.58 21.3897 1762.92 16.9847 1767.08 15.7137C1787.71 9.38974 1809.02 4.65773 1830.41 1.65173C1834.72 1.05173 1838.7 4.04872 1839.3 8.35772C1839.9 12.6617 1836.9 16.6438 1832.6 17.2498C1812.03 20.1378 1791.53 24.6858 1771.69 30.7678C1769.76 31.3588 1767.78 31.1737 1766.09 30.3937ZM1926.91 7.22576C1927.4 2.90576 1931.3 -0.205253 1935.62 0.283747C1957.14 2.71875 1978.57 6.85275 1999.32 12.5727C2009.34 15.2847 2005.21 30.5267 1995.13 27.7557C1975.17 22.2537 1954.55 18.2767 1933.85 15.9377C1929.42 15.4197 1926.43 11.4608 1926.91 7.22576Z" fill="#25D366"/>
<path d="M2114.92 83.6088C2091.14 67.2178 2080.65 65.5248 2085.99 56.3308C2088.17 52.5698 2092.9 51.2248 2096.75 53.4718C2105.93 58.7918 2115.05 64.5698 2123.86 70.6418C2127.44 73.1078 2128.34 78.0118 2125.87 81.5948C2123.44 85.1198 2118.59 86.1098 2114.92 83.6088Z" fill="#25D366"/>
<path d="M2284.77 361.764C2281.09 333 2275.37 324.153 2285.78 321.997C2290.05 321.112 2294.21 323.851 2295.09 328.106C2297.25 338.499 2299.04 349.151 2300.39 359.765C2300.94 364.079 2297.89 368.025 2293.58 368.574C2289.28 369.129 2285.32 366.085 2284.77 361.764Z" fill="#25D366"/>
<path d="M1752.83 796.771C1756.94 784.353 1766.26 797.142 1822.37 806.51C1832.62 808.2 1830.08 823.762 1819.77 822.045C1798.79 818.541 1777.95 813.383 1757.84 806.72C1753.77 805.389 1751.45 800.953 1752.83 796.771ZM1914.68 819.171C1914.33 814.839 1917.55 811.035 1921.88 810.68C1979.06 805.984 1988.88 793.988 1991.97 806.749C1992.99 810.978 1990.39 815.232 1986.16 816.253C1965.54 821.23 1944.35 824.639 1923.17 826.377C1918.83 826.728 1915.04 823.505 1914.68 819.171ZM2072.27 776.283C2066.12 764.697 2081.67 766.917 2127.37 732.79C2135.72 726.57 2145.15 739.175 2136.8 745.412C2119.76 758.125 2101.64 769.613 2082.91 779.545C2079.08 781.582 2074.31 780.128 2072.27 776.283ZM2200.34 674.859C2190.12 666.584 2205.36 662.547 2234.03 613.264C2239.26 604.269 2252.88 612.167 2247.64 621.18C2236.98 639.515 2224.79 657.183 2211.41 673.697C2208.67 677.082 2203.71 677.585 2200.34 674.859ZM2272.9 521.585C2288.48 466.417 2280.69 452.945 2293.75 454.541C2298.07 455.064 2301.14 458.992 2300.62 463.31C2298.04 484.453 2293.81 505.498 2288.06 525.868C2286.88 530.052 2282.53 532.489 2278.34 531.305C2274.16 530.124 2271.72 525.777 2272.9 521.585Z" fill="#25D366"/>
<path d="M1664.1 761.877C1655.14 756.101 1646.29 749.908 1637.82 743.47C1634.36 740.838 1633.68 735.9 1636.31 732.434C1642.93 723.717 1649.52 733.748 1672.63 748.636C1676.28 750.994 1677.34 755.864 1674.98 759.521C1672.59 763.23 1667.68 764.197 1664.1 761.877Z" fill="#25D366"/>
<path d="M1792.51 580.968C1786.03 577.26 1784.71 569.926 1787.8 564.596C1791.07 558.947 1798.35 557.033 1803.94 560.285C1814.42 566.348 1825.65 571.335 1837.32 575.1C1839.87 575.407 1899.89 599.356 1968.13 564.518C2103.46 495.18 2087.47 295.411 1942.58 248.706C1859.23 221.828 1770.02 262.4 1734.25 340.044C1698.22 418.239 1738.95 458.926 1714.02 464.693C1707.66 466.172 1701.32 462.216 1699.84 455.858C1691.88 421.582 1693.42 385.678 1704.27 352.021C1737.21 249.813 1847.3 193.159 1949.84 226.224C2060.17 261.795 2116.48 386.536 2067 493.919C2027.1 580.528 1926.73 628.759 1830.07 597.582L1830.06 597.58C1816.98 593.359 1804.34 587.771 1792.51 580.968Z" fill="#FCF5EB"/>
<path d="M1760.21 863.389C1759.91 859.699 1756.14 856.504 1749.76 853.944C1756.7 850.119 1760.53 846.019 1760.21 841.999C1759.23 829.833 1720.7 823.012 1674.15 826.765C1627.61 830.518 1590.67 843.423 1591.65 855.59C1591.95 859.28 1595.72 862.474 1602.1 865.035C1595.16 868.86 1591.32 872.959 1591.65 876.98C1591.95 880.67 1595.72 883.864 1602.1 886.425C1595.16 890.25 1591.32 894.349 1591.65 898.37C1591.95 902.06 1595.72 905.254 1602.1 907.815C1595.16 911.64 1591.32 915.74 1591.65 919.76C1592.08 925.14 1599.87 929.473 1612.44 932.31C1612.28 936.286 1612.37 940.644 1612.76 945.456C1614.58 967.875 1639.8 985.453 1673.15 985.453C1706.5 985.453 1735.37 961.486 1735.7 938.996C1735.78 933.484 1735.54 928.633 1735.04 924.322C1751 918.993 1760.72 912.483 1760.21 906.169C1759.91 902.479 1756.14 899.284 1749.76 896.724C1756.7 892.899 1760.53 888.799 1760.21 884.779C1759.91 881.089 1756.14 877.895 1749.76 875.334C1756.7 871.509 1760.53 867.409 1760.21 863.389Z" fill="url(#paint0_linear_52_1243)"/>
<path d="M1652.61 937.152C1638.79 937.152 1626.14 936.135 1615.69 934.133C1615.08 934.017 1614.69 933.432 1614.8 932.825C1614.92 932.219 1615.5 931.822 1616.11 931.938C1632.46 935.069 1654.31 935.759 1677.61 933.879C1696.69 932.341 1714.52 929.265 1729.2 924.982C1729.79 924.809 1730.41 925.149 1730.58 925.742C1730.76 926.335 1730.42 926.955 1729.82 927.128C1715.01 931.452 1697.02 934.557 1677.8 936.107C1669.14 936.806 1660.68 937.152 1652.61 937.152Z" fill="url(#paint1_linear_52_1243)"/>
<path d="M1652.85 915.742C1634.89 915.742 1618.84 914.052 1607.51 910.828C1606.92 910.659 1606.58 910.04 1606.74 909.446C1606.91 908.852 1607.53 908.509 1608.13 908.677C1624.26 913.271 1650.24 914.695 1677.62 912.488C1704.7 910.304 1729.96 904.808 1745.18 897.786C1745.74 897.528 1746.41 897.772 1746.67 898.333C1746.92 898.893 1746.68 899.557 1746.12 899.817C1730.67 906.943 1705.13 912.513 1677.8 914.716C1669.27 915.406 1660.87 915.742 1652.85 915.742Z" fill="url(#paint2_linear_52_1243)"/>
<path d="M1652.62 894.368C1633.22 894.368 1616.25 892.384 1604.83 888.617C1604.24 888.424 1603.93 887.792 1604.12 887.205C1604.31 886.618 1604.94 886.299 1605.53 886.493C1621.43 891.734 1648.37 893.455 1677.61 891.098C1704.7 888.915 1729.96 883.419 1745.18 876.396C1745.74 876.139 1746.41 876.383 1746.67 876.943C1746.92 877.503 1746.68 878.167 1746.12 878.426C1730.67 885.553 1705.12 891.123 1677.79 893.326C1669.13 894.027 1660.67 894.368 1652.62 894.368Z" fill="url(#paint3_linear_52_1243)"/>
<path d="M1652.77 872.968C1637.38 872.968 1623.39 871.724 1612.51 869.308C1611.91 869.174 1611.53 868.577 1611.67 867.975C1611.8 867.371 1612.4 866.991 1613 867.126C1629.36 870.76 1652.91 871.702 1677.62 869.71C1704.46 867.545 1729.59 862.11 1744.84 855.167C1745.4 854.91 1746.06 855.159 1746.32 855.721C1746.57 856.283 1746.33 856.946 1745.76 857.202C1730.29 864.246 1704.88 869.755 1677.8 871.939C1669.24 872.627 1660.81 872.968 1652.77 872.968Z" fill="url(#paint4_linear_52_1243)"/>
<path d="M1560.41 755.415C1554.75 735.392 1545.15 716.678 1532.22 700.379C1504.51 665.456 1459.3 594.432 1453.74 497.497C1445.64 356.501 1570.69 285.91 1684.8 295.493C1798.91 305.076 1911.5 390.038 1899.18 521.208C1891.59 601.916 1846.42 663.135 1812.79 698.293C1791.43 720.618 1776.19 747.963 1767.95 777.738C1757.85 814.182 1733.83 859.598 1676.74 862.366C1602.86 865.948 1572.17 797.083 1560.41 755.415Z" fill="url(#paint5_linear_52_1243)"/>
<path d="M1695.61 834.248L1735.53 574.564C1736.36 569.199 1739 565.596 1741.43 566.516C1743.86 567.437 1745.17 572.532 1744.34 577.897C1744.32 578.04 1744.29 578.216 1744.27 578.357L1698.79 835.628C1698.44 837.563 1697.46 838.785 1696.59 838.357C1695.75 837.943 1695.32 836.121 1695.61 834.248Z" fill="url(#paint6_linear_52_1243)"/>
<path d="M1654.16 836.31L1614.24 576.626C1613.41 571.261 1610.77 567.659 1608.34 568.579C1605.91 569.499 1604.6 574.595 1605.43 579.96C1605.45 580.103 1605.48 580.279 1605.51 580.42L1650.98 837.691C1651.33 839.626 1652.31 840.848 1653.18 840.42C1654.02 840.005 1654.45 838.184 1654.16 836.31Z" fill="url(#paint7_linear_52_1243)"/>
<path d="M1735.25 552.267C1734.23 550.637 1731.89 550.027 1730.01 550.907L1707.77 561.295L1700.06 539.306C1699.65 538.159 1698.7 537.141 1697.35 536.586C1694.79 535.532 1691.74 536.475 1690.52 538.692L1690.48 538.763L1672.2 572.099L1655.23 524.644L1655.2 524.565C1654.79 523.407 1653.91 522.367 1652.64 521.669C1649.79 520.116 1646.03 520.856 1644.24 523.323L1618.68 558.51C1617.64 559.952 1618 561.884 1619.58 562.95C1621.27 564.088 1623.7 563.824 1625.02 562.359L1647.52 537.254L1667.78 582.398L1667.8 582.433C1668.12 583.155 1668.73 583.786 1669.58 584.183C1671.49 585.073 1673.86 584.459 1674.89 582.811L1694.44 551.432L1701.8 567.303L1701.86 567.444C1701.92 567.558 1701.98 567.67 1702.05 567.781C1703.06 569.41 1705.4 570.019 1707.28 569.141L1733.67 556.81C1735.56 555.932 1736.26 553.898 1735.25 552.267Z" fill="#FCF5EB"/>
<path d="M1813.65 664.816C1812.6 664.816 1811.54 664.493 1810.64 663.816C1808.39 662.15 1807.92 658.975 1809.59 656.725C1816.39 647.568 1822.62 638.101 1828.11 628.594C1829.51 626.172 1832.61 625.34 1835.03 626.74C1837.46 628.139 1838.29 631.237 1836.89 633.663C1831.2 643.507 1824.76 653.3 1817.73 662.771C1816.73 664.11 1815.2 664.816 1813.65 664.816Z" fill="#FCF5EB"/>
<path d="M1846.5 608.445C1845.83 608.445 1845.14 608.31 1844.48 608.026C1841.92 606.911 1840.74 603.924 1841.85 601.357C1884.04 504.196 1847.66 422.644 1847.29 421.832C1846.12 419.288 1847.23 416.278 1849.78 415.113C1852.33 413.948 1855.34 415.063 1856.5 417.608C1858.1 421.092 1895.13 504.124 1851.15 605.396C1850.32 607.307 1848.46 608.445 1846.5 608.445Z" fill="#FCF5EB"/>
<path d="M1002.44 2455.79C1002.44 2455.79 995.858 2491.11 992.461 2526.1C991.132 2539.77 1001.57 2551.76 1015.29 2552.46C1061.91 2554.85 1161.62 2559.58 1197.43 2558.32C1202.82 2558.13 1206.39 2552.66 1204.44 2547.63C1202.81 2543.42 1199.63 2540 1195.54 2538.08L1031.49 2460.78L1002.44 2455.79Z" fill="url(#paint8_linear_52_1243)"/>
<path d="M997.523 2434.96L1002.14 2477.32C1002.14 2477.32 1030.88 2491.03 1050.73 2476.09L1039.23 2428.82L997.523 2434.96Z" fill="url(#paint9_linear_52_1243)"/>
<path d="M1008.89 1639.47C1006.61 1650.5 991.985 2190.79 1047.44 2433.5C1048.34 2437.46 1046.3 2441.52 1042.52 2443.02C1033.63 2446.55 1016.21 2451.63 995.391 2452.13C988.944 2452.28 983.203 2448.04 981.444 2441.83C965.469 2385.49 889.035 2103.23 881.28 1834.22C872.613 1533.62 881.378 1823.99 881.378 1823.99L889.914 1638.31L1008.89 1639.47Z" fill="url(#paint10_linear_52_1243)"/>
<path d="M812.724 2472.44C812.724 2472.44 802.606 2490.21 792.524 2537.57C790.703 2546.12 796.613 2554.38 805.308 2555.32C820.693 2556.98 844.379 2559.16 863.37 2559.21C872.123 2559.23 879.028 2551.67 878.056 2542.97C876.118 2525.63 869.836 2497.15 849.805 2474.81L812.724 2472.44Z" fill="url(#paint11_linear_52_1243)"/>
<path d="M804.507 2417.93L815.627 2482.03C815.627 2482.03 827.144 2490.77 850.149 2484.74L845.206 2415.83L804.507 2417.93Z" fill="url(#paint12_linear_52_1243)"/>
<path d="M780.101 1653.87C730.139 1938.53 783.627 2358.64 802.233 2440.94C803.372 2445.98 807.392 2449.87 812.48 2450.77C821.121 2452.28 835.359 2453.59 849.445 2449.64C854.298 2448.28 857.74 2443.95 857.985 2438.92C861.22 2372.55 860.428 1964.93 905.983 1804.28C908.291 1796.14 913.343 1789.06 920.288 1784.23L1006.31 1724.3L1013.79 1626.19L780.101 1653.87Z" fill="url(#paint13_linear_52_1243)"/>
<path d="M1086.28 1116.51C944.73 1112.82 788.141 1150.84 788.141 1150.84C743.59 1396.68 775.703 1681.04 775.703 1681.04C885.033 1710.82 1009.11 1665.69 1009.11 1665.69C1028.31 1562.94 1116.07 1274.09 1116.07 1274.09C1185.33 1266.16 1242.5 1246.75 1289.68 1220.81C1254.28 1178.98 1237.91 1126.02 1230.88 1094.74C1180.67 1109.82 1129.94 1117.65 1086.28 1116.51Z" fill="url(#paint14_linear_52_1243)"/>
<path d="M1506.46 911.969C1492.72 895.038 1475.04 902.817 1475.04 902.817C1453.36 990.624 1343.44 1060.94 1230.88 1094.75C1237.91 1126.03 1254.28 1178.98 1289.68 1220.82C1476.94 1117.87 1506.46 911.969 1506.46 911.969Z" fill="url(#paint15_linear_52_1243)"/>
<path d="M1503.05 916.207C1504.46 920.847 1487.54 927.731 1477.8 908.716C1477.54 899.644 1472.39 860.743 1477.88 853.406C1507.12 814.336 1563.54 765.548 1563.54 765.548C1572.91 774.97 1565.03 784.061 1565.03 784.061L1537.62 812.078C1543.2 822.391 1550.04 831.118 1553.17 843.558C1555.53 852.979 1553.93 863.008 1549.11 871.516C1544.26 880.054 1537.65 891.15 1531.42 899.824C1519.63 916.241 1503.05 916.207 1503.05 916.207Z" fill="url(#paint16_linear_52_1243)"/>
<path d="M1525.57 830.312L1500.64 851.045L1492.67 871.848L1514.49 896.524C1514.49 896.524 1522.3 855.171 1527.9 846.258C1533.49 837.345 1530.68 832.983 1525.57 830.312Z" fill="url(#paint17_linear_52_1243)"/>
<path d="M841.135 1288.45L788.141 1150.84C788.141 1150.84 655.043 1239.43 632.209 1353.15C657.178 1355.23 702.585 1362.16 746.875 1385.06C757.167 1331.36 841.135 1288.45 841.135 1288.45Z" fill="url(#paint18_linear_52_1243)"/>
<path d="M955.468 1418.55C955.468 1418.55 806.195 1501.04 756.782 1428.91C746.524 1413.94 744.177 1399.13 746.874 1385.06C702.584 1362.16 657.178 1355.23 632.209 1353.15C625.325 1387.43 628.442 1423.99 648.271 1461.1C734.493 1622.46 974.768 1455.34 974.768 1455.34L955.468 1418.55Z" fill="url(#paint19_linear_52_1243)"/>
<path d="M943.975 1000.21L897.684 1130.05C896.918 1132.2 897.781 1134.6 899.77 1135.72C911.985 1142.63 956.037 1162.68 1009.67 1129.38C1015.26 1125.91 1019.1 1120.21 1020 1113.69L1035.67 1001.08L943.975 1000.21Z" fill="url(#paint20_linear_52_1243)"/>
<path d="M1043.14 880.505C1043.14 880.505 1091.72 974.092 1085.02 1011.65C1078.32 1049.2 1017.04 1045.91 963.799 1014.85L927.35 913.953L1043.14 880.505Z" fill="url(#paint21_linear_52_1243)"/>
<path d="M966.636 965.5C968.821 964.557 969.649 961.902 968.365 959.898C964.459 953.806 957.148 941.384 954.881 930.547C954.881 930.547 946.043 924.767 977.64 917.522C1009.24 910.277 1056.36 899.013 1066.5 872.273C1076.39 846.201 1051.7 780.165 1010.81 832.204C1009.26 834.184 1006.25 834.2 1004.73 832.188C998.193 823.508 980.958 805.456 956.688 816.068C933.977 826 931.271 842.546 931.502 850.903C931.57 853.361 929.355 855.25 926.944 854.767C915.531 852.477 888.112 850.342 875.036 878.367C864.267 901.45 870.998 914.64 877.181 921.117C879.184 923.216 878.264 926.632 875.481 927.454C867.944 929.683 858.181 935.962 858.984 953.577C860.095 977.929 887.327 976.044 895.085 975.008C896.356 974.839 897.632 975.287 898.483 976.246C905.056 983.661 934.688 1015.16 967.046 1019.23C969.848 1019.58 972.049 1016.84 971.155 1014.16L957.525 973.271C956.892 971.373 957.817 969.305 959.655 968.511L966.636 965.5Z" fill="url(#paint22_linear_52_1243)"/>
<path d="M972.217 971.337C972.217 971.337 937.227 946.836 934.459 967.162C931.692 987.487 965.894 996.941 982.951 989.515L972.217 971.337Z" fill="url(#paint23_linear_52_1243)"/>
<path d="M924.961 1548.92L1006.28 1264.95C1007.2 1261.72 1009.95 1259.37 1013.28 1258.98C1028.01 1257.26 1070.7 1252.44 1119.99 1248.27C1179.36 1243.25 1248.31 1239.18 1289.51 1242.64C1295.37 1243.13 1298.91 1249.33 1296.31 1254.6C1272.88 1302 1176.5 1494.81 1128.24 1557.98C1126.64 1560.07 1124.17 1561.29 1121.54 1561.27L932.873 1559.51C927.382 1559.46 923.45 1554.2 924.961 1548.92Z" fill="url(#paint24_linear_52_1243)"/>
<path d="M944.606 1480.31C944.606 1480.31 933.278 1433.73 937.848 1417.21C942.417 1400.68 951.27 1379.44 980.778 1384.16C1010.29 1388.88 1045.1 1401.31 1045.1 1401.31C1045.1 1401.31 1043.34 1422.83 1020.91 1415.89L1034.82 1426.65C1034.82 1426.65 1032.83 1443.89 1013.89 1434.68L1026.82 1448.95C1026.82 1448.95 1018.69 1463.1 1004.75 1454.03C990.811 1444.95 984.13 1485.92 944.606 1480.31Z" fill="url(#paint25_linear_52_1243)"/>
<path d="M1114.57 1333.04C1114.57 1346.22 1125.26 1356.91 1138.44 1356.91C1151.62 1356.91 1162.31 1346.22 1162.31 1333.04C1162.31 1319.86 1151.62 1309.17 1138.44 1309.17C1125.26 1309.17 1114.57 1319.86 1114.57 1333.04Z" fill="#FCF5EB"/>
<path d="M1015.48 1348.78L1009.39 1346.98L1025.95 1290.82C1028.65 1281.67 1036.03 1274.8 1045.21 1272.89C1097.69 1261.94 1235.9 1259.71 1241.75 1259.61L1241.85 1265.96C1240.42 1265.98 1098.39 1268.27 1046.51 1279.1C1039.62 1280.54 1034.07 1285.71 1032.03 1292.62L1015.48 1348.78Z" fill="#FCF5EB"/>
<path d="M53.1274 2143.48C44.4594 2156.31 10.0094 2446.71 4.6174 2553.97C4.2524 2561.22 10.0544 2567.27 17.3164 2567.27C23.5794 2567.27 28.9084 2562.71 29.8754 2556.52L92.8874 2152.72L53.1274 2143.48Z" fill="#111B21"/>
<path d="M330.108 2143.48C338.776 2156.31 373.226 2446.71 378.618 2553.97C378.983 2561.22 373.182 2567.27 365.918 2567.27C359.656 2567.27 354.326 2562.71 353.361 2556.52L290.349 2152.72L330.108 2143.48Z" fill="#111B21"/>
<path d="M1.01455 2120.82L0.985525 2123.98C0.777525 2146.77 20.4045 2165.45 44.9805 2165.87L336.236 2170.83C360.458 2171.24 380.649 2153.74 381.824 2131.31L381.976 2128.41C383.201 2105.02 363.337 2085.31 338.077 2084.86L46.6985 2079.63C21.7585 2079.19 1.22455 2097.7 1.01455 2120.82Z" fill="#111B21"/>
<path d="M614.553 2543.42C562.778 2543.42 539.87 2538.98 529.628 2534.93C531.619 2543.43 539.192 2550.14 548.762 2550.14H731.924C738.092 2550.14 741.985 2544.24 740.511 2538.89C719.632 2540.57 675.288 2543.42 614.553 2543.42Z" fill="#25D366"/>
<path d="M740.511 2538.89C740.214 2537.82 739.777 2536.76 739.011 2535.78C725.058 2517.96 697.031 2489.99 658.905 2490.52C603.053 2491.31 583.58 2497.37 540.177 2490.86L529.938 2524.8C528.895 2528.26 528.876 2531.72 529.628 2534.93C539.871 2538.98 562.779 2543.42 614.553 2543.42C675.288 2543.42 719.632 2540.57 740.511 2538.89Z" fill="url(#paint26_linear_52_1243)"/>
<path d="M552.746 2454.29L540.177 2497.04C540.177 2497.04 568.021 2509.71 592.511 2499.54L597.32 2462.5L552.746 2454.29Z" fill="url(#paint27_linear_52_1243)"/>
<path d="M932.372 2516.5C892.012 2548.93 871.385 2559.83 860.876 2563.11C867.728 2568.46 877.816 2568.92 885.276 2562.93L1028.06 2448.2C1032.87 2444.34 1032.22 2437.32 1027.74 2434.1C1012.51 2448.47 979.718 2478.46 932.372 2516.5Z" fill="#25D366"/>
<path d="M1027.74 2434.09C1026.84 2433.44 1025.83 2432.89 1024.63 2432.62C1002.65 2427.53 963.358 2423.38 933.972 2447.68C890.923 2483.28 879.52 2500.17 841.632 2522.31L854.806 2555.06C856.15 2558.39 858.289 2561.09 860.876 2563.11C871.385 2559.83 892.012 2548.93 932.372 2516.5C979.718 2478.46 1012.51 2448.47 1027.74 2434.09Z" fill="url(#paint28_linear_52_1243)"/>
<path d="M283.881 1967.27C283.881 1967.27 593.857 1992.58 657.446 2022.52C721.035 2052.45 605.554 2472 605.554 2472C605.554 2472 588.242 2480.33 549.722 2468.36C549.722 2468.36 589.222 2158.75 559.829 2091.61L224.205 2036.71L283.881 1967.27Z" fill="url(#paint29_linear_52_1243)"/>
<path d="M810.833 2463.38C813.711 2466 841.632 2522.31 841.632 2522.31C841.632 2522.31 872.715 2515.59 879.054 2495.92L851.086 2445.09L810.833 2463.38Z" fill="url(#paint30_linear_52_1243)"/>
<path d="M97.1857 1964.68C97.1857 1964.68 87.0837 1988.99 87.4967 2021.29C88.0667 2065.96 123.979 2102.21 168.597 2104.43L535.039 2121.14C542.778 2121.5 549.325 2126.85 551.264 2134.35C559.875 2167.66 601.965 2269.94 807.709 2474.04C813.182 2479.47 821.71 2480.39 828.229 2476.28L857.517 2457.78C860.592 2455.83 861.573 2451.8 859.735 2448.66L646.374 2084.32C635.167 2065.82 617.153 2052.46 596.203 2047.11L283.881 1967.27L97.1857 1964.68Z" fill="url(#paint31_linear_52_1243)"/>
<path d="M458.311 1395.54C458.311 1395.54 419.056 1464.95 379.033 1498.57L461.758 1544.73C461.758 1544.73 480.399 1471.25 522.987 1449.73L458.311 1395.54Z" fill="url(#paint32_linear_52_1243)"/>
<path d="M90.5298 1967.27C90.5298 1967.27 189.456 1991.38 283.882 1967.27C283.882 1967.27 416.01 1789.65 467.127 1741.31C467.127 1741.31 548.664 1869.98 730.149 1888.21L740.27 1865.59C740.27 1865.59 595.788 1798.99 551.309 1696.65C506.829 1594.31 488.965 1550.67 448.499 1523.97C423.297 1507.34 408.207 1495.98 400.41 1489.78C396.14 1486.38 390.248 1485.99 385.589 1488.83C342.644 1515 140.574 1653.4 90.5298 1967.27Z" fill="url(#paint33_linear_52_1243)"/>
<path d="M461.763 1738.81C459.857 1738.81 457.974 1737.95 456.725 1736.32C425.222 1695.25 407.676 1649.97 406.945 1648.07C405.69 1644.79 407.323 1641.13 410.595 1639.87C413.873 1638.61 417.536 1640.25 418.793 1643.52C418.966 1643.97 436.45 1689.03 466.795 1728.6C468.927 1731.39 468.404 1735.36 465.621 1737.5C464.47 1738.38 463.11 1738.81 461.763 1738.81Z" fill="url(#paint34_linear_52_1243)"/>
<path d="M719.236 1853.78L739.664 1848.33L801.688 1833.97C809.154 1832.24 817.002 1833.57 823.489 1837.65L876.818 1871.2L729.544 1870.95L719.236 1853.78Z" fill="url(#paint35_linear_52_1243)"/>
<path d="M520.639 1291.47C520.639 1291.47 558.788 1354.88 565.408 1389.93C572.027 1424.98 582.654 1446.89 542.763 1459.38C502.871 1471.87 465.797 1456.07 442.53 1423.35C442.53 1423.35 406.195 1373 409.819 1349.94C413.444 1326.88 520.639 1291.47 520.639 1291.47Z" fill="url(#paint36_linear_52_1243)"/>
<path d="M453.15 1396.22L458.311 1395.54C458.311 1395.54 431.298 1354.72 448.974 1344.6C466.65 1334.47 538.68 1309.63 551.19 1281.26C563.249 1253.91 545.21 1223.01 523.462 1216.57C522.086 1216.16 520.634 1216.97 520.136 1218.32L518.858 1221.76C517.984 1224.12 514.682 1224.21 513.673 1221.91C512.717 1219.72 509.588 1219.63 508.602 1221.81C504.748 1230.3 493.194 1244.82 458.554 1256.05C409.402 1271.98 378.785 1296.76 382.553 1331.68C382.792 1333.9 380.594 1335.42 378.559 1334.52C374.541 1332.75 368.45 1332.47 361.377 1340.2C349.077 1353.66 358.712 1383.08 392.305 1403.91C393.901 1404.89 394.186 1407.15 392.759 1408.37C387.733 1412.67 380.663 1422.27 403.391 1430.82C426.642 1439.57 439.329 1436.61 444.017 1434.73C445.279 1434.22 445.999 1432.91 445.739 1431.58L439.768 1400.98C439.459 1399.4 440.549 1397.88 442.148 1397.67L453.15 1396.22Z" fill="url(#paint37_linear_52_1243)"/>
<path d="M455.268 1402.51C455.268 1402.51 438.434 1361.01 420.754 1375.6C403.075 1390.18 437.097 1422.43 452.799 1422L455.268 1402.51Z" fill="url(#paint38_linear_52_1243)"/>
<path d="M662.339 1900.09C662.579 1900.1 662.82 1900.11 663.062 1900.11L977.687 1899.79C985.464 1899.79 991.761 1893.49 991.752 1885.72C991.744 1877.96 985.409 1871.54 977.652 1871.68L663.026 1871.99C655.249 1872 648.951 1878.3 648.96 1886.06C648.97 1893.59 654.897 1899.72 662.339 1900.09Z" fill="url(#paint39_linear_52_1243)"/>
<path d="M1099.53 1591.97C1099.42 1592.19 1099.31 1592.4 1099.21 1592.62L966.829 1878.04C963.554 1885.1 966.611 1893.46 973.655 1896.73C980.701 1900 989.19 1896.96 992.334 1889.87L1124.72 1604.45C1127.99 1597.39 1124.93 1589.02 1117.89 1585.76C1111.07 1582.6 1103 1585.38 1099.53 1591.97Z" fill="url(#paint40_linear_52_1243)"/>
<path d="M1923.41 2186.93H1890.2V2546.05H1923.41V2186.93Z" fill="#111B21"/>
<path d="M2052.23 2552.97H1761.38C1761.38 2541.03 1771.06 2531.35 1783 2531.35H2030.61C2042.55 2531.35 2052.23 2541.03 2052.23 2552.97Z" fill="#111B21"/>
<path d="M2095.39 2174.47C2095.39 2194.11 2079.32 2210.18 2059.68 2210.18H1765.42C1745.78 2210.18 1729.71 2194.11 1729.71 2174.47V2142.18C1729.71 2122.54 1745.78 2106.47 1765.42 2106.47H2059.68C2079.32 2106.47 2095.39 2122.54 2095.39 2142.18V2174.47Z" fill="#111B21"/>
<path d="M1661.66 1947.49C1661.66 1947.49 1612.31 1955.14 1556.83 1992.22C1548.1 1998.06 1543.31 2008.24 1544.63 2018.66C1551.27 2071.28 1578.59 2241.59 1668.65 2407.94C1673.4 2416.72 1674.77 2426.93 1672.67 2436.68L1657.03 2509.5L1628.01 2536.71H1702.75L1752.52 2402.03L1731.24 2395.3C1714.74 2390.08 1703.42 2374.91 1703.12 2357.6L1700.62 2213.13C1702.75 2148.76 1661.15 2104.35 1661.15 2104.35L1780.53 2098.55L1661.66 1947.49Z" fill="url(#paint41_linear_52_1243)"/>
<path d="M1598.82 2549.85C1592.01 2558.76 1672.08 2570.51 1712.54 2551.03C1712.54 2551.03 1768.62 2453.46 1768.62 2403.22C1768.62 2403.22 1764.17 2392.98 1731.24 2395.3C1731.24 2395.3 1712.41 2510.83 1692.53 2523.77C1672.64 2536.71 1636.9 2525.08 1636.9 2525.08C1636.9 2525.08 1608.86 2536.7 1598.82 2549.85Z" fill="url(#paint42_linear_52_1243)"/>
<path d="M1765.42 2106.47C1764.79 2105.37 1636.9 2091.09 1636.9 2091.09C1636.9 2091.09 1641.09 2129.98 1628.01 2183.5C1614.93 2237.03 1427.16 2468.94 1427.16 2468.94L1446.85 2531.35C1385.98 2552.56 1326.1 2555.95 1267.18 2542.16L1389.19 2468.94C1389.19 2468.94 1503.38 2079.81 1573.32 2010.38L1701.52 1966.03L1765.42 2106.47Z" fill="url(#paint43_linear_52_1243)"/>
<path d="M2052.23 1880.04C2052.23 1880.04 2125.91 1989.64 2131.96 2039.63C2138 2089.62 2111.77 2109.93 2034.46 2113.28C1957.15 2116.63 1750.76 2116.58 1750.76 2116.58L1574.61 1966.03C1574.61 1966.03 1702.98 1920.23 1736.36 1907.28C1769.73 1894.32 2052.23 1880.04 2052.23 1880.04Z" fill="url(#paint44_linear_52_1243)"/>
<path d="M1439.41 2510.34C1439.41 2510.34 1460.6 2530.87 1446.29 2553.71C1446.29 2553.71 1278.38 2583.47 1232.79 2569.97C1232.79 2569.97 1242.25 2548.36 1293.59 2523.77L1289.8 2526.68C1285.01 2530.36 1287.82 2538.02 1293.85 2537.68C1327.68 2535.75 1397.68 2529.55 1439.41 2510.34Z" fill="url(#paint45_linear_52_1243)"/>
<path d="M1733.06 1185.03C1883.68 1159.42 1954.59 1282.26 1949.41 1308.07C1948.72 1311.5 1951.95 1314.4 1955.32 1313.49C1972.61 1308.83 2010.81 1302.97 2034.49 1332.64C2055.4 1358.83 2039.78 1383.56 2027.04 1397.13C2023.96 1400.4 2026.55 1405.72 2031.01 1405.16C2062.8 1401.15 2131.88 1400.19 2143.18 1464.9C2153.72 1525.25 2111.72 1542.26 2086.81 1547.06C2082.59 1547.87 2081.61 1553.41 2085.23 1555.71C2097.66 1563.59 2112.06 1579.89 2106.24 1612.04C2097.12 1662.43 1998.32 1658.31 1986.77 1657.65C1986.04 1657.61 1985.35 1657.4 1984.71 1657.03L1826.46 1566.78C1825.23 1566.08 1824.38 1564.86 1824.13 1563.46L1792.18 1378.95C1791.93 1377.46 1792.39 1375.93 1793.44 1374.84L1690.28 1229.25C1652.83 1223.74 1731.29 1185.33 1733.06 1185.03Z" fill="url(#paint46_linear_52_1243)"/>
<path d="M1852.96 1865.54C1852.96 1865.54 1767.16 1783.83 1724.93 1729.72C1702.1 1700.47 1694.93 1661.96 1705.49 1626.39C1724.77 1561.42 1759.04 1494.14 1762.16 1483.66C1766.95 1467.61 1863.16 1468.28 1863.16 1468.28C1863.16 1468.28 2052.48 1591.15 2126.86 1799.28L2043.32 1825.28C2043.32 1825.28 1993.89 1742.36 1945.05 1689.63C1945.05 1689.63 2029.56 1801.27 2032.54 1846.98L1852.96 1865.54Z" fill="url(#paint47_linear_52_1243)"/>
<path d="M1750.53 1393.96C1751.53 1397.29 1776.64 1480.54 1778.61 1482.26C1780.57 1483.99 1833.67 1486.85 1858.67 1469.76L1796.67 1348.49L1750.53 1393.96Z" fill="url(#paint48_linear_52_1243)"/>
<path d="M1649.86 1286.99C1649.86 1286.99 1637.73 1334.68 1671.3 1398.82C1704.87 1462.96 1742.88 1462.89 1763.66 1442.36C1784.44 1421.83 1810.06 1386.99 1803.97 1324.98C1797.89 1262.97 1667.39 1226.32 1649.86 1286.99Z" fill="url(#paint49_linear_52_1243)"/>
<path d="M1757.53 1328.35C1757.53 1328.35 1701.83 1243.19 1649.59 1310.22L1648.64 1334.59C1648.64 1334.59 1587.46 1327.33 1598.17 1271.23C1608.87 1215.13 1661.75 1180.07 1729.84 1204.37C1797.93 1228.67 1836.95 1253.59 1841.34 1302.38C1845.74 1351.18 1806.92 1340.48 1806.92 1340.48C1806.92 1340.48 1794.25 1306.12 1776.25 1302.55C1758.25 1298.98 1762.93 1325.77 1762.93 1325.77L1757.53 1328.35Z" fill="url(#paint50_linear_52_1243)"/>
<path d="M1771.79 1327.21C1771.79 1327.21 1742.9 1283.6 1772.51 1277.1C1802.11 1270.59 1797.52 1319.59 1794.32 1337.71L1771.79 1327.21Z" fill="url(#paint51_linear_52_1243)"/>
<path d="M1678.16 1871.6L1741.21 1810.84L1828.41 1847.68C1828.41 1847.68 1915.22 1861.13 1964.9 1847.68C2014.59 1834.23 2014.59 1834.23 2014.59 1834.23L2126.86 1799.28L2144.49 1849.11C2148.97 1861.76 2144.47 1875.81 2133.53 1883.58C2123.82 1890.49 2112.43 1898.07 2105.17 1901.25C2090.39 1907.71 1740.7 1896.77 1740.7 1896.77L1678.16 1871.6Z" fill="url(#paint52_linear_52_1243)"/>
<path d="M1916.73 1900.25C1916.45 1900.26 1916.17 1900.27 1915.89 1900.27L1550.2 1899.87C1541.16 1899.86 1533.84 1892.52 1533.85 1883.48C1533.86 1874.44 1541.22 1866.97 1550.24 1867.13L1915.93 1867.53C1924.97 1867.54 1932.29 1874.88 1932.28 1883.92C1932.27 1892.67 1925.38 1899.82 1916.73 1900.25Z" fill="url(#paint53_linear_52_1243)"/>
<path d="M1221.47 1568.23H1526.01C1548.48 1568.23 1568.93 1581.19 1578.51 1601.51L1719.3 1900.05H1340.83C1326.35 1900.05 1313.35 1891.21 1308.02 1877.74L1198.85 1601.49C1192.54 1585.52 1204.3 1568.23 1221.47 1568.23Z" fill="url(#paint54_linear_52_1243)"/>
<path d="M1436.02 1721.3C1442.62 1741.8 1437.75 1761.71 1425.13 1765.77C1412.52 1769.83 1396.94 1756.5 1390.34 1736C1383.74 1715.5 1388.62 1695.58 1401.23 1691.52C1413.85 1687.46 1429.42 1700.79 1436.02 1721.3Z" fill="#FCF5EB"/>
<path d="M2333.64 2507.71C2333.64 2507.71 2337.48 2529.02 2339 2554.32C2339.64 2565.1 2331.65 2574.46 2320.9 2575.51C2283.47 2579.14 2198.27 2585.84 2143.87 2577.99C2136.25 2576.89 2133.22 2567.53 2138.86 2562.28C2161.29 2541.38 2215.46 2500.73 2304.63 2491.84L2333.64 2507.71Z" fill="url(#paint55_linear_52_1243)"/>
<path d="M2352.25 2459.67L2333.33 2506.05C2330.73 2512.41 2324.29 2516.36 2317.46 2515.65C2312.82 2515.16 2307.34 2514.27 2302 2512.65C2291.32 2509.41 2285.3 2498.09 2288.49 2487.4L2302.77 2439.62L2352.25 2459.67Z" fill="url(#paint56_linear_52_1243)"/>
<path d="M2675.8 2544.65C2675.8 2544.65 2637.9 2576.36 2623.14 2617.03C2619.08 2628.22 2627.66 2640 2639.56 2640H2717.54C2728.96 2640 2737.71 2629.73 2735.72 2618.49C2730.75 2590.41 2716.43 2544.77 2675.8 2544.65Z" fill="url(#paint57_linear_52_1243)"/>
<path d="M2722.74 2503.38C2722.74 2503.38 2715.09 2537.27 2709.21 2559.66C2708.14 2563.72 2703.8 2565.95 2699.84 2564.54C2688.04 2560.32 2678.44 2558.45 2671.46 2559.39C2668.23 2559.82 2665.41 2557.14 2665.37 2553.88L2664.64 2497.61L2722.74 2503.38Z" fill="url(#paint58_linear_52_1243)"/>
<path d="M2521.2 1741.01L2290.7 2444.21C2290.7 2444.21 2334.91 2473.16 2355.97 2471.96L2629.75 1906.82C2629.75 1906.82 2677.66 2255.04 2654.45 2505.03L2732.87 2511.02C2732.87 2511.02 2860.38 1872.15 2763.8 1653.34L2521.2 1741.01Z" fill="url(#paint59_linear_52_1243)"/>
<path d="M2628.27 1900.75C2628.36 1900.75 2628.46 1900.74 2628.55 1900.73C2629.78 1900.57 2630.64 1899.46 2630.49 1898.23L2621.54 1827.24C2621.39 1826.01 2620.29 1825.16 2619.05 1825.3C2617.83 1825.46 2616.96 1826.57 2617.12 1827.79L2626.06 1898.79C2626.2 1899.92 2627.16 1900.75 2628.27 1900.75Z" fill="url(#paint60_linear_52_1243)"/>
<path d="M2477.98 1122.23C2477.98 1122.23 2664.73 1138.81 2638.32 1271.87C2638.32 1271.87 2741.55 1466.14 2789.81 1694.99C2791.38 1702.43 2786.39 1709.7 2778.89 1710.98L2467.89 1764.23C2459.31 1765.7 2451.04 1760.35 2448.86 1751.92L2374.55 1464.74L2345.59 1598.26L2253.58 1574.29L2331.04 1181.93C2331.04 1181.93 2341.84 1124.69 2477.98 1122.23Z" fill="url(#paint61_linear_52_1243)"/>
<path d="M2372.96 1451.89C2373.13 1451.89 2373.29 1451.87 2373.46 1451.84C2374.71 1451.57 2375.5 1450.33 2375.23 1449.08L2349.31 1330.05C2349.03 1328.8 2347.82 1328.01 2346.55 1328.28C2345.3 1328.55 2344.51 1329.78 2344.78 1331.03L2370.7 1450.07C2370.94 1451.15 2371.9 1451.89 2372.96 1451.89Z" fill="#08BEEF"/>
<path d="M2391.74 1806.11C2401.53 1800.72 2413 1799.23 2423.85 1801.93L2445.49 1807.32C2450.09 1808.46 2454.64 1805.3 2455.17 1800.59L2477.57 1601.28C2505.57 1614.58 2545.96 1612.99 2559.28 1612.01L2507.74 1846.98H2327.39L2391.74 1806.11Z" fill="url(#paint62_linear_52_1243)"/>
<path d="M1912.55 1373.79L1918 1355.68C1921.14 1345.25 1928.85 1336.82 1938.95 1332.76L2037.54 1293.11C2037.54 1293.11 2039.03 1280.47 2016.71 1271.87C1994.39 1263.28 1999.61 1238.28 1999.61 1238.28C1999.61 1238.28 2030.1 1252.19 2074.74 1274.25C2100.27 1286.87 2114.59 1309.15 2122.19 1325.91L2345.59 1598.26L2319.36 1616.28C2284.87 1639.98 2237.43 1628.34 2217.83 1591.37L2096.81 1359.29C2036.05 1377.54 1974.56 1381.03 1912.55 1373.79Z" fill="url(#paint63_linear_52_1243)"/>
<path d="M2417.48 995.176L2474.92 1155.93C2474.92 1155.93 2424.06 1195.7 2386.94 1182.25L2358 1090.1C2358 1090.1 2380.11 977.476 2417.48 995.176Z" fill="url(#paint64_linear_52_1243)"/>
<path d="M2246.05 937.442C2246.05 939.919 2301.38 1094.07 2301.38 1094.07L2388.73 1060.61L2358 906.712C2358 906.712 2246.05 895.971 2246.05 937.442Z" fill="url(#paint65_linear_52_1243)"/>
<path d="M2342.68 944.205L2365.2 1023.95C2365.49 1024.97 2365.64 1026 2365.64 1027.07C2365.65 1033.57 2364.04 1055.95 2341.24 1052.91C2320.55 1050.15 2301.63 1047.93 2289.6 1053.6C2284.2 1056.14 2281.62 1062.36 2283.64 1067.98C2288.67 1081.98 2300.59 1113.33 2315.1 1138.99C2318.04 1144.19 2324.5 1146.22 2329.95 1143.74C2346.35 1136.28 2380.51 1119.57 2404.84 1099.69C2408.14 1097 2409.72 1092.76 2408.94 1088.57C2405.11 1068.17 2393.71 1006.13 2393.2 988.347C2392.73 971.657 2411.46 958.916 2419.7 954.127C2422.41 952.556 2424.33 949.971 2425.06 946.932C2427.65 936.189 2429.85 911.877 2398.83 906.519C2392.34 905.398 2388.11 899.185 2389.43 892.732C2392.05 879.885 2391.21 860.978 2366.82 854.015C2342.02 846.937 2326.42 861.864 2318.48 873.31C2315.27 877.938 2309.27 879.44 2304.12 877.142C2301.2 875.834 2297.66 875.777 2293.86 878.98C2288.74 883.297 2280.94 881.983 2277.18 876.443C2269.95 865.799 2256.81 855.175 2234.57 862.371C2195.11 875.139 2197 920.638 2211.46 945.374C2225.93 970.109 2267.93 953.833 2287.81 937.442C2302.93 924.98 2325.94 932.435 2336.11 936.724C2339.33 938.083 2341.73 940.842 2342.68 944.205Z" fill="url(#paint66_linear_52_1243)"/>
<path d="M2401.11 1017.46C2401.11 1017.46 2377.76 973.284 2393.2 959.41C2408.65 945.536 2434.81 947.806 2434.11 982.355C2433.23 1025.33 2401.11 1017.46 2401.11 1017.46Z" fill="url(#paint67_linear_52_1243)"/>
<path d="M2541.16 1615C2553.9 1615 2563 1614.04 2563.98 1613.93L2565.64 1613.74L2633.64 1296.7C2633.91 1295.45 2633.11 1294.21 2631.86 1293.95C2630.6 1293.67 2629.38 1294.47 2629.11 1295.72L2561.82 1609.48C2551.7 1610.37 2497.66 1613.96 2469.13 1593.75L2528.04 1318.29L2515.74 1295.12C2515.14 1293.99 2513.74 1293.56 2512.61 1294.16C2511.48 1294.76 2511.05 1296.16 2511.65 1297.29L2523.16 1318.98L2463.98 1595.7L2465.16 1596.58C2485.77 1612.07 2518.98 1615 2541.16 1615Z" fill="#08BEEF"/>
<path d="M502.545 2581.64C500.983 2581.64 499.396 2581.3 497.868 2580.59C491.857 2577.76 489.08 2570.16 491.666 2563.6L740.154 1933.1C742.738 1926.54 749.703 1923.51 755.72 1926.33C761.731 1929.15 764.507 1936.76 761.922 1943.32L513.435 2573.82C511.507 2578.71 507.137 2581.64 502.545 2581.64Z" fill="url(#paint68_linear_52_1243)"/>
<path d="M782.478 2581.64C777.886 2581.64 773.516 2578.71 771.588 2573.82L523.1 1943.32C520.514 1936.76 523.291 1929.16 529.302 1926.33C535.309 1923.51 542.28 1926.54 544.868 1933.1L793.356 2563.6C795.942 2570.16 793.165 2577.76 787.154 2580.59C785.629 2581.3 784.039 2581.64 782.478 2581.64Z" fill="url(#paint69_linear_52_1243)"/>
<path d="M2188.97 2581.64C2187.41 2581.64 2185.82 2581.3 2184.29 2580.59C2178.28 2577.76 2175.5 2570.16 2178.09 2563.6L2426.58 1933.1C2429.16 1926.54 2436.13 1923.51 2442.14 1926.33C2448.15 1929.15 2450.93 1936.76 2448.35 1943.32L2199.86 2573.82C2197.93 2578.71 2193.56 2581.64 2188.97 2581.64Z" fill="url(#paint70_linear_52_1243)"/>
<path d="M2468.9 2581.64C2464.31 2581.64 2459.94 2578.71 2458.01 2573.82L2209.52 1943.32C2206.94 1936.76 2209.71 1929.16 2215.72 1926.33C2221.73 1923.51 2228.7 1926.54 2231.29 1933.1L2479.78 2563.6C2482.36 2570.16 2479.59 2577.76 2473.58 2580.59C2472.05 2581.3 2470.46 2581.64 2468.9 2581.64Z" fill="url(#paint71_linear_52_1243)"/>
<path d="M2152.91 1888.57L2512.81 1888.57V1851.43H2152.91C2160.62 1851.43 2160.62 1888.57 2152.91 1888.57Z" fill="#FCF5EB"/>
<path d="M2509.43 1888.57C2511.29 1888.57 2512.81 1887.05 2512.81 1885.19V1854.81C2512.81 1852.95 2511.29 1851.43 2509.43 1851.43H2145.32C2143.46 1851.43 2141.94 1849.91 2141.94 1848.05V1846.41C2141.94 1844.55 2143.46 1843.03 2145.32 1843.03H2533.42C2542 1843.03 2548.96 1849.99 2548.96 1858.57V1882.31C2548.96 1890.41 2542.4 1896.97 2534.31 1896.97H2145.32C2143.46 1896.97 2141.94 1895.45 2141.94 1893.59V1891.95C2141.94 1890.09 2143.46 1888.57 2145.32 1888.57L2509.43 1888.57Z" fill="url(#paint72_linear_52_1243)"/>
<path d="M2564.98 1913.61C2566.19 1909.46 2564.54 1905.17 2560.49 1901.92C2556.44 1898.66 2550.41 1896.77 2544.04 1896.77H387.559C379.187 1896.77 371.392 1899.6 366.882 1904.28C362.371 1908.96 361.766 1914.84 365.277 1919.88L388.646 1953.43C393.997 1961.11 405.592 1966.03 418.351 1966.03H2529.25C2541.11 1966.03 2551.32 1960.45 2553.57 1952.72L2564.98 1913.61Z" fill="url(#paint73_linear_52_1243)"/>
<defs>
<linearGradient id="paint0_linear_52_1243" x1="1681.2" y1="846.078" x2="1646.96" y2="1072.08" gradientUnits="userSpaceOnUse">
<stop stop-color="#09005D"/>
<stop offset="1" stop-color="#1A0F91"/>
</linearGradient>
<linearGradient id="paint1_linear_52_1243" x1="1688.77" y1="752.379" x2="1629.64" y2="1404.53" gradientUnits="userSpaceOnUse">
<stop stop-color="#53D8FF"/>
<stop offset="1" stop-color="#3840F7"/>
</linearGradient>
<linearGradient id="paint2_linear_52_1243" x1="1690.49" y1="752.534" x2="1631.36" y2="1404.69" gradientUnits="userSpaceOnUse">
<stop stop-color="#53D8FF"/>
<stop offset="1" stop-color="#3840F7"/>
</linearGradient>
<linearGradient id="paint3_linear_52_1243" x1="1687.23" y1="752.237" x2="1628.09" y2="1404.39" gradientUnits="userSpaceOnUse">
<stop stop-color="#53D8FF"/>
<stop offset="1" stop-color="#3840F7"/>
</linearGradient>
<linearGradient id="paint4_linear_52_1243" x1="1688.98" y1="752.396" x2="1629.85" y2="1404.55" gradientUnits="userSpaceOnUse">
<stop stop-color="#53D8FF"/>
<stop offset="1" stop-color="#3840F7"/>
</linearGradient>
<linearGradient id="paint5_linear_52_1243" x1="1706.94" y1="288.623" x2="1615.71" y2="906.958" gradientUnits="userSpaceOnUse">
<stop stop-color="#FF928E"/>
<stop offset="1" stop-color="#FE7062"/>
</linearGradient>
<linearGradient id="paint6_linear_52_1243" x1="2547.8" y1="-454.752" x2="2137.26" y2="117.968" gradientUnits="userSpaceOnUse">
<stop stop-color="#E1473D"/>
<stop offset="1" stop-color="#E9605A"/>
</linearGradient>
<linearGradient id="paint7_linear_52_1243" x1="2490.8" y1="-495.61" x2="2080.26" y2="77.1095" gradientUnits="userSpaceOnUse">
<stop stop-color="#E1473D"/>
<stop offset="1" stop-color="#E9605A"/>
</linearGradient>
<linearGradient id="paint8_linear_52_1243" x1="1193.64" y1="2408.72" x2="584.028" y2="3059.29" gradientUnits="userSpaceOnUse">
<stop stop-color="#09005D"/>
<stop offset="1" stop-color="#1A0F91"/>
</linearGradient>
<linearGradient id="paint9_linear_52_1243" x1="997.327" y1="2455.6" x2="1050.92" y2="2456.11" gradientUnits="userSpaceOnUse">
<stop stop-color="#FEBBBA"/>
<stop offset="1" stop-color="#FF928E"/>
</linearGradient>
<linearGradient id="paint10_linear_52_1243" x1="1248.23" y1="1666.92" x2="728.172" y2="2357.95" gradientUnits="userSpaceOnUse">
<stop stop-color="#09005D"/>
<stop offset="1" stop-color="#1A0F91"/>
</linearGradient>
<linearGradient id="paint11_linear_52_1243" x1="1059.46" y1="2282.97" x2="449.828" y2="2933.57" gradientUnits="userSpaceOnUse">
<stop stop-color="#09005D"/>
<stop offset="1" stop-color="#1A0F91"/>
</linearGradient>
<linearGradient id="paint12_linear_52_1243" x1="804.193" y1="2451.01" x2="850.466" y2="2451.45" gradientUnits="userSpaceOnUse">
<stop stop-color="#FEBBBA"/>
<stop offset="1" stop-color="#FF928E"/>
</linearGradient>
<linearGradient id="paint13_linear_52_1243" x1="1157.36" y1="1598.53" x2="637.308" y2="2289.56" gradientUnits="userSpaceOnUse">
<stop stop-color="#09005D"/>
<stop offset="1" stop-color="#1A0F91"/>
</linearGradient>
<linearGradient id="paint14_linear_52_1243" x1="-1089.16" y1="-2239.03" x2="-616.095" y2="-1419.05" gradientUnits="userSpaceOnUse">
<stop stop-color="#FF928E"/>
<stop offset="1" stop-color="#FE7062"/>
</linearGradient>
<linearGradient id="paint15_linear_52_1243" x1="1231.22" y1="1059.44" x2="1505.04" y2="1062.04" gradientUnits="userSpaceOnUse">
<stop stop-color="#FEBBBA"/>
<stop offset="1" stop-color="#FF928E"/>
</linearGradient>
<linearGradient id="paint16_linear_52_1243" x1="1444.48" y1="1015.57" x2="1256.77" y2="1431.87" gradientUnits="userSpaceOnUse">
<stop stop-color="#FEBBBA"/>
<stop offset="1" stop-color="#FF928E"/>
</linearGradient>
<linearGradient id="paint17_linear_52_1243" x1="1505.48" y1="876.913" x2="1583.27" y2="759.765" gradientUnits="userSpaceOnUse">
<stop stop-color="#FEBBBA"/>
<stop offset="1" stop-color="#FF928E"/>
</linearGradient>
<linearGradient id="paint18_linear_52_1243" x1="-1250.26" y1="-2146.1" x2="-777.197" y2="-1326.12" gradientUnits="userSpaceOnUse">
<stop stop-color="#FF928E"/>
<stop offset="1" stop-color="#FE7062"/>
</linearGradient>
<linearGradient id="paint19_linear_52_1243" x1="628.353" y1="1441.57" x2="974.867" y2="1444.86" gradientUnits="userSpaceOnUse">
<stop stop-color="#FEBBBA"/>
<stop offset="1" stop-color="#FF928E"/>
</linearGradient>
<linearGradient id="paint20_linear_52_1243" x1="897.959" y1="1073.66" x2="1034.96" y2="1074.96" gradientUnits="userSpaceOnUse">
<stop stop-color="#FEBBBA"/>
<stop offset="1" stop-color="#FF928E"/>
</linearGradient>
<linearGradient id="paint21_linear_52_1243" x1="1068.38" y1="988.118" x2="918.618" y2="894.814" gradientUnits="userSpaceOnUse">
<stop stop-color="#FEBBBA"/>
<stop offset="1" stop-color="#FF928E"/>
</linearGradient>
<linearGradient id="paint22_linear_52_1243" x1="839.805" y1="797.209" x2="1032.94" y2="952.755" gradientUnits="userSpaceOnUse">
<stop stop-color="#09005D"/>
<stop offset="1" stop-color="#1A0F91"/>
</linearGradient>
<linearGradient id="paint23_linear_52_1243" x1="1028.49" y1="1022" x2="893.746" y2="938.056" gradientUnits="userSpaceOnUse">
<stop stop-color="#FEBBBA"/>
<stop offset="1" stop-color="#FF928E"/>
</linearGradient>
<linearGradient id="paint24_linear_52_1243" x1="1067.78" y1="1221.4" x2="1258.99" y2="2018.09" gradientUnits="userSpaceOnUse">
<stop stop-color="#09005D"/>
<stop offset="1" stop-color="#1A0F91"/>
</linearGradient>
<linearGradient id="paint25_linear_52_1243" x1="936.763" y1="1432.17" x2="1045.1" y2="1432.17" gradientUnits="userSpaceOnUse">
<stop stop-color="#FEBBBA"/>
<stop offset="1" stop-color="#FF928E"/>
</linearGradient>
<linearGradient id="paint26_linear_52_1243" x1="611.329" y1="1959.64" x2="633.856" y2="2511.55" gradientUnits="userSpaceOnUse">
<stop stop-color="#4F52FF"/>
<stop offset="1" stop-color="#4042E2"/>
</linearGradient>
<linearGradient id="paint27_linear_52_1243" x1="540.177" y1="2478.89" x2="597.32" y2="2478.89" gradientUnits="userSpaceOnUse">
<stop stop-color="#FEBBBA"/>
<stop offset="1" stop-color="#FF928E"/>
</linearGradient>
<linearGradient id="paint28_linear_52_1243" x1="913.018" y1="1947.33" x2="935.545" y2="2499.24" gradientUnits="userSpaceOnUse">
<stop stop-color="#4F52FF"/>
<stop offset="1" stop-color="#4042E2"/>
</linearGradient>
<linearGradient id="paint29_linear_52_1243" x1="224.205" y1="2221.05" x2="676.556" y2="2221.05" gradientUnits="userSpaceOnUse">
<stop stop-color="#09005D"/>
<stop offset="1" stop-color="#1A0F91"/>
</linearGradient>
<linearGradient id="paint30_linear_52_1243" x1="810.833" y1="2483.7" x2="879.054" y2="2483.7" gradientUnits="userSpaceOnUse">
<stop stop-color="#FEBBBA"/>
<stop offset="1" stop-color="#FF928E"/>
</linearGradient>
<linearGradient id="paint31_linear_52_1243" x1="635.098" y1="2032.58" x2="138.492" y2="2595.63" gradientUnits="userSpaceOnUse">
<stop stop-color="#09005D"/>
<stop offset="1" stop-color="#1A0F91"/>
</linearGradient>
<linearGradient id="paint32_linear_52_1243" x1="431.891" y1="1522.36" x2="465.525" y2="1437.55" gradientUnits="userSpaceOnUse">
<stop stop-color="#FEBBBA"/>
<stop offset="1" stop-color="#FF928E"/>
</linearGradient>
<linearGradient id="paint33_linear_52_1243" x1="1340.38" y1="448.47" x2="308.484" y2="2020.89" gradientUnits="userSpaceOnUse">
<stop stop-color="#4F52FF"/>
<stop offset="1" stop-color="#4042E2"/>
</linearGradient>
<linearGradient id="paint34_linear_52_1243" x1="453.71" y1="1661.8" x2="1107.52" y2="572.114" gradientUnits="userSpaceOnUse">
<stop stop-color="#09005D"/>
<stop offset="1" stop-color="#1A0F91"/>
</linearGradient>
<linearGradient id="paint35_linear_52_1243" x1="719.236" y1="1852.22" x2="876.818" y2="1852.22" gradientUnits="userSpaceOnUse">
<stop stop-color="#FEBBBA"/>
<stop offset="1" stop-color="#FF928E"/>
</linearGradient>
<linearGradient id="paint36_linear_52_1243" x1="534.58" y1="1349.88" x2="384.036" y2="1500.03" gradientUnits="userSpaceOnUse">
<stop stop-color="#FEBBBA"/>
<stop offset="1" stop-color="#FF928E"/>
</linearGradient>
<linearGradient id="paint37_linear_52_1243" x1="403.639" y1="1264.25" x2="580.955" y2="1439.46" gradientUnits="userSpaceOnUse">
<stop stop-color="#09005D"/>
<stop offset="1" stop-color="#1A0F91"/>
</linearGradient>
<linearGradient id="paint38_linear_52_1243" x1="510.238" y1="1325.47" x2="359.695" y2="1475.63" gradientUnits="userSpaceOnUse">
<stop stop-color="#FEBBBA"/>
<stop offset="1" stop-color="#FF928E"/>
</linearGradient>
<linearGradient id="paint39_linear_52_1243" x1="-33049.9" y1="-34196.8" x2="-32494" y2="-33602.4" gradientUnits="userSpaceOnUse">
<stop stop-color="#09005D"/>
<stop offset="1" stop-color="#1A0F91"/>
</linearGradient>
<linearGradient id="paint40_linear_52_1243" x1="48032.8" y1="-13753.7" x2="47259.4" y2="-13500.3" gradientUnits="userSpaceOnUse">
<stop stop-color="#09005D"/>
<stop offset="1" stop-color="#1A0F91"/>
</linearGradient>
<linearGradient id="paint41_linear_52_1243" x1="1296.58" y1="3614.5" x2="1717.76" y2="1929.76" gradientUnits="userSpaceOnUse">
<stop stop-color="#FEBBBA"/>
<stop offset="1" stop-color="#FF928E"/>
</linearGradient>
<linearGradient id="paint42_linear_52_1243" x1="2249.61" y1="1550.52" x2="1849.21" y2="2224.6" gradientUnits="userSpaceOnUse">
<stop stop-color="#09005D"/>
<stop offset="1" stop-color="#1A0F91"/>
</linearGradient>
<linearGradient id="paint43_linear_52_1243" x1="1501.24" y1="2548.94" x2="1585.48" y2="1292.41" gradientUnits="userSpaceOnUse">
<stop stop-color="#FEBBBA"/>
<stop offset="1" stop-color="#FF928E"/>
</linearGradient>
<linearGradient id="paint44_linear_52_1243" x1="1574.61" y1="1998.31" x2="2132.79" y2="1998.31" gradientUnits="userSpaceOnUse">
<stop stop-color="#09005D"/>
<stop offset="1" stop-color="#1A0F91"/>
</linearGradient>
<linearGradient id="paint45_linear_52_1243" x1="2020.9" y1="1414.67" x2="1620.56" y2="2088.67" gradientUnits="userSpaceOnUse">
<stop stop-color="#09005D"/>
<stop offset="1" stop-color="#1A0F91"/>
</linearGradient>
<linearGradient id="paint46_linear_52_1243" x1="1967.79" y1="1066.02" x2="1885.6" y2="1497.82" gradientUnits="userSpaceOnUse">
<stop stop-color="#09005D"/>
<stop offset="1" stop-color="#1A0F91"/>
</linearGradient>
<linearGradient id="paint47_linear_52_1243" x1="1577.61" y1="2464" x2="1891.84" y2="1759.5" gradientUnits="userSpaceOnUse">
<stop stop-color="#4F52FF"/>
<stop offset="1" stop-color="#4042E2"/>
</linearGradient>
<linearGradient id="paint48_linear_52_1243" x1="1831.78" y1="1606.25" x2="1798.14" y2="1390.44" gradientUnits="userSpaceOnUse">
<stop stop-color="#FEBBBA"/>
<stop offset="1" stop-color="#FF928E"/>
</linearGradient>
<linearGradient id="paint49_linear_52_1243" x1="1648.92" y1="1377.48" x2="1901.07" y2="1292.42" gradientUnits="userSpaceOnUse">
<stop stop-color="#FEBBBA"/>
<stop offset="1" stop-color="#FF928E"/>
</linearGradient>
<linearGradient id="paint50_linear_52_1243" x1="1595.13" y1="1152.4" x2="1889.53" y2="1478.79" gradientUnits="userSpaceOnUse">
<stop stop-color="#09005D"/>
<stop offset="1" stop-color="#1A0F91"/>
</linearGradient>
<linearGradient id="paint51_linear_52_1243" x1="1641.41" y1="1355.23" x2="1893.56" y2="1270.16" gradientUnits="userSpaceOnUse">
<stop stop-color="#FEBBBA"/>
<stop offset="1" stop-color="#FF928E"/>
</linearGradient>
<linearGradient id="paint52_linear_52_1243" x1="1969.88" y1="1851.29" x2="2437.93" y2="1851.29" gradientUnits="userSpaceOnUse">
<stop stop-color="#FEBBBA"/>
<stop offset="1" stop-color="#FF928E"/>
</linearGradient>
<linearGradient id="paint53_linear_52_1243" x1="1978.77" y1="1803.09" x2="1688.48" y2="1898.3" gradientUnits="userSpaceOnUse">
<stop stop-color="#09005D"/>
<stop offset="1" stop-color="#1A0F91"/>
</linearGradient>
<linearGradient id="paint54_linear_52_1243" x1="1580" y1="1612.75" x2="1370.94" y2="1833.71" gradientUnits="userSpaceOnUse">
<stop stop-color="#09005D"/>
<stop offset="1" stop-color="#1A0F91"/>
</linearGradient>
<linearGradient id="paint55_linear_52_1243" x1="2234.37" y1="2893.62" x2="2231.28" y2="3220.84" gradientUnits="userSpaceOnUse">
<stop stop-color="#09005D"/>
<stop offset="1" stop-color="#1A0F91"/>
</linearGradient>
<linearGradient id="paint56_linear_52_1243" x1="2313.24" y1="2528.2" x2="2330.22" y2="2395.46" gradientUnits="userSpaceOnUse">
<stop stop-color="#FEBBBA"/>
<stop offset="1" stop-color="#FF928E"/>
</linearGradient>
<linearGradient id="paint57_linear_52_1243" x1="2676.46" y1="2897.79" x2="2673.37" y2="3225.01" gradientUnits="userSpaceOnUse">
<stop stop-color="#09005D"/>
<stop offset="1" stop-color="#1A0F91"/>
</linearGradient>
<linearGradient id="paint58_linear_52_1243" x1="2684.33" y1="2573.69" x2="2700.87" y2="2444.34" gradientUnits="userSpaceOnUse">
<stop stop-color="#FEBBBA"/>
<stop offset="1" stop-color="#FF928E"/>
</linearGradient>
<linearGradient id="paint59_linear_52_1243" x1="2423.95" y1="1529.38" x2="2577.13" y2="2275.03" gradientUnits="userSpaceOnUse">
<stop stop-color="#09005D"/>
<stop offset="1" stop-color="#1A0F91"/>
</linearGradient>
<linearGradient id="paint60_linear_52_1243" x1="2694.32" y1="2004.05" x2="2675.8" y2="1967" gradientUnits="userSpaceOnUse">
<stop stop-color="#4F52FF"/>
<stop offset="1" stop-color="#4042E2"/>
</linearGradient>
<linearGradient id="paint61_linear_52_1243" x1="2389.52" y1="1225.94" x2="2707.48" y2="2170.55" gradientUnits="userSpaceOnUse">
<stop stop-color="#4F52FF"/>
<stop offset="1" stop-color="#4042E2"/>
</linearGradient>
<linearGradient id="paint62_linear_52_1243" x1="2559.28" y1="1724.13" x2="2327.39" y2="1724.13" gradientUnits="userSpaceOnUse">
<stop stop-color="#FEBBBA"/>
<stop offset="1" stop-color="#FF928E"/>
</linearGradient>
<linearGradient id="paint63_linear_52_1243" x1="2345.59" y1="1433.45" x2="1912.55" y2="1433.45" gradientUnits="userSpaceOnUse">
<stop stop-color="#FEBBBA"/>
<stop offset="1" stop-color="#FF928E"/>
</linearGradient>
<linearGradient id="paint64_linear_52_1243" x1="2501.49" y1="1190.57" x2="2350.78" y2="1035.95" gradientUnits="userSpaceOnUse">
<stop stop-color="#FEBBBA"/>
<stop offset="1" stop-color="#FF928E"/>
</linearGradient>
<linearGradient id="paint65_linear_52_1243" x1="2282.93" y1="938.528" x2="2470.82" y2="1187.1" gradientUnits="userSpaceOnUse">
<stop stop-color="#FEBBBA"/>
<stop offset="1" stop-color="#FF928E"/>
</linearGradient>
<linearGradient id="paint66_linear_52_1243" x1="2569.35" y1="231.598" x2="2371.11" y2="806.037" gradientUnits="userSpaceOnUse">
<stop stop-color="#E1473D"/>
<stop offset="1" stop-color="#E9605A"/>
</linearGradient>
<linearGradient id="paint67_linear_52_1243" x1="2558.12" y1="1135.37" x2="2407.41" y2="980.754" gradientUnits="userSpaceOnUse">
<stop stop-color="#FEBBBA"/>
<stop offset="1" stop-color="#FF928E"/>
</linearGradient>
<linearGradient id="paint68_linear_52_1243" x1="139.997" y1="3989.4" x2="698.121" y2="1999.11" gradientUnits="userSpaceOnUse">
<stop stop-color="#4F52FF"/>
<stop offset="1" stop-color="#4042E2"/>
</linearGradient>
<linearGradient id="paint69_linear_52_1243" x1="169.139" y1="3997.57" x2="727.263" y2="2007.28" gradientUnits="userSpaceOnUse">
<stop stop-color="#4F52FF"/>
<stop offset="1" stop-color="#4042E2"/>
</linearGradient>
<linearGradient id="paint70_linear_52_1243" x1="1703.47" y1="4427.84" x2="2261.6" y2="2437.55" gradientUnits="userSpaceOnUse">
<stop stop-color="#4F52FF"/>
<stop offset="1" stop-color="#4042E2"/>
</linearGradient>
<linearGradient id="paint71_linear_52_1243" x1="1732.61" y1="4436.01" x2="2290.74" y2="2445.71" gradientUnits="userSpaceOnUse">
<stop stop-color="#4F52FF"/>
<stop offset="1" stop-color="#4042E2"/>
</linearGradient>
<linearGradient id="paint72_linear_52_1243" x1="2490.86" y1="1254.33" x2="2401.18" y2="1630.97" gradientUnits="userSpaceOnUse">
<stop stop-color="#09005D"/>
<stop offset="1" stop-color="#1A0F91"/>
</linearGradient>
<linearGradient id="paint73_linear_52_1243" x1="827.545" y1="4182.2" x2="1385.67" y2="2191.91" gradientUnits="userSpaceOnUse">
<stop stop-color="#4F52FF"/>
<stop offset="1" stop-color="#4042E2"/>
</linearGradient>
</defs>
</svg>
