<?xml version="1.0" standalone="no"?>
<!DOCTYPE svg PUBLIC "-//W3C//DTD SVG 20010904//EN"
 "http://www.w3.org/TR/2001/REC-SVG-20010904/DTD/svg10.dtd">
<svg version="1.0" xmlns="http://www.w3.org/2000/svg"
 width="734.000000pt" height="734.000000pt" viewBox="0 0 734.000000 734.000000"
 preserveAspectRatio="xMidYMid meet">
<metadata>
Created by potrace 1.14, written by Peter Selinger 2001-2017
</metadata>
<g transform="translate(0.000000,734.000000) scale(0.100000,-0.100000)"
fill="#000000" stroke="none">
<path d="M910 6048 c0 -711 4 -1288 8 -1282 10 16 90 110 132 155 19 21 40 44
45 51 18 23 179 210 205 238 8 9 55 63 105 120 96 112 141 164 165 190 8 9 37
43 65 75 27 33 64 76 82 95 18 19 33 38 33 43 0 5 18 7 40 6 21 -2 42 -1 45 3
3 3 20 2 38 -1 18 -4 51 -4 75 -1 23 4 42 4 42 1 0 -3 26 -5 57 -4 111 5 172
5 180 0 5 -3 27 -2 51 3 23 4 42 4 42 0 0 -4 18 -4 40 0 22 4 43 4 45 0 3 -4
20 -5 38 -1 18 5 41 5 52 1 11 -4 24 -5 29 -2 4 2 47 4 95 3 92 -2 91 -2 136
-2 17 1 39 1 50 1 11 -1 46 0 78 0 32 0 62 -2 68 -5 5 -4 9 -2 9 3 0 5 19 6
43 3 23 -4 58 -4 77 -1 19 3 53 3 75 0 22 -3 60 -3 85 0 25 3 61 3 80 0 19 -4
46 -3 60 0 14 4 34 4 45 0 11 -3 34 -4 50 0 17 3 51 3 78 0 26 -4 47 -3 47 0
0 4 19 4 43 1 23 -4 58 -4 77 -1 19 3 54 3 78 -1 23 -3 45 -3 47 1 3 4 22 4
42 1 21 -4 52 -4 68 -1 17 3 51 3 78 0 26 -4 47 -3 47 0 0 4 19 4 43 1 23 -4
59 -4 80 0 21 3 40 2 43 -3 3 -4 9 -6 14 -3 5 3 35 5 67 5 165 -1 214 0 223 5
6 3 10 2 10 -3 0 -5 17 -6 40 -2 22 4 40 4 40 0 0 -4 18 -4 40 0 22 4 40 4 40
0 0 -4 17 -4 38 0 21 4 47 5 58 3 10 -2 63 -4 117 -4 53 0 97 -4 97 -8 0 -5
-18 -39 -40 -75 -22 -36 -40 -68 -40 -70 0 -3 -13 -24 -29 -48 -16 -24 -37
-59 -48 -78 -10 -19 -30 -53 -44 -75 -14 -22 -37 -59 -50 -82 -13 -23 -53 -90
-89 -150 -36 -59 -66 -114 -68 -120 -2 -7 -8 -13 -13 -13 -5 0 -9 -5 -9 -10 0
-6 -16 -36 -35 -66 -19 -30 -35 -56 -35 -58 0 -2 -18 -33 -39 -67 -22 -35 -79
-131 -128 -213 -48 -82 -99 -168 -113 -190 -14 -23 -38 -64 -54 -92 -16 -27
-39 -65 -51 -84 -12 -19 -89 -147 -170 -285 -81 -137 -156 -262 -166 -277 -11
-15 -19 -30 -19 -34 0 -4 -10 -21 -23 -38 -12 -17 -34 -52 -47 -78 -14 -27
-28 -48 -32 -48 -5 0 -8 -4 -8 -9 0 -12 -71 -134 -83 -142 -5 -3 -7 -8 -6 -10
3 -4 -7 -20 -50 -89 -9 -14 -21 -34 -27 -45 -6 -11 -88 -149 -182 -307 -95
-157 -172 -291 -172 -296 0 -6 -3 -12 -7 -14 -8 -3 -56 -79 -101 -158 -11 -19
-52 -89 -91 -154 -40 -65 -79 -131 -87 -145 -8 -14 -23 -39 -34 -56 -11 -16
-24 -39 -30 -50 -5 -11 -25 -45 -44 -75 -19 -30 -43 -71 -54 -90 l-20 -36
1239 0 1239 0 -32 21 c-18 11 -35 20 -38 20 -3 0 -16 8 -30 16 -14 9 -72 41
-130 72 -58 30 -133 70 -167 88 l-61 33 24 46 c14 25 51 88 84 140 32 52 59
100 59 107 1 6 4 13 9 15 6 2 201 325 264 438 11 19 25 42 32 50 7 8 18 26 25
40 6 14 23 43 36 65 14 22 28 47 32 55 4 8 11 20 15 25 5 6 29 46 55 90 25 44
53 91 62 105 14 20 119 196 166 278 42 72 142 240 212 355 45 75 83 140 83
144 0 3 11 21 25 39 14 18 25 35 25 38 0 3 31 57 70 121 38 64 70 118 70 121
0 3 5 10 10 17 6 7 36 55 66 107 31 52 61 104 68 115 7 11 13 24 14 29 0 5 5
12 10 15 5 3 19 24 31 46 12 22 33 58 47 80 14 22 27 48 31 58 3 9 9 17 13 17
5 0 12 9 15 21 4 12 33 62 64 112 31 51 60 99 64 107 4 8 15 27 25 42 32 50
72 121 72 129 0 5 5 9 10 9 6 0 10 5 10 10 0 6 11 27 24 48 13 20 77 127 142
237 65 110 122 202 126 203 4 2 8 366 8 808 l0 804 -3000 0 -3000 0 0 -1292z
m5700 -288 c0 -5 6 -10 13 -10 6 0 22 -8 34 -18 l22 -17 -40 -65 c-22 -36 -45
-74 -50 -85 -5 -11 -18 -33 -29 -50 -11 -16 -25 -41 -32 -55 -7 -14 -15 -27
-18 -30 -10 -9 -120 -202 -120 -210 0 -5 -4 -10 -8 -12 -4 -1 -30 -41 -56 -88
-27 -47 -55 -93 -64 -102 -8 -10 -12 -18 -8 -18 4 0 2 -6 -4 -12 -14 -17 -210
-348 -210 -356 0 -3 -6 -13 -14 -21 -7 -9 -25 -36 -38 -61 -14 -25 -66 -114
-117 -198 -50 -84 -91 -157 -91 -162 0 -6 -3 -10 -7 -10 -5 0 -19 -23 -32 -50
-14 -28 -29 -50 -33 -50 -4 0 -8 -4 -8 -10 0 -5 -31 -61 -70 -125 -38 -64 -70
-118 -70 -121 0 -3 -8 -17 -19 -32 -10 -15 -46 -74 -79 -132 -34 -58 -66 -110
-72 -117 -5 -7 -10 -14 -10 -17 0 -4 -222 -384 -250 -426 -18 -29 -85 -145
-89 -155 -2 -5 -9 -17 -16 -25 -7 -8 -24 -35 -38 -60 -22 -39 -60 -104 -92
-158 -33 -55 -72 -121 -85 -144 -8 -14 -55 -94 -105 -176 l-89 -150 -38 20
c-21 11 -38 26 -38 34 0 14 19 54 31 64 3 3 18 28 33 55 16 28 35 61 43 75 8
14 23 39 34 55 10 17 25 41 32 55 7 14 53 92 102 175 50 82 95 158 100 167 6
9 44 74 85 144 41 70 84 143 96 163 12 20 39 65 61 101 21 36 42 72 46 80 4 8
11 22 17 30 5 8 39 65 75 125 36 61 69 115 75 122 5 7 10 15 10 18 0 3 34 61
75 130 41 69 75 130 75 135 0 6 4 10 8 10 4 0 18 19 30 43 12 23 33 60 46 82
14 22 41 68 61 103 20 35 59 99 86 143 27 44 49 82 49 83 0 4 158 270 167 281
5 6 15 25 22 43 7 17 17 32 22 32 4 0 11 10 15 23 4 12 20 41 35 64 16 23 29
46 29 52 0 6 5 11 10 11 6 0 10 5 10 11 0 6 12 30 26 53 38 60 304 509 304
512 0 2 19 34 42 71 22 38 49 82 59 99 31 56 44 74 51 74 5 0 8 -4 8 -10z"/>
<path d="M2181 5541 c-7 -5 7 -17 36 -32 153 -80 198 -105 201 -111 2 -5 12
-8 22 -8 10 0 20 -3 22 -7 2 -5 38 -26 81 -47 42 -22 77 -45 77 -52 0 -12
-106 -198 -157 -275 -12 -19 -23 -40 -23 -47 0 -7 -4 -12 -8 -12 -5 0 -17 -18
-27 -40 -10 -22 -22 -40 -27 -40 -4 0 -8 -4 -8 -10 0 -5 -18 -39 -40 -75 -22
-36 -40 -68 -40 -71 0 -2 -9 -17 -19 -32 -10 -15 -70 -112 -131 -217 -62 -104
-122 -203 -132 -220 -10 -16 -21 -38 -24 -47 -4 -10 -10 -18 -15 -18 -5 0 -9
-5 -9 -10 0 -6 -16 -36 -35 -66 -19 -30 -35 -56 -35 -58 0 -2 -18 -33 -40 -67
-22 -35 -43 -71 -47 -79 -4 -8 -21 -37 -39 -65 -17 -27 -40 -66 -50 -85 -11
-19 -76 -130 -146 -246 -69 -116 -135 -226 -146 -245 -11 -19 -74 -126 -141
-237 -66 -112 -121 -207 -121 -212 0 -5 -3 -10 -8 -12 -6 -2 -85 -132 -194
-319 -7 -12 -28 -45 -45 -73 -18 -28 -33 -56 -33 -62 0 -6 -9 -19 -20 -29 -11
-10 -20 -22 -20 -27 0 -5 -16 -34 -35 -64 -19 -30 -35 -56 -35 -59 0 -8 -65
-110 -72 -113 -5 -2 -8 -8 -8 -13 0 -10 -206 -360 -241 -411 -18 -25 -19 -62
-19 -825 l0 -799 3000 0 3000 0 0 1290 c-1 1017 -3 1288 -13 1275 -14 -19
-104 -122 -132 -153 -11 -12 -47 -53 -80 -91 -33 -39 -69 -81 -81 -95 -12 -14
-59 -68 -104 -120 -46 -52 -107 -122 -136 -155 -29 -33 -62 -71 -74 -85 -29
-35 -87 -102 -164 -190 l-65 -75 -1635 0 c-909 0 -1636 3 -1636 8 0 5 47 88
105 184 58 97 105 180 105 184 0 5 4 9 9 9 5 0 11 8 14 18 7 21 54 102 72 122
7 8 16 25 19 38 4 12 12 22 17 22 5 0 9 4 9 9 0 9 197 344 231 393 10 15 19
29 19 30 0 7 309 523 325 543 8 10 15 23 15 28 0 4 17 34 37 65 20 31 37 59
38 62 0 3 8 16 17 30 9 14 73 122 143 240 70 118 136 229 147 245 63 100 268
449 268 456 0 5 4 9 8 9 4 0 13 12 19 28 7 15 30 56 53 91 22 34 40 67 40 72
0 5 5 9 10 9 6 0 10 5 10 10 0 6 19 41 41 78 23 37 50 82 60 100 28 48 128
215 139 232 6 8 13 23 16 33 4 9 10 17 14 17 5 0 13 12 19 28 6 15 34 65 63
112 29 47 62 102 73 123 11 20 23 37 27 37 5 0 7 3 6 8 -1 4 8 23 20 42 120
194 130 215 108 221 -12 3 -29 2 -38 -2 -10 -6 -18 -4 -21 4 -3 6 -6 7 -6 1
-1 -7 -18 -8 -49 -4 -27 3 -60 3 -74 -1 -14 -4 -31 -3 -38 1 -7 4 -25 4 -40 0
-15 -4 -33 -4 -40 0 -7 4 -25 4 -40 0 -15 -4 -33 -4 -40 0 -7 4 -25 4 -40 0
-15 -4 -33 -4 -40 0 -7 4 -25 4 -40 0 -15 -4 -33 -4 -40 0 -7 4 -25 4 -40 0
-15 -4 -33 -4 -40 0 -7 4 -25 4 -40 0 -15 -4 -33 -4 -40 0 -7 4 -24 5 -38 1
-14 -4 -47 -4 -72 -1 -26 3 -56 3 -66 -1 -11 -3 -29 -3 -41 2 -13 5 -23 5 -23
1 0 -5 -21 -6 -47 -2 -27 3 -61 3 -78 0 -16 -4 -40 -3 -52 2 -14 4 -23 4 -23
-3 0 -6 -7 -6 -20 1 -11 6 -20 7 -20 3 0 -4 -36 -6 -80 -3 -45 3 -89 2 -98 -1
-9 -4 -27 -3 -39 2 -14 5 -23 5 -23 -1 0 -6 -9 -6 -22 -1 -13 4 -34 5 -48 1
-14 -4 -37 -3 -52 1 -15 4 -30 4 -32 0 -3 -4 -27 -5 -53 -1 -27 3 -60 3 -73 0
-14 -4 -37 -3 -52 1 -17 5 -28 4 -28 -2 0 -6 -8 -5 -20 1 -11 6 -20 7 -20 3 0
-4 -36 -6 -80 -3 -45 3 -89 2 -98 -1 -9 -4 -27 -3 -39 2 -13 5 -23 5 -23 1 0
-5 -21 -6 -48 -2 -26 3 -59 3 -72 0 -14 -4 -37 -3 -52 1 -17 5 -28 4 -28 -2 0
-6 -8 -5 -20 1 -11 6 -20 7 -20 3 0 -9 -92 -8 -114 0 -7 3 -18 2 -25 -2z"/>
</g>
</svg>
